G04 #@! TF.GenerationSoftware,KiCad,Pcbnew,9.0.0*
G04 #@! TF.CreationDate,2025-09-07T21:01:46+01:00*
G04 #@! TF.ProjectId,split_keyboard_1,73706c69-745f-46b6-9579-626f6172645f,rev?*
G04 #@! TF.SameCoordinates,Original*
G04 #@! TF.FileFunction,Soldermask,Bot*
G04 #@! TF.FilePolarity,Negative*
%FSLAX46Y46*%
G04 Gerber Fmt 4.6, Leading zero omitted, Abs format (unit mm)*
G04 Created by KiCad (PCBNEW 9.0.0) date 2025-09-07 21:01:46*
%MOMM*%
%LPD*%
G01*
G04 APERTURE LIST*
G04 Aperture macros list*
%AMRoundRect*
0 Rectangle with rounded corners*
0 $1 Rounding radius*
0 $2 $3 $4 $5 $6 $7 $8 $9 X,Y pos of 4 corners*
0 Add a 4 corners polygon primitive as box body*
4,1,4,$2,$3,$4,$5,$6,$7,$8,$9,$2,$3,0*
0 Add four circle primitives for the rounded corners*
1,1,$1+$1,$2,$3*
1,1,$1+$1,$4,$5*
1,1,$1+$1,$6,$7*
1,1,$1+$1,$8,$9*
0 Add four rect primitives between the rounded corners*
20,1,$1+$1,$2,$3,$4,$5,0*
20,1,$1+$1,$4,$5,$6,$7,0*
20,1,$1+$1,$6,$7,$8,$9,0*
20,1,$1+$1,$8,$9,$2,$3,0*%
G04 Aperture macros list end*
%ADD10C,1.900000*%
%ADD11C,3.050000*%
%ADD12C,3.450000*%
%ADD13RoundRect,0.250000X-1.025000X-1.000000X1.025000X-1.000000X1.025000X1.000000X-1.025000X1.000000X0*%
%ADD14C,1.700000*%
%ADD15RoundRect,0.225000X0.375000X-0.225000X0.375000X0.225000X-0.375000X0.225000X-0.375000X-0.225000X0*%
%ADD16C,0.900000*%
%ADD17R,0.700000X1.500000*%
%ADD18R,1.000000X0.800000*%
%ADD19C,0.750000*%
%ADD20R,1.550000X1.000000*%
%ADD21RoundRect,0.150000X0.700000X-0.150000X0.700000X0.150000X-0.700000X0.150000X-0.700000X-0.150000X0*%
%ADD22RoundRect,0.250000X1.100000X-0.250000X1.100000X0.250000X-1.100000X0.250000X-1.100000X-0.250000X0*%
G04 APERTURE END LIST*
D10*
X166250000Y-69000000D03*
D11*
X171750000Y-63100000D03*
D12*
X171750000Y-69000000D03*
D11*
X176750000Y-65200000D03*
D10*
X177250000Y-69000000D03*
D13*
X168250000Y-63000000D03*
X180250000Y-65200000D03*
D10*
X112250000Y-120000000D03*
D11*
X117750000Y-114100000D03*
D12*
X117750000Y-120000000D03*
D11*
X122750000Y-116200000D03*
D10*
X123250000Y-120000000D03*
D13*
X114250000Y-114000000D03*
X126250000Y-116200000D03*
D10*
X94250000Y-69000000D03*
D11*
X99750000Y-63100000D03*
D12*
X99750000Y-69000000D03*
D11*
X104750000Y-65200000D03*
D10*
X105250000Y-69000000D03*
D13*
X96250000Y-63000000D03*
X108250000Y-65200000D03*
D10*
X148250000Y-86000000D03*
D11*
X153750000Y-80100000D03*
D12*
X153750000Y-86000000D03*
D11*
X158750000Y-82200000D03*
D10*
X159250000Y-86000000D03*
D13*
X150250000Y-80000000D03*
X162250000Y-82200000D03*
D10*
X112250000Y-103000000D03*
D11*
X117750000Y-97100000D03*
D12*
X117750000Y-103000000D03*
D11*
X122750000Y-99200000D03*
D10*
X123250000Y-103000000D03*
D13*
X114250000Y-97000000D03*
X126250000Y-99200000D03*
D10*
X166250000Y-86000000D03*
D11*
X171750000Y-80100000D03*
D12*
X171750000Y-86000000D03*
D11*
X176750000Y-82200000D03*
D10*
X177250000Y-86000000D03*
D13*
X168250000Y-80000000D03*
X180250000Y-82200000D03*
D10*
X166250000Y-103000000D03*
D11*
X171750000Y-97100000D03*
D12*
X171750000Y-103000000D03*
D11*
X176750000Y-99200000D03*
D10*
X177250000Y-103000000D03*
D13*
X168250000Y-97000000D03*
X180250000Y-99200000D03*
D10*
X130250000Y-86000000D03*
D11*
X135750000Y-80100000D03*
D12*
X135750000Y-86000000D03*
D11*
X140750000Y-82200000D03*
D10*
X141250000Y-86000000D03*
D13*
X132250000Y-80000000D03*
X144250000Y-82200000D03*
D10*
X148250000Y-137000000D03*
D11*
X153750000Y-131100000D03*
D12*
X153750000Y-137000000D03*
D11*
X158750000Y-133200000D03*
D10*
X159250000Y-137000000D03*
D13*
X150250000Y-131000000D03*
X162250000Y-133200000D03*
D10*
X130250000Y-120000000D03*
D11*
X135750000Y-114100000D03*
D12*
X135750000Y-120000000D03*
D11*
X140750000Y-116200000D03*
D10*
X141250000Y-120000000D03*
D13*
X132250000Y-114000000D03*
X144250000Y-116200000D03*
D10*
X166250000Y-120000000D03*
D11*
X171750000Y-114100000D03*
D12*
X171750000Y-120000000D03*
D11*
X176750000Y-116200000D03*
D10*
X177250000Y-120000000D03*
D13*
X168250000Y-114000000D03*
X180250000Y-116200000D03*
D10*
X130250000Y-137000000D03*
D11*
X135750000Y-131100000D03*
D12*
X135750000Y-137000000D03*
D11*
X140750000Y-133200000D03*
D10*
X141250000Y-137000000D03*
D13*
X132250000Y-131000000D03*
X144250000Y-133200000D03*
D10*
X130250000Y-69000000D03*
D11*
X135750000Y-63100000D03*
D12*
X135750000Y-69000000D03*
D11*
X140750000Y-65200000D03*
D10*
X141250000Y-69000000D03*
D13*
X132250000Y-63000000D03*
X144250000Y-65200000D03*
D10*
X148250000Y-69000000D03*
D11*
X153750000Y-63100000D03*
D12*
X153750000Y-69000000D03*
D11*
X158750000Y-65200000D03*
D10*
X159250000Y-69000000D03*
D13*
X150250000Y-63000000D03*
X162250000Y-65200000D03*
D10*
X112250000Y-69000000D03*
D11*
X117750000Y-63100000D03*
D12*
X117750000Y-69000000D03*
D11*
X122750000Y-65200000D03*
D10*
X123250000Y-69000000D03*
D13*
X114250000Y-63000000D03*
X126250000Y-65200000D03*
D10*
X184250000Y-120000000D03*
D11*
X189750000Y-114100000D03*
D12*
X189750000Y-120000000D03*
D11*
X194750000Y-116200000D03*
D10*
X195250000Y-120000000D03*
D13*
X186250000Y-114000000D03*
X198250000Y-116200000D03*
D10*
X184250000Y-103000000D03*
D11*
X189750000Y-97100000D03*
D12*
X189750000Y-103000000D03*
D11*
X194750000Y-99200000D03*
D10*
X195250000Y-103000000D03*
D13*
X186250000Y-97000000D03*
X198250000Y-99200000D03*
D10*
X148250000Y-120000000D03*
D11*
X153750000Y-114100000D03*
D12*
X153750000Y-120000000D03*
D11*
X158750000Y-116200000D03*
D10*
X159250000Y-120000000D03*
D13*
X150250000Y-114000000D03*
X162250000Y-116200000D03*
D10*
X94250000Y-86000000D03*
D11*
X99750000Y-80100000D03*
D12*
X99750000Y-86000000D03*
D11*
X104750000Y-82200000D03*
D10*
X105250000Y-86000000D03*
D13*
X96250000Y-80000000D03*
X108250000Y-82200000D03*
D10*
X148250000Y-103000000D03*
D11*
X153750000Y-97100000D03*
D12*
X153750000Y-103000000D03*
D11*
X158750000Y-99200000D03*
D10*
X159250000Y-103000000D03*
D13*
X150250000Y-97000000D03*
X162250000Y-99200000D03*
D10*
X112250000Y-86000000D03*
D11*
X117750000Y-80100000D03*
D12*
X117750000Y-86000000D03*
D11*
X122750000Y-82200000D03*
D10*
X123250000Y-86000000D03*
D13*
X114250000Y-80000000D03*
X126250000Y-82200000D03*
D10*
X130250000Y-103000000D03*
D11*
X135750000Y-97100000D03*
D12*
X135750000Y-103000000D03*
D11*
X140750000Y-99200000D03*
D10*
X141250000Y-103000000D03*
D13*
X132250000Y-97000000D03*
X144250000Y-99200000D03*
D10*
X184250000Y-137000000D03*
D11*
X189750000Y-131100000D03*
D12*
X189750000Y-137000000D03*
D11*
X194750000Y-133200000D03*
D10*
X195250000Y-137000000D03*
D13*
X186250000Y-131000000D03*
X198250000Y-133200000D03*
D10*
X94250000Y-137000000D03*
D11*
X99750000Y-131100000D03*
D12*
X99750000Y-137000000D03*
D11*
X104750000Y-133200000D03*
D10*
X105250000Y-137000000D03*
D13*
X96250000Y-131000000D03*
X108250000Y-133200000D03*
D10*
X112250000Y-137000000D03*
D11*
X117750000Y-131100000D03*
D12*
X117750000Y-137000000D03*
D11*
X122750000Y-133200000D03*
D10*
X123250000Y-137000000D03*
D13*
X114250000Y-131000000D03*
X126250000Y-133200000D03*
D10*
X94250000Y-103000000D03*
D11*
X99750000Y-97100000D03*
D12*
X99750000Y-103000000D03*
D11*
X104750000Y-99200000D03*
D10*
X105250000Y-103000000D03*
D13*
X96250000Y-97000000D03*
X108250000Y-99200000D03*
D10*
X94250000Y-120000000D03*
D11*
X99750000Y-114100000D03*
D12*
X99750000Y-120000000D03*
D11*
X104750000Y-116200000D03*
D10*
X105250000Y-120000000D03*
D13*
X96250000Y-114000000D03*
X108250000Y-116200000D03*
D10*
X184250000Y-86000000D03*
D11*
X189750000Y-80100000D03*
D12*
X189750000Y-86000000D03*
D11*
X194750000Y-82200000D03*
D10*
X195250000Y-86000000D03*
D13*
X186250000Y-80000000D03*
X198250000Y-82200000D03*
D10*
X184250000Y-69000000D03*
D11*
X189750000Y-63100000D03*
D12*
X189750000Y-69000000D03*
D11*
X194750000Y-65200000D03*
D10*
X195250000Y-69000000D03*
D13*
X186250000Y-63000000D03*
X198250000Y-65200000D03*
D10*
X166250000Y-137000000D03*
D11*
X171750000Y-131100000D03*
D12*
X171750000Y-137000000D03*
D11*
X176750000Y-133200000D03*
D10*
X177250000Y-137000000D03*
D13*
X168250000Y-131000000D03*
X180250000Y-133200000D03*
D14*
X164670000Y-76000000D03*
X167210000Y-76000000D03*
X169750000Y-76000000D03*
X172290000Y-76000000D03*
X174830000Y-76000000D03*
X177370000Y-76000000D03*
X179910000Y-76000000D03*
X182450000Y-76000000D03*
X184990000Y-76000000D03*
X187530000Y-76000000D03*
X190070000Y-76000000D03*
X192610000Y-76000000D03*
X195150000Y-76000000D03*
X164670000Y-91240000D03*
X167210000Y-91240000D03*
X169750000Y-91240000D03*
X172290000Y-91240000D03*
X174830000Y-91240000D03*
X177370000Y-91240000D03*
X179910000Y-91240000D03*
X182450000Y-91240000D03*
X184990000Y-91240000D03*
X187530000Y-91240000D03*
X190070000Y-91240000D03*
X192610000Y-91240000D03*
X195150000Y-91240000D03*
D15*
X162750000Y-122150000D03*
X162750000Y-118850000D03*
X108750000Y-88250000D03*
X108750000Y-84950000D03*
D16*
X151320000Y-145500000D03*
X148320000Y-145500000D03*
D17*
X152070000Y-143750000D03*
X149070000Y-143750000D03*
X147570000Y-143750000D03*
D18*
X153470000Y-144400000D03*
X153470000Y-146600000D03*
X146170000Y-144400000D03*
X146170000Y-146600000D03*
D15*
X126750000Y-122250000D03*
X126750000Y-118950000D03*
X180750000Y-105250000D03*
X180750000Y-101950000D03*
X144750000Y-71150000D03*
X144750000Y-67850000D03*
X180750000Y-88250000D03*
X180750000Y-84950000D03*
X180750000Y-71150000D03*
X180750000Y-67850000D03*
X198750000Y-88250000D03*
X198750000Y-84950000D03*
X198750000Y-122150000D03*
X198750000Y-118850000D03*
X108750000Y-139150000D03*
X108750000Y-135850000D03*
X162750000Y-71150000D03*
X162750000Y-67850000D03*
X198750000Y-139150000D03*
X198750000Y-135850000D03*
D19*
X139750000Y-147025000D03*
X139750000Y-144275000D03*
D20*
X137125000Y-144800000D03*
X137125000Y-146500000D03*
X142375000Y-144800000D03*
X142375000Y-146500000D03*
D15*
X108750000Y-71150000D03*
X108750000Y-67850000D03*
X144750000Y-105150000D03*
X144750000Y-101850000D03*
X126750000Y-105150000D03*
X126750000Y-101850000D03*
X144750000Y-88250000D03*
X144750000Y-84950000D03*
X126750000Y-88250000D03*
X126750000Y-84950000D03*
X162750000Y-139150000D03*
X162750000Y-135850000D03*
X144750000Y-139150000D03*
X144750000Y-135850000D03*
X126750000Y-71150000D03*
X126750000Y-67850000D03*
X162750000Y-105250000D03*
X162750000Y-101950000D03*
D21*
X192350000Y-144125000D03*
X192350000Y-142875000D03*
D22*
X189150000Y-145975000D03*
X189150000Y-141025000D03*
D15*
X180750000Y-122150000D03*
X180750000Y-118850000D03*
X162750000Y-88250000D03*
X162750000Y-84950000D03*
X180750000Y-139150000D03*
X180750000Y-135850000D03*
X144750000Y-122150000D03*
X144750000Y-118850000D03*
X126750000Y-139150000D03*
X126750000Y-135850000D03*
X108750000Y-105250000D03*
X108750000Y-101950000D03*
X198750000Y-105150000D03*
X198750000Y-101850000D03*
X198750000Y-71150000D03*
X198750000Y-67850000D03*
X108750000Y-122300000D03*
X108750000Y-119000000D03*
M02*
