M48
; DRILL file {KiCad 9.0.0} date 2025-09-07T21:05:57+0100
; FORMAT={-:-/ absolute / metric / decimal}
; #@! TF.CreationDate,2025-09-07T21:05:57+01:00
; #@! TF.GenerationSoftware,Kicad,Pcbnew,9.0.0
; #@! TF.FileFunction,Plated,1,2,PTH
FMAT,2
METRIC
; #@! TA.AperFunction,Plated,PTH,ViaDrill
T1C0.300
; #@! TA.AperFunction,Plated,PTH,ComponentDrill
T2C1.000
%
G90
G05
T1
X96.25Y-66.75
X96.25Y-83.75
X96.25Y-100.75
X96.25Y-117.75
X96.25Y-134.75
X114.25Y-66.5
X114.25Y-73.65
X114.25Y-74.85
X114.25Y-83.5
X114.25Y-100.5
X114.25Y-117.5
X114.25Y-134.5
X132.25Y-66.5
X132.25Y-72.75
X132.25Y-74.85
X132.25Y-83.5
X132.25Y-100.5
X132.25Y-117.5
X132.25Y-134.5
X150.25Y-66.5
X150.25Y-72.15
X150.25Y-74.85
X150.25Y-83.5
X150.25Y-100.5
X150.25Y-117.5
X150.25Y-134.5
X150.25Y-143.75
X152.0Y-140.5
X153.646Y-139.9
X166.75Y-92.75
X167.5Y-139.75
X167.999Y-78.25
X168.25Y-66.5
X168.25Y-72.15
X168.25Y-74.85
X168.25Y-83.5
X168.25Y-100.5
X168.25Y-117.5
X168.25Y-134.5
X169.199Y-78.25
X169.25Y-92.75
X169.25Y-93.951
X170.0Y-142.874
X170.303Y-94.075
X180.0Y-80.0
X180.0Y-89.5
X182.5Y-87.5
X182.5Y-89.5
X183.0Y-105.85
X183.1Y-104.65
X183.3Y-87.5
X183.3Y-89.5
X183.5Y-123.0
X183.549Y-121.7
X184.0Y-72.0
X184.0Y-104.65
X184.0Y-105.85
X185.5Y-87.5
X185.5Y-89.5
X186.25Y-66.5
X186.25Y-72.05
X186.25Y-74.85
X186.25Y-83.5
X186.25Y-100.5
X186.25Y-117.5
X186.25Y-134.5
X190.75Y-108.25
X192.0Y-125.25
X192.75Y-103.25
X193.25Y-73.25
T2
X164.67Y-76.0
X164.67Y-91.24
X167.21Y-76.0
X167.21Y-91.24
X169.75Y-76.0
X169.75Y-91.24
X172.29Y-76.0
X172.29Y-91.24
X174.83Y-76.0
X174.83Y-91.24
X177.37Y-76.0
X177.37Y-91.24
X179.91Y-76.0
X179.91Y-91.24
X182.45Y-76.0
X182.45Y-91.24
X184.99Y-76.0
X184.99Y-91.24
X187.53Y-76.0
X187.53Y-91.24
X190.07Y-76.0
X190.07Y-91.24
X192.61Y-76.0
X192.61Y-91.24
X195.15Y-76.0
X195.15Y-91.24
M30
