G04 #@! TF.GenerationSoftware,KiCad,Pcbnew,9.0.0*
G04 #@! TF.CreationDate,2025-09-07T21:04:34+01:00*
G04 #@! TF.ProjectId,split_keyboard_1,73706c69-745f-46b6-9579-626f6172645f,rev?*
G04 #@! TF.SameCoordinates,Original*
G04 #@! TF.FileFunction,Legend,Top*
G04 #@! TF.FilePolarity,Positive*
%FSLAX46Y46*%
G04 Gerber Fmt 4.6, Leading zero omitted, Abs format (unit mm)*
G04 Created by KiCad (PCBNEW 9.0.0) date 2025-09-07 21:04:34*
%MOMM*%
%LPD*%
G01*
G04 APERTURE LIST*
%ADD10C,0.150000*%
%ADD11C,0.120000*%
%ADD12C,0.100000*%
%ADD13C,1.900000*%
%ADD14C,3.050000*%
%ADD15C,3.450000*%
%ADD16C,1.700000*%
%ADD17C,0.900000*%
%ADD18C,0.750000*%
G04 APERTURE END LIST*
D10*
X170416667Y-72657200D02*
X170559524Y-72704819D01*
X170559524Y-72704819D02*
X170797619Y-72704819D01*
X170797619Y-72704819D02*
X170892857Y-72657200D01*
X170892857Y-72657200D02*
X170940476Y-72609580D01*
X170940476Y-72609580D02*
X170988095Y-72514342D01*
X170988095Y-72514342D02*
X170988095Y-72419104D01*
X170988095Y-72419104D02*
X170940476Y-72323866D01*
X170940476Y-72323866D02*
X170892857Y-72276247D01*
X170892857Y-72276247D02*
X170797619Y-72228628D01*
X170797619Y-72228628D02*
X170607143Y-72181009D01*
X170607143Y-72181009D02*
X170511905Y-72133390D01*
X170511905Y-72133390D02*
X170464286Y-72085771D01*
X170464286Y-72085771D02*
X170416667Y-71990533D01*
X170416667Y-71990533D02*
X170416667Y-71895295D01*
X170416667Y-71895295D02*
X170464286Y-71800057D01*
X170464286Y-71800057D02*
X170511905Y-71752438D01*
X170511905Y-71752438D02*
X170607143Y-71704819D01*
X170607143Y-71704819D02*
X170845238Y-71704819D01*
X170845238Y-71704819D02*
X170988095Y-71752438D01*
X171321429Y-71704819D02*
X171559524Y-72704819D01*
X171559524Y-72704819D02*
X171750000Y-71990533D01*
X171750000Y-71990533D02*
X171940476Y-72704819D01*
X171940476Y-72704819D02*
X172178572Y-71704819D01*
X173035714Y-71704819D02*
X172559524Y-71704819D01*
X172559524Y-71704819D02*
X172511905Y-72181009D01*
X172511905Y-72181009D02*
X172559524Y-72133390D01*
X172559524Y-72133390D02*
X172654762Y-72085771D01*
X172654762Y-72085771D02*
X172892857Y-72085771D01*
X172892857Y-72085771D02*
X172988095Y-72133390D01*
X172988095Y-72133390D02*
X173035714Y-72181009D01*
X173035714Y-72181009D02*
X173083333Y-72276247D01*
X173083333Y-72276247D02*
X173083333Y-72514342D01*
X173083333Y-72514342D02*
X173035714Y-72609580D01*
X173035714Y-72609580D02*
X172988095Y-72657200D01*
X172988095Y-72657200D02*
X172892857Y-72704819D01*
X172892857Y-72704819D02*
X172654762Y-72704819D01*
X172654762Y-72704819D02*
X172559524Y-72657200D01*
X172559524Y-72657200D02*
X172511905Y-72609580D01*
X115940476Y-123657200D02*
X116083333Y-123704819D01*
X116083333Y-123704819D02*
X116321428Y-123704819D01*
X116321428Y-123704819D02*
X116416666Y-123657200D01*
X116416666Y-123657200D02*
X116464285Y-123609580D01*
X116464285Y-123609580D02*
X116511904Y-123514342D01*
X116511904Y-123514342D02*
X116511904Y-123419104D01*
X116511904Y-123419104D02*
X116464285Y-123323866D01*
X116464285Y-123323866D02*
X116416666Y-123276247D01*
X116416666Y-123276247D02*
X116321428Y-123228628D01*
X116321428Y-123228628D02*
X116130952Y-123181009D01*
X116130952Y-123181009D02*
X116035714Y-123133390D01*
X116035714Y-123133390D02*
X115988095Y-123085771D01*
X115988095Y-123085771D02*
X115940476Y-122990533D01*
X115940476Y-122990533D02*
X115940476Y-122895295D01*
X115940476Y-122895295D02*
X115988095Y-122800057D01*
X115988095Y-122800057D02*
X116035714Y-122752438D01*
X116035714Y-122752438D02*
X116130952Y-122704819D01*
X116130952Y-122704819D02*
X116369047Y-122704819D01*
X116369047Y-122704819D02*
X116511904Y-122752438D01*
X116845238Y-122704819D02*
X117083333Y-123704819D01*
X117083333Y-123704819D02*
X117273809Y-122990533D01*
X117273809Y-122990533D02*
X117464285Y-123704819D01*
X117464285Y-123704819D02*
X117702381Y-122704819D01*
X118035714Y-122800057D02*
X118083333Y-122752438D01*
X118083333Y-122752438D02*
X118178571Y-122704819D01*
X118178571Y-122704819D02*
X118416666Y-122704819D01*
X118416666Y-122704819D02*
X118511904Y-122752438D01*
X118511904Y-122752438D02*
X118559523Y-122800057D01*
X118559523Y-122800057D02*
X118607142Y-122895295D01*
X118607142Y-122895295D02*
X118607142Y-122990533D01*
X118607142Y-122990533D02*
X118559523Y-123133390D01*
X118559523Y-123133390D02*
X117988095Y-123704819D01*
X117988095Y-123704819D02*
X118607142Y-123704819D01*
X119226190Y-122704819D02*
X119321428Y-122704819D01*
X119321428Y-122704819D02*
X119416666Y-122752438D01*
X119416666Y-122752438D02*
X119464285Y-122800057D01*
X119464285Y-122800057D02*
X119511904Y-122895295D01*
X119511904Y-122895295D02*
X119559523Y-123085771D01*
X119559523Y-123085771D02*
X119559523Y-123323866D01*
X119559523Y-123323866D02*
X119511904Y-123514342D01*
X119511904Y-123514342D02*
X119464285Y-123609580D01*
X119464285Y-123609580D02*
X119416666Y-123657200D01*
X119416666Y-123657200D02*
X119321428Y-123704819D01*
X119321428Y-123704819D02*
X119226190Y-123704819D01*
X119226190Y-123704819D02*
X119130952Y-123657200D01*
X119130952Y-123657200D02*
X119083333Y-123609580D01*
X119083333Y-123609580D02*
X119035714Y-123514342D01*
X119035714Y-123514342D02*
X118988095Y-123323866D01*
X118988095Y-123323866D02*
X118988095Y-123085771D01*
X118988095Y-123085771D02*
X119035714Y-122895295D01*
X119035714Y-122895295D02*
X119083333Y-122800057D01*
X119083333Y-122800057D02*
X119130952Y-122752438D01*
X119130952Y-122752438D02*
X119226190Y-122704819D01*
X98416667Y-72657200D02*
X98559524Y-72704819D01*
X98559524Y-72704819D02*
X98797619Y-72704819D01*
X98797619Y-72704819D02*
X98892857Y-72657200D01*
X98892857Y-72657200D02*
X98940476Y-72609580D01*
X98940476Y-72609580D02*
X98988095Y-72514342D01*
X98988095Y-72514342D02*
X98988095Y-72419104D01*
X98988095Y-72419104D02*
X98940476Y-72323866D01*
X98940476Y-72323866D02*
X98892857Y-72276247D01*
X98892857Y-72276247D02*
X98797619Y-72228628D01*
X98797619Y-72228628D02*
X98607143Y-72181009D01*
X98607143Y-72181009D02*
X98511905Y-72133390D01*
X98511905Y-72133390D02*
X98464286Y-72085771D01*
X98464286Y-72085771D02*
X98416667Y-71990533D01*
X98416667Y-71990533D02*
X98416667Y-71895295D01*
X98416667Y-71895295D02*
X98464286Y-71800057D01*
X98464286Y-71800057D02*
X98511905Y-71752438D01*
X98511905Y-71752438D02*
X98607143Y-71704819D01*
X98607143Y-71704819D02*
X98845238Y-71704819D01*
X98845238Y-71704819D02*
X98988095Y-71752438D01*
X99321429Y-71704819D02*
X99559524Y-72704819D01*
X99559524Y-72704819D02*
X99750000Y-71990533D01*
X99750000Y-71990533D02*
X99940476Y-72704819D01*
X99940476Y-72704819D02*
X100178572Y-71704819D01*
X101083333Y-72704819D02*
X100511905Y-72704819D01*
X100797619Y-72704819D02*
X100797619Y-71704819D01*
X100797619Y-71704819D02*
X100702381Y-71847676D01*
X100702381Y-71847676D02*
X100607143Y-71942914D01*
X100607143Y-71942914D02*
X100511905Y-71990533D01*
X151940476Y-89657200D02*
X152083333Y-89704819D01*
X152083333Y-89704819D02*
X152321428Y-89704819D01*
X152321428Y-89704819D02*
X152416666Y-89657200D01*
X152416666Y-89657200D02*
X152464285Y-89609580D01*
X152464285Y-89609580D02*
X152511904Y-89514342D01*
X152511904Y-89514342D02*
X152511904Y-89419104D01*
X152511904Y-89419104D02*
X152464285Y-89323866D01*
X152464285Y-89323866D02*
X152416666Y-89276247D01*
X152416666Y-89276247D02*
X152321428Y-89228628D01*
X152321428Y-89228628D02*
X152130952Y-89181009D01*
X152130952Y-89181009D02*
X152035714Y-89133390D01*
X152035714Y-89133390D02*
X151988095Y-89085771D01*
X151988095Y-89085771D02*
X151940476Y-88990533D01*
X151940476Y-88990533D02*
X151940476Y-88895295D01*
X151940476Y-88895295D02*
X151988095Y-88800057D01*
X151988095Y-88800057D02*
X152035714Y-88752438D01*
X152035714Y-88752438D02*
X152130952Y-88704819D01*
X152130952Y-88704819D02*
X152369047Y-88704819D01*
X152369047Y-88704819D02*
X152511904Y-88752438D01*
X152845238Y-88704819D02*
X153083333Y-89704819D01*
X153083333Y-89704819D02*
X153273809Y-88990533D01*
X153273809Y-88990533D02*
X153464285Y-89704819D01*
X153464285Y-89704819D02*
X153702381Y-88704819D01*
X154607142Y-89704819D02*
X154035714Y-89704819D01*
X154321428Y-89704819D02*
X154321428Y-88704819D01*
X154321428Y-88704819D02*
X154226190Y-88847676D01*
X154226190Y-88847676D02*
X154130952Y-88942914D01*
X154130952Y-88942914D02*
X154035714Y-88990533D01*
X155226190Y-88704819D02*
X155321428Y-88704819D01*
X155321428Y-88704819D02*
X155416666Y-88752438D01*
X155416666Y-88752438D02*
X155464285Y-88800057D01*
X155464285Y-88800057D02*
X155511904Y-88895295D01*
X155511904Y-88895295D02*
X155559523Y-89085771D01*
X155559523Y-89085771D02*
X155559523Y-89323866D01*
X155559523Y-89323866D02*
X155511904Y-89514342D01*
X155511904Y-89514342D02*
X155464285Y-89609580D01*
X155464285Y-89609580D02*
X155416666Y-89657200D01*
X155416666Y-89657200D02*
X155321428Y-89704819D01*
X155321428Y-89704819D02*
X155226190Y-89704819D01*
X155226190Y-89704819D02*
X155130952Y-89657200D01*
X155130952Y-89657200D02*
X155083333Y-89609580D01*
X155083333Y-89609580D02*
X155035714Y-89514342D01*
X155035714Y-89514342D02*
X154988095Y-89323866D01*
X154988095Y-89323866D02*
X154988095Y-89085771D01*
X154988095Y-89085771D02*
X155035714Y-88895295D01*
X155035714Y-88895295D02*
X155083333Y-88800057D01*
X155083333Y-88800057D02*
X155130952Y-88752438D01*
X155130952Y-88752438D02*
X155226190Y-88704819D01*
X115940476Y-106657200D02*
X116083333Y-106704819D01*
X116083333Y-106704819D02*
X116321428Y-106704819D01*
X116321428Y-106704819D02*
X116416666Y-106657200D01*
X116416666Y-106657200D02*
X116464285Y-106609580D01*
X116464285Y-106609580D02*
X116511904Y-106514342D01*
X116511904Y-106514342D02*
X116511904Y-106419104D01*
X116511904Y-106419104D02*
X116464285Y-106323866D01*
X116464285Y-106323866D02*
X116416666Y-106276247D01*
X116416666Y-106276247D02*
X116321428Y-106228628D01*
X116321428Y-106228628D02*
X116130952Y-106181009D01*
X116130952Y-106181009D02*
X116035714Y-106133390D01*
X116035714Y-106133390D02*
X115988095Y-106085771D01*
X115988095Y-106085771D02*
X115940476Y-105990533D01*
X115940476Y-105990533D02*
X115940476Y-105895295D01*
X115940476Y-105895295D02*
X115988095Y-105800057D01*
X115988095Y-105800057D02*
X116035714Y-105752438D01*
X116035714Y-105752438D02*
X116130952Y-105704819D01*
X116130952Y-105704819D02*
X116369047Y-105704819D01*
X116369047Y-105704819D02*
X116511904Y-105752438D01*
X116845238Y-105704819D02*
X117083333Y-106704819D01*
X117083333Y-106704819D02*
X117273809Y-105990533D01*
X117273809Y-105990533D02*
X117464285Y-106704819D01*
X117464285Y-106704819D02*
X117702381Y-105704819D01*
X118607142Y-106704819D02*
X118035714Y-106704819D01*
X118321428Y-106704819D02*
X118321428Y-105704819D01*
X118321428Y-105704819D02*
X118226190Y-105847676D01*
X118226190Y-105847676D02*
X118130952Y-105942914D01*
X118130952Y-105942914D02*
X118035714Y-105990533D01*
X119464285Y-106038152D02*
X119464285Y-106704819D01*
X119226190Y-105657200D02*
X118988095Y-106371485D01*
X118988095Y-106371485D02*
X119607142Y-106371485D01*
X169940476Y-89657200D02*
X170083333Y-89704819D01*
X170083333Y-89704819D02*
X170321428Y-89704819D01*
X170321428Y-89704819D02*
X170416666Y-89657200D01*
X170416666Y-89657200D02*
X170464285Y-89609580D01*
X170464285Y-89609580D02*
X170511904Y-89514342D01*
X170511904Y-89514342D02*
X170511904Y-89419104D01*
X170511904Y-89419104D02*
X170464285Y-89323866D01*
X170464285Y-89323866D02*
X170416666Y-89276247D01*
X170416666Y-89276247D02*
X170321428Y-89228628D01*
X170321428Y-89228628D02*
X170130952Y-89181009D01*
X170130952Y-89181009D02*
X170035714Y-89133390D01*
X170035714Y-89133390D02*
X169988095Y-89085771D01*
X169988095Y-89085771D02*
X169940476Y-88990533D01*
X169940476Y-88990533D02*
X169940476Y-88895295D01*
X169940476Y-88895295D02*
X169988095Y-88800057D01*
X169988095Y-88800057D02*
X170035714Y-88752438D01*
X170035714Y-88752438D02*
X170130952Y-88704819D01*
X170130952Y-88704819D02*
X170369047Y-88704819D01*
X170369047Y-88704819D02*
X170511904Y-88752438D01*
X170845238Y-88704819D02*
X171083333Y-89704819D01*
X171083333Y-89704819D02*
X171273809Y-88990533D01*
X171273809Y-88990533D02*
X171464285Y-89704819D01*
X171464285Y-89704819D02*
X171702381Y-88704819D01*
X172607142Y-89704819D02*
X172035714Y-89704819D01*
X172321428Y-89704819D02*
X172321428Y-88704819D01*
X172321428Y-88704819D02*
X172226190Y-88847676D01*
X172226190Y-88847676D02*
X172130952Y-88942914D01*
X172130952Y-88942914D02*
X172035714Y-88990533D01*
X173559523Y-89704819D02*
X172988095Y-89704819D01*
X173273809Y-89704819D02*
X173273809Y-88704819D01*
X173273809Y-88704819D02*
X173178571Y-88847676D01*
X173178571Y-88847676D02*
X173083333Y-88942914D01*
X173083333Y-88942914D02*
X172988095Y-88990533D01*
X169940476Y-106657200D02*
X170083333Y-106704819D01*
X170083333Y-106704819D02*
X170321428Y-106704819D01*
X170321428Y-106704819D02*
X170416666Y-106657200D01*
X170416666Y-106657200D02*
X170464285Y-106609580D01*
X170464285Y-106609580D02*
X170511904Y-106514342D01*
X170511904Y-106514342D02*
X170511904Y-106419104D01*
X170511904Y-106419104D02*
X170464285Y-106323866D01*
X170464285Y-106323866D02*
X170416666Y-106276247D01*
X170416666Y-106276247D02*
X170321428Y-106228628D01*
X170321428Y-106228628D02*
X170130952Y-106181009D01*
X170130952Y-106181009D02*
X170035714Y-106133390D01*
X170035714Y-106133390D02*
X169988095Y-106085771D01*
X169988095Y-106085771D02*
X169940476Y-105990533D01*
X169940476Y-105990533D02*
X169940476Y-105895295D01*
X169940476Y-105895295D02*
X169988095Y-105800057D01*
X169988095Y-105800057D02*
X170035714Y-105752438D01*
X170035714Y-105752438D02*
X170130952Y-105704819D01*
X170130952Y-105704819D02*
X170369047Y-105704819D01*
X170369047Y-105704819D02*
X170511904Y-105752438D01*
X170845238Y-105704819D02*
X171083333Y-106704819D01*
X171083333Y-106704819D02*
X171273809Y-105990533D01*
X171273809Y-105990533D02*
X171464285Y-106704819D01*
X171464285Y-106704819D02*
X171702381Y-105704819D01*
X172607142Y-106704819D02*
X172035714Y-106704819D01*
X172321428Y-106704819D02*
X172321428Y-105704819D01*
X172321428Y-105704819D02*
X172226190Y-105847676D01*
X172226190Y-105847676D02*
X172130952Y-105942914D01*
X172130952Y-105942914D02*
X172035714Y-105990533D01*
X172940476Y-105704819D02*
X173607142Y-105704819D01*
X173607142Y-105704819D02*
X173178571Y-106704819D01*
X134416667Y-89657200D02*
X134559524Y-89704819D01*
X134559524Y-89704819D02*
X134797619Y-89704819D01*
X134797619Y-89704819D02*
X134892857Y-89657200D01*
X134892857Y-89657200D02*
X134940476Y-89609580D01*
X134940476Y-89609580D02*
X134988095Y-89514342D01*
X134988095Y-89514342D02*
X134988095Y-89419104D01*
X134988095Y-89419104D02*
X134940476Y-89323866D01*
X134940476Y-89323866D02*
X134892857Y-89276247D01*
X134892857Y-89276247D02*
X134797619Y-89228628D01*
X134797619Y-89228628D02*
X134607143Y-89181009D01*
X134607143Y-89181009D02*
X134511905Y-89133390D01*
X134511905Y-89133390D02*
X134464286Y-89085771D01*
X134464286Y-89085771D02*
X134416667Y-88990533D01*
X134416667Y-88990533D02*
X134416667Y-88895295D01*
X134416667Y-88895295D02*
X134464286Y-88800057D01*
X134464286Y-88800057D02*
X134511905Y-88752438D01*
X134511905Y-88752438D02*
X134607143Y-88704819D01*
X134607143Y-88704819D02*
X134845238Y-88704819D01*
X134845238Y-88704819D02*
X134988095Y-88752438D01*
X135321429Y-88704819D02*
X135559524Y-89704819D01*
X135559524Y-89704819D02*
X135750000Y-88990533D01*
X135750000Y-88990533D02*
X135940476Y-89704819D01*
X135940476Y-89704819D02*
X136178572Y-88704819D01*
X136607143Y-89704819D02*
X136797619Y-89704819D01*
X136797619Y-89704819D02*
X136892857Y-89657200D01*
X136892857Y-89657200D02*
X136940476Y-89609580D01*
X136940476Y-89609580D02*
X137035714Y-89466723D01*
X137035714Y-89466723D02*
X137083333Y-89276247D01*
X137083333Y-89276247D02*
X137083333Y-88895295D01*
X137083333Y-88895295D02*
X137035714Y-88800057D01*
X137035714Y-88800057D02*
X136988095Y-88752438D01*
X136988095Y-88752438D02*
X136892857Y-88704819D01*
X136892857Y-88704819D02*
X136702381Y-88704819D01*
X136702381Y-88704819D02*
X136607143Y-88752438D01*
X136607143Y-88752438D02*
X136559524Y-88800057D01*
X136559524Y-88800057D02*
X136511905Y-88895295D01*
X136511905Y-88895295D02*
X136511905Y-89133390D01*
X136511905Y-89133390D02*
X136559524Y-89228628D01*
X136559524Y-89228628D02*
X136607143Y-89276247D01*
X136607143Y-89276247D02*
X136702381Y-89323866D01*
X136702381Y-89323866D02*
X136892857Y-89323866D01*
X136892857Y-89323866D02*
X136988095Y-89276247D01*
X136988095Y-89276247D02*
X137035714Y-89228628D01*
X137035714Y-89228628D02*
X137083333Y-89133390D01*
X151940476Y-140657200D02*
X152083333Y-140704819D01*
X152083333Y-140704819D02*
X152321428Y-140704819D01*
X152321428Y-140704819D02*
X152416666Y-140657200D01*
X152416666Y-140657200D02*
X152464285Y-140609580D01*
X152464285Y-140609580D02*
X152511904Y-140514342D01*
X152511904Y-140514342D02*
X152511904Y-140419104D01*
X152511904Y-140419104D02*
X152464285Y-140323866D01*
X152464285Y-140323866D02*
X152416666Y-140276247D01*
X152416666Y-140276247D02*
X152321428Y-140228628D01*
X152321428Y-140228628D02*
X152130952Y-140181009D01*
X152130952Y-140181009D02*
X152035714Y-140133390D01*
X152035714Y-140133390D02*
X151988095Y-140085771D01*
X151988095Y-140085771D02*
X151940476Y-139990533D01*
X151940476Y-139990533D02*
X151940476Y-139895295D01*
X151940476Y-139895295D02*
X151988095Y-139800057D01*
X151988095Y-139800057D02*
X152035714Y-139752438D01*
X152035714Y-139752438D02*
X152130952Y-139704819D01*
X152130952Y-139704819D02*
X152369047Y-139704819D01*
X152369047Y-139704819D02*
X152511904Y-139752438D01*
X152845238Y-139704819D02*
X153083333Y-140704819D01*
X153083333Y-140704819D02*
X153273809Y-139990533D01*
X153273809Y-139990533D02*
X153464285Y-140704819D01*
X153464285Y-140704819D02*
X153702381Y-139704819D01*
X154035714Y-139800057D02*
X154083333Y-139752438D01*
X154083333Y-139752438D02*
X154178571Y-139704819D01*
X154178571Y-139704819D02*
X154416666Y-139704819D01*
X154416666Y-139704819D02*
X154511904Y-139752438D01*
X154511904Y-139752438D02*
X154559523Y-139800057D01*
X154559523Y-139800057D02*
X154607142Y-139895295D01*
X154607142Y-139895295D02*
X154607142Y-139990533D01*
X154607142Y-139990533D02*
X154559523Y-140133390D01*
X154559523Y-140133390D02*
X153988095Y-140704819D01*
X153988095Y-140704819D02*
X154607142Y-140704819D01*
X155178571Y-140133390D02*
X155083333Y-140085771D01*
X155083333Y-140085771D02*
X155035714Y-140038152D01*
X155035714Y-140038152D02*
X154988095Y-139942914D01*
X154988095Y-139942914D02*
X154988095Y-139895295D01*
X154988095Y-139895295D02*
X155035714Y-139800057D01*
X155035714Y-139800057D02*
X155083333Y-139752438D01*
X155083333Y-139752438D02*
X155178571Y-139704819D01*
X155178571Y-139704819D02*
X155369047Y-139704819D01*
X155369047Y-139704819D02*
X155464285Y-139752438D01*
X155464285Y-139752438D02*
X155511904Y-139800057D01*
X155511904Y-139800057D02*
X155559523Y-139895295D01*
X155559523Y-139895295D02*
X155559523Y-139942914D01*
X155559523Y-139942914D02*
X155511904Y-140038152D01*
X155511904Y-140038152D02*
X155464285Y-140085771D01*
X155464285Y-140085771D02*
X155369047Y-140133390D01*
X155369047Y-140133390D02*
X155178571Y-140133390D01*
X155178571Y-140133390D02*
X155083333Y-140181009D01*
X155083333Y-140181009D02*
X155035714Y-140228628D01*
X155035714Y-140228628D02*
X154988095Y-140323866D01*
X154988095Y-140323866D02*
X154988095Y-140514342D01*
X154988095Y-140514342D02*
X155035714Y-140609580D01*
X155035714Y-140609580D02*
X155083333Y-140657200D01*
X155083333Y-140657200D02*
X155178571Y-140704819D01*
X155178571Y-140704819D02*
X155369047Y-140704819D01*
X155369047Y-140704819D02*
X155464285Y-140657200D01*
X155464285Y-140657200D02*
X155511904Y-140609580D01*
X155511904Y-140609580D02*
X155559523Y-140514342D01*
X155559523Y-140514342D02*
X155559523Y-140323866D01*
X155559523Y-140323866D02*
X155511904Y-140228628D01*
X155511904Y-140228628D02*
X155464285Y-140181009D01*
X155464285Y-140181009D02*
X155369047Y-140133390D01*
X133940476Y-123657200D02*
X134083333Y-123704819D01*
X134083333Y-123704819D02*
X134321428Y-123704819D01*
X134321428Y-123704819D02*
X134416666Y-123657200D01*
X134416666Y-123657200D02*
X134464285Y-123609580D01*
X134464285Y-123609580D02*
X134511904Y-123514342D01*
X134511904Y-123514342D02*
X134511904Y-123419104D01*
X134511904Y-123419104D02*
X134464285Y-123323866D01*
X134464285Y-123323866D02*
X134416666Y-123276247D01*
X134416666Y-123276247D02*
X134321428Y-123228628D01*
X134321428Y-123228628D02*
X134130952Y-123181009D01*
X134130952Y-123181009D02*
X134035714Y-123133390D01*
X134035714Y-123133390D02*
X133988095Y-123085771D01*
X133988095Y-123085771D02*
X133940476Y-122990533D01*
X133940476Y-122990533D02*
X133940476Y-122895295D01*
X133940476Y-122895295D02*
X133988095Y-122800057D01*
X133988095Y-122800057D02*
X134035714Y-122752438D01*
X134035714Y-122752438D02*
X134130952Y-122704819D01*
X134130952Y-122704819D02*
X134369047Y-122704819D01*
X134369047Y-122704819D02*
X134511904Y-122752438D01*
X134845238Y-122704819D02*
X135083333Y-123704819D01*
X135083333Y-123704819D02*
X135273809Y-122990533D01*
X135273809Y-122990533D02*
X135464285Y-123704819D01*
X135464285Y-123704819D02*
X135702381Y-122704819D01*
X136035714Y-122800057D02*
X136083333Y-122752438D01*
X136083333Y-122752438D02*
X136178571Y-122704819D01*
X136178571Y-122704819D02*
X136416666Y-122704819D01*
X136416666Y-122704819D02*
X136511904Y-122752438D01*
X136511904Y-122752438D02*
X136559523Y-122800057D01*
X136559523Y-122800057D02*
X136607142Y-122895295D01*
X136607142Y-122895295D02*
X136607142Y-122990533D01*
X136607142Y-122990533D02*
X136559523Y-123133390D01*
X136559523Y-123133390D02*
X135988095Y-123704819D01*
X135988095Y-123704819D02*
X136607142Y-123704819D01*
X137559523Y-123704819D02*
X136988095Y-123704819D01*
X137273809Y-123704819D02*
X137273809Y-122704819D01*
X137273809Y-122704819D02*
X137178571Y-122847676D01*
X137178571Y-122847676D02*
X137083333Y-122942914D01*
X137083333Y-122942914D02*
X136988095Y-122990533D01*
X169940476Y-123657200D02*
X170083333Y-123704819D01*
X170083333Y-123704819D02*
X170321428Y-123704819D01*
X170321428Y-123704819D02*
X170416666Y-123657200D01*
X170416666Y-123657200D02*
X170464285Y-123609580D01*
X170464285Y-123609580D02*
X170511904Y-123514342D01*
X170511904Y-123514342D02*
X170511904Y-123419104D01*
X170511904Y-123419104D02*
X170464285Y-123323866D01*
X170464285Y-123323866D02*
X170416666Y-123276247D01*
X170416666Y-123276247D02*
X170321428Y-123228628D01*
X170321428Y-123228628D02*
X170130952Y-123181009D01*
X170130952Y-123181009D02*
X170035714Y-123133390D01*
X170035714Y-123133390D02*
X169988095Y-123085771D01*
X169988095Y-123085771D02*
X169940476Y-122990533D01*
X169940476Y-122990533D02*
X169940476Y-122895295D01*
X169940476Y-122895295D02*
X169988095Y-122800057D01*
X169988095Y-122800057D02*
X170035714Y-122752438D01*
X170035714Y-122752438D02*
X170130952Y-122704819D01*
X170130952Y-122704819D02*
X170369047Y-122704819D01*
X170369047Y-122704819D02*
X170511904Y-122752438D01*
X170845238Y-122704819D02*
X171083333Y-123704819D01*
X171083333Y-123704819D02*
X171273809Y-122990533D01*
X171273809Y-122990533D02*
X171464285Y-123704819D01*
X171464285Y-123704819D02*
X171702381Y-122704819D01*
X172035714Y-122800057D02*
X172083333Y-122752438D01*
X172083333Y-122752438D02*
X172178571Y-122704819D01*
X172178571Y-122704819D02*
X172416666Y-122704819D01*
X172416666Y-122704819D02*
X172511904Y-122752438D01*
X172511904Y-122752438D02*
X172559523Y-122800057D01*
X172559523Y-122800057D02*
X172607142Y-122895295D01*
X172607142Y-122895295D02*
X172607142Y-122990533D01*
X172607142Y-122990533D02*
X172559523Y-123133390D01*
X172559523Y-123133390D02*
X171988095Y-123704819D01*
X171988095Y-123704819D02*
X172607142Y-123704819D01*
X172940476Y-122704819D02*
X173559523Y-122704819D01*
X173559523Y-122704819D02*
X173226190Y-123085771D01*
X173226190Y-123085771D02*
X173369047Y-123085771D01*
X173369047Y-123085771D02*
X173464285Y-123133390D01*
X173464285Y-123133390D02*
X173511904Y-123181009D01*
X173511904Y-123181009D02*
X173559523Y-123276247D01*
X173559523Y-123276247D02*
X173559523Y-123514342D01*
X173559523Y-123514342D02*
X173511904Y-123609580D01*
X173511904Y-123609580D02*
X173464285Y-123657200D01*
X173464285Y-123657200D02*
X173369047Y-123704819D01*
X173369047Y-123704819D02*
X173083333Y-123704819D01*
X173083333Y-123704819D02*
X172988095Y-123657200D01*
X172988095Y-123657200D02*
X172940476Y-123609580D01*
X133940476Y-140657200D02*
X134083333Y-140704819D01*
X134083333Y-140704819D02*
X134321428Y-140704819D01*
X134321428Y-140704819D02*
X134416666Y-140657200D01*
X134416666Y-140657200D02*
X134464285Y-140609580D01*
X134464285Y-140609580D02*
X134511904Y-140514342D01*
X134511904Y-140514342D02*
X134511904Y-140419104D01*
X134511904Y-140419104D02*
X134464285Y-140323866D01*
X134464285Y-140323866D02*
X134416666Y-140276247D01*
X134416666Y-140276247D02*
X134321428Y-140228628D01*
X134321428Y-140228628D02*
X134130952Y-140181009D01*
X134130952Y-140181009D02*
X134035714Y-140133390D01*
X134035714Y-140133390D02*
X133988095Y-140085771D01*
X133988095Y-140085771D02*
X133940476Y-139990533D01*
X133940476Y-139990533D02*
X133940476Y-139895295D01*
X133940476Y-139895295D02*
X133988095Y-139800057D01*
X133988095Y-139800057D02*
X134035714Y-139752438D01*
X134035714Y-139752438D02*
X134130952Y-139704819D01*
X134130952Y-139704819D02*
X134369047Y-139704819D01*
X134369047Y-139704819D02*
X134511904Y-139752438D01*
X134845238Y-139704819D02*
X135083333Y-140704819D01*
X135083333Y-140704819D02*
X135273809Y-139990533D01*
X135273809Y-139990533D02*
X135464285Y-140704819D01*
X135464285Y-140704819D02*
X135702381Y-139704819D01*
X136035714Y-139800057D02*
X136083333Y-139752438D01*
X136083333Y-139752438D02*
X136178571Y-139704819D01*
X136178571Y-139704819D02*
X136416666Y-139704819D01*
X136416666Y-139704819D02*
X136511904Y-139752438D01*
X136511904Y-139752438D02*
X136559523Y-139800057D01*
X136559523Y-139800057D02*
X136607142Y-139895295D01*
X136607142Y-139895295D02*
X136607142Y-139990533D01*
X136607142Y-139990533D02*
X136559523Y-140133390D01*
X136559523Y-140133390D02*
X135988095Y-140704819D01*
X135988095Y-140704819D02*
X136607142Y-140704819D01*
X136940476Y-139704819D02*
X137607142Y-139704819D01*
X137607142Y-139704819D02*
X137178571Y-140704819D01*
X134416667Y-72657200D02*
X134559524Y-72704819D01*
X134559524Y-72704819D02*
X134797619Y-72704819D01*
X134797619Y-72704819D02*
X134892857Y-72657200D01*
X134892857Y-72657200D02*
X134940476Y-72609580D01*
X134940476Y-72609580D02*
X134988095Y-72514342D01*
X134988095Y-72514342D02*
X134988095Y-72419104D01*
X134988095Y-72419104D02*
X134940476Y-72323866D01*
X134940476Y-72323866D02*
X134892857Y-72276247D01*
X134892857Y-72276247D02*
X134797619Y-72228628D01*
X134797619Y-72228628D02*
X134607143Y-72181009D01*
X134607143Y-72181009D02*
X134511905Y-72133390D01*
X134511905Y-72133390D02*
X134464286Y-72085771D01*
X134464286Y-72085771D02*
X134416667Y-71990533D01*
X134416667Y-71990533D02*
X134416667Y-71895295D01*
X134416667Y-71895295D02*
X134464286Y-71800057D01*
X134464286Y-71800057D02*
X134511905Y-71752438D01*
X134511905Y-71752438D02*
X134607143Y-71704819D01*
X134607143Y-71704819D02*
X134845238Y-71704819D01*
X134845238Y-71704819D02*
X134988095Y-71752438D01*
X135321429Y-71704819D02*
X135559524Y-72704819D01*
X135559524Y-72704819D02*
X135750000Y-71990533D01*
X135750000Y-71990533D02*
X135940476Y-72704819D01*
X135940476Y-72704819D02*
X136178572Y-71704819D01*
X136464286Y-71704819D02*
X137083333Y-71704819D01*
X137083333Y-71704819D02*
X136750000Y-72085771D01*
X136750000Y-72085771D02*
X136892857Y-72085771D01*
X136892857Y-72085771D02*
X136988095Y-72133390D01*
X136988095Y-72133390D02*
X137035714Y-72181009D01*
X137035714Y-72181009D02*
X137083333Y-72276247D01*
X137083333Y-72276247D02*
X137083333Y-72514342D01*
X137083333Y-72514342D02*
X137035714Y-72609580D01*
X137035714Y-72609580D02*
X136988095Y-72657200D01*
X136988095Y-72657200D02*
X136892857Y-72704819D01*
X136892857Y-72704819D02*
X136607143Y-72704819D01*
X136607143Y-72704819D02*
X136511905Y-72657200D01*
X136511905Y-72657200D02*
X136464286Y-72609580D01*
X152416667Y-72657200D02*
X152559524Y-72704819D01*
X152559524Y-72704819D02*
X152797619Y-72704819D01*
X152797619Y-72704819D02*
X152892857Y-72657200D01*
X152892857Y-72657200D02*
X152940476Y-72609580D01*
X152940476Y-72609580D02*
X152988095Y-72514342D01*
X152988095Y-72514342D02*
X152988095Y-72419104D01*
X152988095Y-72419104D02*
X152940476Y-72323866D01*
X152940476Y-72323866D02*
X152892857Y-72276247D01*
X152892857Y-72276247D02*
X152797619Y-72228628D01*
X152797619Y-72228628D02*
X152607143Y-72181009D01*
X152607143Y-72181009D02*
X152511905Y-72133390D01*
X152511905Y-72133390D02*
X152464286Y-72085771D01*
X152464286Y-72085771D02*
X152416667Y-71990533D01*
X152416667Y-71990533D02*
X152416667Y-71895295D01*
X152416667Y-71895295D02*
X152464286Y-71800057D01*
X152464286Y-71800057D02*
X152511905Y-71752438D01*
X152511905Y-71752438D02*
X152607143Y-71704819D01*
X152607143Y-71704819D02*
X152845238Y-71704819D01*
X152845238Y-71704819D02*
X152988095Y-71752438D01*
X153321429Y-71704819D02*
X153559524Y-72704819D01*
X153559524Y-72704819D02*
X153750000Y-71990533D01*
X153750000Y-71990533D02*
X153940476Y-72704819D01*
X153940476Y-72704819D02*
X154178572Y-71704819D01*
X154988095Y-72038152D02*
X154988095Y-72704819D01*
X154750000Y-71657200D02*
X154511905Y-72371485D01*
X154511905Y-72371485D02*
X155130952Y-72371485D01*
X116416667Y-72657200D02*
X116559524Y-72704819D01*
X116559524Y-72704819D02*
X116797619Y-72704819D01*
X116797619Y-72704819D02*
X116892857Y-72657200D01*
X116892857Y-72657200D02*
X116940476Y-72609580D01*
X116940476Y-72609580D02*
X116988095Y-72514342D01*
X116988095Y-72514342D02*
X116988095Y-72419104D01*
X116988095Y-72419104D02*
X116940476Y-72323866D01*
X116940476Y-72323866D02*
X116892857Y-72276247D01*
X116892857Y-72276247D02*
X116797619Y-72228628D01*
X116797619Y-72228628D02*
X116607143Y-72181009D01*
X116607143Y-72181009D02*
X116511905Y-72133390D01*
X116511905Y-72133390D02*
X116464286Y-72085771D01*
X116464286Y-72085771D02*
X116416667Y-71990533D01*
X116416667Y-71990533D02*
X116416667Y-71895295D01*
X116416667Y-71895295D02*
X116464286Y-71800057D01*
X116464286Y-71800057D02*
X116511905Y-71752438D01*
X116511905Y-71752438D02*
X116607143Y-71704819D01*
X116607143Y-71704819D02*
X116845238Y-71704819D01*
X116845238Y-71704819D02*
X116988095Y-71752438D01*
X117321429Y-71704819D02*
X117559524Y-72704819D01*
X117559524Y-72704819D02*
X117750000Y-71990533D01*
X117750000Y-71990533D02*
X117940476Y-72704819D01*
X117940476Y-72704819D02*
X118178572Y-71704819D01*
X118511905Y-71800057D02*
X118559524Y-71752438D01*
X118559524Y-71752438D02*
X118654762Y-71704819D01*
X118654762Y-71704819D02*
X118892857Y-71704819D01*
X118892857Y-71704819D02*
X118988095Y-71752438D01*
X118988095Y-71752438D02*
X119035714Y-71800057D01*
X119035714Y-71800057D02*
X119083333Y-71895295D01*
X119083333Y-71895295D02*
X119083333Y-71990533D01*
X119083333Y-71990533D02*
X119035714Y-72133390D01*
X119035714Y-72133390D02*
X118464286Y-72704819D01*
X118464286Y-72704819D02*
X119083333Y-72704819D01*
X187940476Y-123657200D02*
X188083333Y-123704819D01*
X188083333Y-123704819D02*
X188321428Y-123704819D01*
X188321428Y-123704819D02*
X188416666Y-123657200D01*
X188416666Y-123657200D02*
X188464285Y-123609580D01*
X188464285Y-123609580D02*
X188511904Y-123514342D01*
X188511904Y-123514342D02*
X188511904Y-123419104D01*
X188511904Y-123419104D02*
X188464285Y-123323866D01*
X188464285Y-123323866D02*
X188416666Y-123276247D01*
X188416666Y-123276247D02*
X188321428Y-123228628D01*
X188321428Y-123228628D02*
X188130952Y-123181009D01*
X188130952Y-123181009D02*
X188035714Y-123133390D01*
X188035714Y-123133390D02*
X187988095Y-123085771D01*
X187988095Y-123085771D02*
X187940476Y-122990533D01*
X187940476Y-122990533D02*
X187940476Y-122895295D01*
X187940476Y-122895295D02*
X187988095Y-122800057D01*
X187988095Y-122800057D02*
X188035714Y-122752438D01*
X188035714Y-122752438D02*
X188130952Y-122704819D01*
X188130952Y-122704819D02*
X188369047Y-122704819D01*
X188369047Y-122704819D02*
X188511904Y-122752438D01*
X188845238Y-122704819D02*
X189083333Y-123704819D01*
X189083333Y-123704819D02*
X189273809Y-122990533D01*
X189273809Y-122990533D02*
X189464285Y-123704819D01*
X189464285Y-123704819D02*
X189702381Y-122704819D01*
X190035714Y-122800057D02*
X190083333Y-122752438D01*
X190083333Y-122752438D02*
X190178571Y-122704819D01*
X190178571Y-122704819D02*
X190416666Y-122704819D01*
X190416666Y-122704819D02*
X190511904Y-122752438D01*
X190511904Y-122752438D02*
X190559523Y-122800057D01*
X190559523Y-122800057D02*
X190607142Y-122895295D01*
X190607142Y-122895295D02*
X190607142Y-122990533D01*
X190607142Y-122990533D02*
X190559523Y-123133390D01*
X190559523Y-123133390D02*
X189988095Y-123704819D01*
X189988095Y-123704819D02*
X190607142Y-123704819D01*
X191464285Y-123038152D02*
X191464285Y-123704819D01*
X191226190Y-122657200D02*
X190988095Y-123371485D01*
X190988095Y-123371485D02*
X191607142Y-123371485D01*
X187940476Y-106657200D02*
X188083333Y-106704819D01*
X188083333Y-106704819D02*
X188321428Y-106704819D01*
X188321428Y-106704819D02*
X188416666Y-106657200D01*
X188416666Y-106657200D02*
X188464285Y-106609580D01*
X188464285Y-106609580D02*
X188511904Y-106514342D01*
X188511904Y-106514342D02*
X188511904Y-106419104D01*
X188511904Y-106419104D02*
X188464285Y-106323866D01*
X188464285Y-106323866D02*
X188416666Y-106276247D01*
X188416666Y-106276247D02*
X188321428Y-106228628D01*
X188321428Y-106228628D02*
X188130952Y-106181009D01*
X188130952Y-106181009D02*
X188035714Y-106133390D01*
X188035714Y-106133390D02*
X187988095Y-106085771D01*
X187988095Y-106085771D02*
X187940476Y-105990533D01*
X187940476Y-105990533D02*
X187940476Y-105895295D01*
X187940476Y-105895295D02*
X187988095Y-105800057D01*
X187988095Y-105800057D02*
X188035714Y-105752438D01*
X188035714Y-105752438D02*
X188130952Y-105704819D01*
X188130952Y-105704819D02*
X188369047Y-105704819D01*
X188369047Y-105704819D02*
X188511904Y-105752438D01*
X188845238Y-105704819D02*
X189083333Y-106704819D01*
X189083333Y-106704819D02*
X189273809Y-105990533D01*
X189273809Y-105990533D02*
X189464285Y-106704819D01*
X189464285Y-106704819D02*
X189702381Y-105704819D01*
X190607142Y-106704819D02*
X190035714Y-106704819D01*
X190321428Y-106704819D02*
X190321428Y-105704819D01*
X190321428Y-105704819D02*
X190226190Y-105847676D01*
X190226190Y-105847676D02*
X190130952Y-105942914D01*
X190130952Y-105942914D02*
X190035714Y-105990533D01*
X191178571Y-106133390D02*
X191083333Y-106085771D01*
X191083333Y-106085771D02*
X191035714Y-106038152D01*
X191035714Y-106038152D02*
X190988095Y-105942914D01*
X190988095Y-105942914D02*
X190988095Y-105895295D01*
X190988095Y-105895295D02*
X191035714Y-105800057D01*
X191035714Y-105800057D02*
X191083333Y-105752438D01*
X191083333Y-105752438D02*
X191178571Y-105704819D01*
X191178571Y-105704819D02*
X191369047Y-105704819D01*
X191369047Y-105704819D02*
X191464285Y-105752438D01*
X191464285Y-105752438D02*
X191511904Y-105800057D01*
X191511904Y-105800057D02*
X191559523Y-105895295D01*
X191559523Y-105895295D02*
X191559523Y-105942914D01*
X191559523Y-105942914D02*
X191511904Y-106038152D01*
X191511904Y-106038152D02*
X191464285Y-106085771D01*
X191464285Y-106085771D02*
X191369047Y-106133390D01*
X191369047Y-106133390D02*
X191178571Y-106133390D01*
X191178571Y-106133390D02*
X191083333Y-106181009D01*
X191083333Y-106181009D02*
X191035714Y-106228628D01*
X191035714Y-106228628D02*
X190988095Y-106323866D01*
X190988095Y-106323866D02*
X190988095Y-106514342D01*
X190988095Y-106514342D02*
X191035714Y-106609580D01*
X191035714Y-106609580D02*
X191083333Y-106657200D01*
X191083333Y-106657200D02*
X191178571Y-106704819D01*
X191178571Y-106704819D02*
X191369047Y-106704819D01*
X191369047Y-106704819D02*
X191464285Y-106657200D01*
X191464285Y-106657200D02*
X191511904Y-106609580D01*
X191511904Y-106609580D02*
X191559523Y-106514342D01*
X191559523Y-106514342D02*
X191559523Y-106323866D01*
X191559523Y-106323866D02*
X191511904Y-106228628D01*
X191511904Y-106228628D02*
X191464285Y-106181009D01*
X191464285Y-106181009D02*
X191369047Y-106133390D01*
X151940476Y-123657200D02*
X152083333Y-123704819D01*
X152083333Y-123704819D02*
X152321428Y-123704819D01*
X152321428Y-123704819D02*
X152416666Y-123657200D01*
X152416666Y-123657200D02*
X152464285Y-123609580D01*
X152464285Y-123609580D02*
X152511904Y-123514342D01*
X152511904Y-123514342D02*
X152511904Y-123419104D01*
X152511904Y-123419104D02*
X152464285Y-123323866D01*
X152464285Y-123323866D02*
X152416666Y-123276247D01*
X152416666Y-123276247D02*
X152321428Y-123228628D01*
X152321428Y-123228628D02*
X152130952Y-123181009D01*
X152130952Y-123181009D02*
X152035714Y-123133390D01*
X152035714Y-123133390D02*
X151988095Y-123085771D01*
X151988095Y-123085771D02*
X151940476Y-122990533D01*
X151940476Y-122990533D02*
X151940476Y-122895295D01*
X151940476Y-122895295D02*
X151988095Y-122800057D01*
X151988095Y-122800057D02*
X152035714Y-122752438D01*
X152035714Y-122752438D02*
X152130952Y-122704819D01*
X152130952Y-122704819D02*
X152369047Y-122704819D01*
X152369047Y-122704819D02*
X152511904Y-122752438D01*
X152845238Y-122704819D02*
X153083333Y-123704819D01*
X153083333Y-123704819D02*
X153273809Y-122990533D01*
X153273809Y-122990533D02*
X153464285Y-123704819D01*
X153464285Y-123704819D02*
X153702381Y-122704819D01*
X154035714Y-122800057D02*
X154083333Y-122752438D01*
X154083333Y-122752438D02*
X154178571Y-122704819D01*
X154178571Y-122704819D02*
X154416666Y-122704819D01*
X154416666Y-122704819D02*
X154511904Y-122752438D01*
X154511904Y-122752438D02*
X154559523Y-122800057D01*
X154559523Y-122800057D02*
X154607142Y-122895295D01*
X154607142Y-122895295D02*
X154607142Y-122990533D01*
X154607142Y-122990533D02*
X154559523Y-123133390D01*
X154559523Y-123133390D02*
X153988095Y-123704819D01*
X153988095Y-123704819D02*
X154607142Y-123704819D01*
X154988095Y-122800057D02*
X155035714Y-122752438D01*
X155035714Y-122752438D02*
X155130952Y-122704819D01*
X155130952Y-122704819D02*
X155369047Y-122704819D01*
X155369047Y-122704819D02*
X155464285Y-122752438D01*
X155464285Y-122752438D02*
X155511904Y-122800057D01*
X155511904Y-122800057D02*
X155559523Y-122895295D01*
X155559523Y-122895295D02*
X155559523Y-122990533D01*
X155559523Y-122990533D02*
X155511904Y-123133390D01*
X155511904Y-123133390D02*
X154940476Y-123704819D01*
X154940476Y-123704819D02*
X155559523Y-123704819D01*
X98416667Y-89657200D02*
X98559524Y-89704819D01*
X98559524Y-89704819D02*
X98797619Y-89704819D01*
X98797619Y-89704819D02*
X98892857Y-89657200D01*
X98892857Y-89657200D02*
X98940476Y-89609580D01*
X98940476Y-89609580D02*
X98988095Y-89514342D01*
X98988095Y-89514342D02*
X98988095Y-89419104D01*
X98988095Y-89419104D02*
X98940476Y-89323866D01*
X98940476Y-89323866D02*
X98892857Y-89276247D01*
X98892857Y-89276247D02*
X98797619Y-89228628D01*
X98797619Y-89228628D02*
X98607143Y-89181009D01*
X98607143Y-89181009D02*
X98511905Y-89133390D01*
X98511905Y-89133390D02*
X98464286Y-89085771D01*
X98464286Y-89085771D02*
X98416667Y-88990533D01*
X98416667Y-88990533D02*
X98416667Y-88895295D01*
X98416667Y-88895295D02*
X98464286Y-88800057D01*
X98464286Y-88800057D02*
X98511905Y-88752438D01*
X98511905Y-88752438D02*
X98607143Y-88704819D01*
X98607143Y-88704819D02*
X98845238Y-88704819D01*
X98845238Y-88704819D02*
X98988095Y-88752438D01*
X99321429Y-88704819D02*
X99559524Y-89704819D01*
X99559524Y-89704819D02*
X99750000Y-88990533D01*
X99750000Y-88990533D02*
X99940476Y-89704819D01*
X99940476Y-89704819D02*
X100178572Y-88704819D01*
X100464286Y-88704819D02*
X101130952Y-88704819D01*
X101130952Y-88704819D02*
X100702381Y-89704819D01*
X151940476Y-106657200D02*
X152083333Y-106704819D01*
X152083333Y-106704819D02*
X152321428Y-106704819D01*
X152321428Y-106704819D02*
X152416666Y-106657200D01*
X152416666Y-106657200D02*
X152464285Y-106609580D01*
X152464285Y-106609580D02*
X152511904Y-106514342D01*
X152511904Y-106514342D02*
X152511904Y-106419104D01*
X152511904Y-106419104D02*
X152464285Y-106323866D01*
X152464285Y-106323866D02*
X152416666Y-106276247D01*
X152416666Y-106276247D02*
X152321428Y-106228628D01*
X152321428Y-106228628D02*
X152130952Y-106181009D01*
X152130952Y-106181009D02*
X152035714Y-106133390D01*
X152035714Y-106133390D02*
X151988095Y-106085771D01*
X151988095Y-106085771D02*
X151940476Y-105990533D01*
X151940476Y-105990533D02*
X151940476Y-105895295D01*
X151940476Y-105895295D02*
X151988095Y-105800057D01*
X151988095Y-105800057D02*
X152035714Y-105752438D01*
X152035714Y-105752438D02*
X152130952Y-105704819D01*
X152130952Y-105704819D02*
X152369047Y-105704819D01*
X152369047Y-105704819D02*
X152511904Y-105752438D01*
X152845238Y-105704819D02*
X153083333Y-106704819D01*
X153083333Y-106704819D02*
X153273809Y-105990533D01*
X153273809Y-105990533D02*
X153464285Y-106704819D01*
X153464285Y-106704819D02*
X153702381Y-105704819D01*
X154607142Y-106704819D02*
X154035714Y-106704819D01*
X154321428Y-106704819D02*
X154321428Y-105704819D01*
X154321428Y-105704819D02*
X154226190Y-105847676D01*
X154226190Y-105847676D02*
X154130952Y-105942914D01*
X154130952Y-105942914D02*
X154035714Y-105990533D01*
X155464285Y-105704819D02*
X155273809Y-105704819D01*
X155273809Y-105704819D02*
X155178571Y-105752438D01*
X155178571Y-105752438D02*
X155130952Y-105800057D01*
X155130952Y-105800057D02*
X155035714Y-105942914D01*
X155035714Y-105942914D02*
X154988095Y-106133390D01*
X154988095Y-106133390D02*
X154988095Y-106514342D01*
X154988095Y-106514342D02*
X155035714Y-106609580D01*
X155035714Y-106609580D02*
X155083333Y-106657200D01*
X155083333Y-106657200D02*
X155178571Y-106704819D01*
X155178571Y-106704819D02*
X155369047Y-106704819D01*
X155369047Y-106704819D02*
X155464285Y-106657200D01*
X155464285Y-106657200D02*
X155511904Y-106609580D01*
X155511904Y-106609580D02*
X155559523Y-106514342D01*
X155559523Y-106514342D02*
X155559523Y-106276247D01*
X155559523Y-106276247D02*
X155511904Y-106181009D01*
X155511904Y-106181009D02*
X155464285Y-106133390D01*
X155464285Y-106133390D02*
X155369047Y-106085771D01*
X155369047Y-106085771D02*
X155178571Y-106085771D01*
X155178571Y-106085771D02*
X155083333Y-106133390D01*
X155083333Y-106133390D02*
X155035714Y-106181009D01*
X155035714Y-106181009D02*
X154988095Y-106276247D01*
X116416667Y-89657200D02*
X116559524Y-89704819D01*
X116559524Y-89704819D02*
X116797619Y-89704819D01*
X116797619Y-89704819D02*
X116892857Y-89657200D01*
X116892857Y-89657200D02*
X116940476Y-89609580D01*
X116940476Y-89609580D02*
X116988095Y-89514342D01*
X116988095Y-89514342D02*
X116988095Y-89419104D01*
X116988095Y-89419104D02*
X116940476Y-89323866D01*
X116940476Y-89323866D02*
X116892857Y-89276247D01*
X116892857Y-89276247D02*
X116797619Y-89228628D01*
X116797619Y-89228628D02*
X116607143Y-89181009D01*
X116607143Y-89181009D02*
X116511905Y-89133390D01*
X116511905Y-89133390D02*
X116464286Y-89085771D01*
X116464286Y-89085771D02*
X116416667Y-88990533D01*
X116416667Y-88990533D02*
X116416667Y-88895295D01*
X116416667Y-88895295D02*
X116464286Y-88800057D01*
X116464286Y-88800057D02*
X116511905Y-88752438D01*
X116511905Y-88752438D02*
X116607143Y-88704819D01*
X116607143Y-88704819D02*
X116845238Y-88704819D01*
X116845238Y-88704819D02*
X116988095Y-88752438D01*
X117321429Y-88704819D02*
X117559524Y-89704819D01*
X117559524Y-89704819D02*
X117750000Y-88990533D01*
X117750000Y-88990533D02*
X117940476Y-89704819D01*
X117940476Y-89704819D02*
X118178572Y-88704819D01*
X118702381Y-89133390D02*
X118607143Y-89085771D01*
X118607143Y-89085771D02*
X118559524Y-89038152D01*
X118559524Y-89038152D02*
X118511905Y-88942914D01*
X118511905Y-88942914D02*
X118511905Y-88895295D01*
X118511905Y-88895295D02*
X118559524Y-88800057D01*
X118559524Y-88800057D02*
X118607143Y-88752438D01*
X118607143Y-88752438D02*
X118702381Y-88704819D01*
X118702381Y-88704819D02*
X118892857Y-88704819D01*
X118892857Y-88704819D02*
X118988095Y-88752438D01*
X118988095Y-88752438D02*
X119035714Y-88800057D01*
X119035714Y-88800057D02*
X119083333Y-88895295D01*
X119083333Y-88895295D02*
X119083333Y-88942914D01*
X119083333Y-88942914D02*
X119035714Y-89038152D01*
X119035714Y-89038152D02*
X118988095Y-89085771D01*
X118988095Y-89085771D02*
X118892857Y-89133390D01*
X118892857Y-89133390D02*
X118702381Y-89133390D01*
X118702381Y-89133390D02*
X118607143Y-89181009D01*
X118607143Y-89181009D02*
X118559524Y-89228628D01*
X118559524Y-89228628D02*
X118511905Y-89323866D01*
X118511905Y-89323866D02*
X118511905Y-89514342D01*
X118511905Y-89514342D02*
X118559524Y-89609580D01*
X118559524Y-89609580D02*
X118607143Y-89657200D01*
X118607143Y-89657200D02*
X118702381Y-89704819D01*
X118702381Y-89704819D02*
X118892857Y-89704819D01*
X118892857Y-89704819D02*
X118988095Y-89657200D01*
X118988095Y-89657200D02*
X119035714Y-89609580D01*
X119035714Y-89609580D02*
X119083333Y-89514342D01*
X119083333Y-89514342D02*
X119083333Y-89323866D01*
X119083333Y-89323866D02*
X119035714Y-89228628D01*
X119035714Y-89228628D02*
X118988095Y-89181009D01*
X118988095Y-89181009D02*
X118892857Y-89133390D01*
X133940476Y-106657200D02*
X134083333Y-106704819D01*
X134083333Y-106704819D02*
X134321428Y-106704819D01*
X134321428Y-106704819D02*
X134416666Y-106657200D01*
X134416666Y-106657200D02*
X134464285Y-106609580D01*
X134464285Y-106609580D02*
X134511904Y-106514342D01*
X134511904Y-106514342D02*
X134511904Y-106419104D01*
X134511904Y-106419104D02*
X134464285Y-106323866D01*
X134464285Y-106323866D02*
X134416666Y-106276247D01*
X134416666Y-106276247D02*
X134321428Y-106228628D01*
X134321428Y-106228628D02*
X134130952Y-106181009D01*
X134130952Y-106181009D02*
X134035714Y-106133390D01*
X134035714Y-106133390D02*
X133988095Y-106085771D01*
X133988095Y-106085771D02*
X133940476Y-105990533D01*
X133940476Y-105990533D02*
X133940476Y-105895295D01*
X133940476Y-105895295D02*
X133988095Y-105800057D01*
X133988095Y-105800057D02*
X134035714Y-105752438D01*
X134035714Y-105752438D02*
X134130952Y-105704819D01*
X134130952Y-105704819D02*
X134369047Y-105704819D01*
X134369047Y-105704819D02*
X134511904Y-105752438D01*
X134845238Y-105704819D02*
X135083333Y-106704819D01*
X135083333Y-106704819D02*
X135273809Y-105990533D01*
X135273809Y-105990533D02*
X135464285Y-106704819D01*
X135464285Y-106704819D02*
X135702381Y-105704819D01*
X136607142Y-106704819D02*
X136035714Y-106704819D01*
X136321428Y-106704819D02*
X136321428Y-105704819D01*
X136321428Y-105704819D02*
X136226190Y-105847676D01*
X136226190Y-105847676D02*
X136130952Y-105942914D01*
X136130952Y-105942914D02*
X136035714Y-105990533D01*
X137511904Y-105704819D02*
X137035714Y-105704819D01*
X137035714Y-105704819D02*
X136988095Y-106181009D01*
X136988095Y-106181009D02*
X137035714Y-106133390D01*
X137035714Y-106133390D02*
X137130952Y-106085771D01*
X137130952Y-106085771D02*
X137369047Y-106085771D01*
X137369047Y-106085771D02*
X137464285Y-106133390D01*
X137464285Y-106133390D02*
X137511904Y-106181009D01*
X137511904Y-106181009D02*
X137559523Y-106276247D01*
X137559523Y-106276247D02*
X137559523Y-106514342D01*
X137559523Y-106514342D02*
X137511904Y-106609580D01*
X137511904Y-106609580D02*
X137464285Y-106657200D01*
X137464285Y-106657200D02*
X137369047Y-106704819D01*
X137369047Y-106704819D02*
X137130952Y-106704819D01*
X137130952Y-106704819D02*
X137035714Y-106657200D01*
X137035714Y-106657200D02*
X136988095Y-106609580D01*
X187940476Y-140657200D02*
X188083333Y-140704819D01*
X188083333Y-140704819D02*
X188321428Y-140704819D01*
X188321428Y-140704819D02*
X188416666Y-140657200D01*
X188416666Y-140657200D02*
X188464285Y-140609580D01*
X188464285Y-140609580D02*
X188511904Y-140514342D01*
X188511904Y-140514342D02*
X188511904Y-140419104D01*
X188511904Y-140419104D02*
X188464285Y-140323866D01*
X188464285Y-140323866D02*
X188416666Y-140276247D01*
X188416666Y-140276247D02*
X188321428Y-140228628D01*
X188321428Y-140228628D02*
X188130952Y-140181009D01*
X188130952Y-140181009D02*
X188035714Y-140133390D01*
X188035714Y-140133390D02*
X187988095Y-140085771D01*
X187988095Y-140085771D02*
X187940476Y-139990533D01*
X187940476Y-139990533D02*
X187940476Y-139895295D01*
X187940476Y-139895295D02*
X187988095Y-139800057D01*
X187988095Y-139800057D02*
X188035714Y-139752438D01*
X188035714Y-139752438D02*
X188130952Y-139704819D01*
X188130952Y-139704819D02*
X188369047Y-139704819D01*
X188369047Y-139704819D02*
X188511904Y-139752438D01*
X188845238Y-139704819D02*
X189083333Y-140704819D01*
X189083333Y-140704819D02*
X189273809Y-139990533D01*
X189273809Y-139990533D02*
X189464285Y-140704819D01*
X189464285Y-140704819D02*
X189702381Y-139704819D01*
X189988095Y-139704819D02*
X190607142Y-139704819D01*
X190607142Y-139704819D02*
X190273809Y-140085771D01*
X190273809Y-140085771D02*
X190416666Y-140085771D01*
X190416666Y-140085771D02*
X190511904Y-140133390D01*
X190511904Y-140133390D02*
X190559523Y-140181009D01*
X190559523Y-140181009D02*
X190607142Y-140276247D01*
X190607142Y-140276247D02*
X190607142Y-140514342D01*
X190607142Y-140514342D02*
X190559523Y-140609580D01*
X190559523Y-140609580D02*
X190511904Y-140657200D01*
X190511904Y-140657200D02*
X190416666Y-140704819D01*
X190416666Y-140704819D02*
X190130952Y-140704819D01*
X190130952Y-140704819D02*
X190035714Y-140657200D01*
X190035714Y-140657200D02*
X189988095Y-140609580D01*
X191226190Y-139704819D02*
X191321428Y-139704819D01*
X191321428Y-139704819D02*
X191416666Y-139752438D01*
X191416666Y-139752438D02*
X191464285Y-139800057D01*
X191464285Y-139800057D02*
X191511904Y-139895295D01*
X191511904Y-139895295D02*
X191559523Y-140085771D01*
X191559523Y-140085771D02*
X191559523Y-140323866D01*
X191559523Y-140323866D02*
X191511904Y-140514342D01*
X191511904Y-140514342D02*
X191464285Y-140609580D01*
X191464285Y-140609580D02*
X191416666Y-140657200D01*
X191416666Y-140657200D02*
X191321428Y-140704819D01*
X191321428Y-140704819D02*
X191226190Y-140704819D01*
X191226190Y-140704819D02*
X191130952Y-140657200D01*
X191130952Y-140657200D02*
X191083333Y-140609580D01*
X191083333Y-140609580D02*
X191035714Y-140514342D01*
X191035714Y-140514342D02*
X190988095Y-140323866D01*
X190988095Y-140323866D02*
X190988095Y-140085771D01*
X190988095Y-140085771D02*
X191035714Y-139895295D01*
X191035714Y-139895295D02*
X191083333Y-139800057D01*
X191083333Y-139800057D02*
X191130952Y-139752438D01*
X191130952Y-139752438D02*
X191226190Y-139704819D01*
X97940476Y-140657200D02*
X98083333Y-140704819D01*
X98083333Y-140704819D02*
X98321428Y-140704819D01*
X98321428Y-140704819D02*
X98416666Y-140657200D01*
X98416666Y-140657200D02*
X98464285Y-140609580D01*
X98464285Y-140609580D02*
X98511904Y-140514342D01*
X98511904Y-140514342D02*
X98511904Y-140419104D01*
X98511904Y-140419104D02*
X98464285Y-140323866D01*
X98464285Y-140323866D02*
X98416666Y-140276247D01*
X98416666Y-140276247D02*
X98321428Y-140228628D01*
X98321428Y-140228628D02*
X98130952Y-140181009D01*
X98130952Y-140181009D02*
X98035714Y-140133390D01*
X98035714Y-140133390D02*
X97988095Y-140085771D01*
X97988095Y-140085771D02*
X97940476Y-139990533D01*
X97940476Y-139990533D02*
X97940476Y-139895295D01*
X97940476Y-139895295D02*
X97988095Y-139800057D01*
X97988095Y-139800057D02*
X98035714Y-139752438D01*
X98035714Y-139752438D02*
X98130952Y-139704819D01*
X98130952Y-139704819D02*
X98369047Y-139704819D01*
X98369047Y-139704819D02*
X98511904Y-139752438D01*
X98845238Y-139704819D02*
X99083333Y-140704819D01*
X99083333Y-140704819D02*
X99273809Y-139990533D01*
X99273809Y-139990533D02*
X99464285Y-140704819D01*
X99464285Y-140704819D02*
X99702381Y-139704819D01*
X100035714Y-139800057D02*
X100083333Y-139752438D01*
X100083333Y-139752438D02*
X100178571Y-139704819D01*
X100178571Y-139704819D02*
X100416666Y-139704819D01*
X100416666Y-139704819D02*
X100511904Y-139752438D01*
X100511904Y-139752438D02*
X100559523Y-139800057D01*
X100559523Y-139800057D02*
X100607142Y-139895295D01*
X100607142Y-139895295D02*
X100607142Y-139990533D01*
X100607142Y-139990533D02*
X100559523Y-140133390D01*
X100559523Y-140133390D02*
X99988095Y-140704819D01*
X99988095Y-140704819D02*
X100607142Y-140704819D01*
X101511904Y-139704819D02*
X101035714Y-139704819D01*
X101035714Y-139704819D02*
X100988095Y-140181009D01*
X100988095Y-140181009D02*
X101035714Y-140133390D01*
X101035714Y-140133390D02*
X101130952Y-140085771D01*
X101130952Y-140085771D02*
X101369047Y-140085771D01*
X101369047Y-140085771D02*
X101464285Y-140133390D01*
X101464285Y-140133390D02*
X101511904Y-140181009D01*
X101511904Y-140181009D02*
X101559523Y-140276247D01*
X101559523Y-140276247D02*
X101559523Y-140514342D01*
X101559523Y-140514342D02*
X101511904Y-140609580D01*
X101511904Y-140609580D02*
X101464285Y-140657200D01*
X101464285Y-140657200D02*
X101369047Y-140704819D01*
X101369047Y-140704819D02*
X101130952Y-140704819D01*
X101130952Y-140704819D02*
X101035714Y-140657200D01*
X101035714Y-140657200D02*
X100988095Y-140609580D01*
X115940476Y-140657200D02*
X116083333Y-140704819D01*
X116083333Y-140704819D02*
X116321428Y-140704819D01*
X116321428Y-140704819D02*
X116416666Y-140657200D01*
X116416666Y-140657200D02*
X116464285Y-140609580D01*
X116464285Y-140609580D02*
X116511904Y-140514342D01*
X116511904Y-140514342D02*
X116511904Y-140419104D01*
X116511904Y-140419104D02*
X116464285Y-140323866D01*
X116464285Y-140323866D02*
X116416666Y-140276247D01*
X116416666Y-140276247D02*
X116321428Y-140228628D01*
X116321428Y-140228628D02*
X116130952Y-140181009D01*
X116130952Y-140181009D02*
X116035714Y-140133390D01*
X116035714Y-140133390D02*
X115988095Y-140085771D01*
X115988095Y-140085771D02*
X115940476Y-139990533D01*
X115940476Y-139990533D02*
X115940476Y-139895295D01*
X115940476Y-139895295D02*
X115988095Y-139800057D01*
X115988095Y-139800057D02*
X116035714Y-139752438D01*
X116035714Y-139752438D02*
X116130952Y-139704819D01*
X116130952Y-139704819D02*
X116369047Y-139704819D01*
X116369047Y-139704819D02*
X116511904Y-139752438D01*
X116845238Y-139704819D02*
X117083333Y-140704819D01*
X117083333Y-140704819D02*
X117273809Y-139990533D01*
X117273809Y-139990533D02*
X117464285Y-140704819D01*
X117464285Y-140704819D02*
X117702381Y-139704819D01*
X118035714Y-139800057D02*
X118083333Y-139752438D01*
X118083333Y-139752438D02*
X118178571Y-139704819D01*
X118178571Y-139704819D02*
X118416666Y-139704819D01*
X118416666Y-139704819D02*
X118511904Y-139752438D01*
X118511904Y-139752438D02*
X118559523Y-139800057D01*
X118559523Y-139800057D02*
X118607142Y-139895295D01*
X118607142Y-139895295D02*
X118607142Y-139990533D01*
X118607142Y-139990533D02*
X118559523Y-140133390D01*
X118559523Y-140133390D02*
X117988095Y-140704819D01*
X117988095Y-140704819D02*
X118607142Y-140704819D01*
X119464285Y-139704819D02*
X119273809Y-139704819D01*
X119273809Y-139704819D02*
X119178571Y-139752438D01*
X119178571Y-139752438D02*
X119130952Y-139800057D01*
X119130952Y-139800057D02*
X119035714Y-139942914D01*
X119035714Y-139942914D02*
X118988095Y-140133390D01*
X118988095Y-140133390D02*
X118988095Y-140514342D01*
X118988095Y-140514342D02*
X119035714Y-140609580D01*
X119035714Y-140609580D02*
X119083333Y-140657200D01*
X119083333Y-140657200D02*
X119178571Y-140704819D01*
X119178571Y-140704819D02*
X119369047Y-140704819D01*
X119369047Y-140704819D02*
X119464285Y-140657200D01*
X119464285Y-140657200D02*
X119511904Y-140609580D01*
X119511904Y-140609580D02*
X119559523Y-140514342D01*
X119559523Y-140514342D02*
X119559523Y-140276247D01*
X119559523Y-140276247D02*
X119511904Y-140181009D01*
X119511904Y-140181009D02*
X119464285Y-140133390D01*
X119464285Y-140133390D02*
X119369047Y-140085771D01*
X119369047Y-140085771D02*
X119178571Y-140085771D01*
X119178571Y-140085771D02*
X119083333Y-140133390D01*
X119083333Y-140133390D02*
X119035714Y-140181009D01*
X119035714Y-140181009D02*
X118988095Y-140276247D01*
X97940476Y-106657200D02*
X98083333Y-106704819D01*
X98083333Y-106704819D02*
X98321428Y-106704819D01*
X98321428Y-106704819D02*
X98416666Y-106657200D01*
X98416666Y-106657200D02*
X98464285Y-106609580D01*
X98464285Y-106609580D02*
X98511904Y-106514342D01*
X98511904Y-106514342D02*
X98511904Y-106419104D01*
X98511904Y-106419104D02*
X98464285Y-106323866D01*
X98464285Y-106323866D02*
X98416666Y-106276247D01*
X98416666Y-106276247D02*
X98321428Y-106228628D01*
X98321428Y-106228628D02*
X98130952Y-106181009D01*
X98130952Y-106181009D02*
X98035714Y-106133390D01*
X98035714Y-106133390D02*
X97988095Y-106085771D01*
X97988095Y-106085771D02*
X97940476Y-105990533D01*
X97940476Y-105990533D02*
X97940476Y-105895295D01*
X97940476Y-105895295D02*
X97988095Y-105800057D01*
X97988095Y-105800057D02*
X98035714Y-105752438D01*
X98035714Y-105752438D02*
X98130952Y-105704819D01*
X98130952Y-105704819D02*
X98369047Y-105704819D01*
X98369047Y-105704819D02*
X98511904Y-105752438D01*
X98845238Y-105704819D02*
X99083333Y-106704819D01*
X99083333Y-106704819D02*
X99273809Y-105990533D01*
X99273809Y-105990533D02*
X99464285Y-106704819D01*
X99464285Y-106704819D02*
X99702381Y-105704819D01*
X100607142Y-106704819D02*
X100035714Y-106704819D01*
X100321428Y-106704819D02*
X100321428Y-105704819D01*
X100321428Y-105704819D02*
X100226190Y-105847676D01*
X100226190Y-105847676D02*
X100130952Y-105942914D01*
X100130952Y-105942914D02*
X100035714Y-105990533D01*
X100940476Y-105704819D02*
X101559523Y-105704819D01*
X101559523Y-105704819D02*
X101226190Y-106085771D01*
X101226190Y-106085771D02*
X101369047Y-106085771D01*
X101369047Y-106085771D02*
X101464285Y-106133390D01*
X101464285Y-106133390D02*
X101511904Y-106181009D01*
X101511904Y-106181009D02*
X101559523Y-106276247D01*
X101559523Y-106276247D02*
X101559523Y-106514342D01*
X101559523Y-106514342D02*
X101511904Y-106609580D01*
X101511904Y-106609580D02*
X101464285Y-106657200D01*
X101464285Y-106657200D02*
X101369047Y-106704819D01*
X101369047Y-106704819D02*
X101083333Y-106704819D01*
X101083333Y-106704819D02*
X100988095Y-106657200D01*
X100988095Y-106657200D02*
X100940476Y-106609580D01*
X97940476Y-123657200D02*
X98083333Y-123704819D01*
X98083333Y-123704819D02*
X98321428Y-123704819D01*
X98321428Y-123704819D02*
X98416666Y-123657200D01*
X98416666Y-123657200D02*
X98464285Y-123609580D01*
X98464285Y-123609580D02*
X98511904Y-123514342D01*
X98511904Y-123514342D02*
X98511904Y-123419104D01*
X98511904Y-123419104D02*
X98464285Y-123323866D01*
X98464285Y-123323866D02*
X98416666Y-123276247D01*
X98416666Y-123276247D02*
X98321428Y-123228628D01*
X98321428Y-123228628D02*
X98130952Y-123181009D01*
X98130952Y-123181009D02*
X98035714Y-123133390D01*
X98035714Y-123133390D02*
X97988095Y-123085771D01*
X97988095Y-123085771D02*
X97940476Y-122990533D01*
X97940476Y-122990533D02*
X97940476Y-122895295D01*
X97940476Y-122895295D02*
X97988095Y-122800057D01*
X97988095Y-122800057D02*
X98035714Y-122752438D01*
X98035714Y-122752438D02*
X98130952Y-122704819D01*
X98130952Y-122704819D02*
X98369047Y-122704819D01*
X98369047Y-122704819D02*
X98511904Y-122752438D01*
X98845238Y-122704819D02*
X99083333Y-123704819D01*
X99083333Y-123704819D02*
X99273809Y-122990533D01*
X99273809Y-122990533D02*
X99464285Y-123704819D01*
X99464285Y-123704819D02*
X99702381Y-122704819D01*
X100607142Y-123704819D02*
X100035714Y-123704819D01*
X100321428Y-123704819D02*
X100321428Y-122704819D01*
X100321428Y-122704819D02*
X100226190Y-122847676D01*
X100226190Y-122847676D02*
X100130952Y-122942914D01*
X100130952Y-122942914D02*
X100035714Y-122990533D01*
X101083333Y-123704819D02*
X101273809Y-123704819D01*
X101273809Y-123704819D02*
X101369047Y-123657200D01*
X101369047Y-123657200D02*
X101416666Y-123609580D01*
X101416666Y-123609580D02*
X101511904Y-123466723D01*
X101511904Y-123466723D02*
X101559523Y-123276247D01*
X101559523Y-123276247D02*
X101559523Y-122895295D01*
X101559523Y-122895295D02*
X101511904Y-122800057D01*
X101511904Y-122800057D02*
X101464285Y-122752438D01*
X101464285Y-122752438D02*
X101369047Y-122704819D01*
X101369047Y-122704819D02*
X101178571Y-122704819D01*
X101178571Y-122704819D02*
X101083333Y-122752438D01*
X101083333Y-122752438D02*
X101035714Y-122800057D01*
X101035714Y-122800057D02*
X100988095Y-122895295D01*
X100988095Y-122895295D02*
X100988095Y-123133390D01*
X100988095Y-123133390D02*
X101035714Y-123228628D01*
X101035714Y-123228628D02*
X101083333Y-123276247D01*
X101083333Y-123276247D02*
X101178571Y-123323866D01*
X101178571Y-123323866D02*
X101369047Y-123323866D01*
X101369047Y-123323866D02*
X101464285Y-123276247D01*
X101464285Y-123276247D02*
X101511904Y-123228628D01*
X101511904Y-123228628D02*
X101559523Y-123133390D01*
X187940476Y-89657200D02*
X188083333Y-89704819D01*
X188083333Y-89704819D02*
X188321428Y-89704819D01*
X188321428Y-89704819D02*
X188416666Y-89657200D01*
X188416666Y-89657200D02*
X188464285Y-89609580D01*
X188464285Y-89609580D02*
X188511904Y-89514342D01*
X188511904Y-89514342D02*
X188511904Y-89419104D01*
X188511904Y-89419104D02*
X188464285Y-89323866D01*
X188464285Y-89323866D02*
X188416666Y-89276247D01*
X188416666Y-89276247D02*
X188321428Y-89228628D01*
X188321428Y-89228628D02*
X188130952Y-89181009D01*
X188130952Y-89181009D02*
X188035714Y-89133390D01*
X188035714Y-89133390D02*
X187988095Y-89085771D01*
X187988095Y-89085771D02*
X187940476Y-88990533D01*
X187940476Y-88990533D02*
X187940476Y-88895295D01*
X187940476Y-88895295D02*
X187988095Y-88800057D01*
X187988095Y-88800057D02*
X188035714Y-88752438D01*
X188035714Y-88752438D02*
X188130952Y-88704819D01*
X188130952Y-88704819D02*
X188369047Y-88704819D01*
X188369047Y-88704819D02*
X188511904Y-88752438D01*
X188845238Y-88704819D02*
X189083333Y-89704819D01*
X189083333Y-89704819D02*
X189273809Y-88990533D01*
X189273809Y-88990533D02*
X189464285Y-89704819D01*
X189464285Y-89704819D02*
X189702381Y-88704819D01*
X190607142Y-89704819D02*
X190035714Y-89704819D01*
X190321428Y-89704819D02*
X190321428Y-88704819D01*
X190321428Y-88704819D02*
X190226190Y-88847676D01*
X190226190Y-88847676D02*
X190130952Y-88942914D01*
X190130952Y-88942914D02*
X190035714Y-88990533D01*
X190988095Y-88800057D02*
X191035714Y-88752438D01*
X191035714Y-88752438D02*
X191130952Y-88704819D01*
X191130952Y-88704819D02*
X191369047Y-88704819D01*
X191369047Y-88704819D02*
X191464285Y-88752438D01*
X191464285Y-88752438D02*
X191511904Y-88800057D01*
X191511904Y-88800057D02*
X191559523Y-88895295D01*
X191559523Y-88895295D02*
X191559523Y-88990533D01*
X191559523Y-88990533D02*
X191511904Y-89133390D01*
X191511904Y-89133390D02*
X190940476Y-89704819D01*
X190940476Y-89704819D02*
X191559523Y-89704819D01*
X188416667Y-72657200D02*
X188559524Y-72704819D01*
X188559524Y-72704819D02*
X188797619Y-72704819D01*
X188797619Y-72704819D02*
X188892857Y-72657200D01*
X188892857Y-72657200D02*
X188940476Y-72609580D01*
X188940476Y-72609580D02*
X188988095Y-72514342D01*
X188988095Y-72514342D02*
X188988095Y-72419104D01*
X188988095Y-72419104D02*
X188940476Y-72323866D01*
X188940476Y-72323866D02*
X188892857Y-72276247D01*
X188892857Y-72276247D02*
X188797619Y-72228628D01*
X188797619Y-72228628D02*
X188607143Y-72181009D01*
X188607143Y-72181009D02*
X188511905Y-72133390D01*
X188511905Y-72133390D02*
X188464286Y-72085771D01*
X188464286Y-72085771D02*
X188416667Y-71990533D01*
X188416667Y-71990533D02*
X188416667Y-71895295D01*
X188416667Y-71895295D02*
X188464286Y-71800057D01*
X188464286Y-71800057D02*
X188511905Y-71752438D01*
X188511905Y-71752438D02*
X188607143Y-71704819D01*
X188607143Y-71704819D02*
X188845238Y-71704819D01*
X188845238Y-71704819D02*
X188988095Y-71752438D01*
X189321429Y-71704819D02*
X189559524Y-72704819D01*
X189559524Y-72704819D02*
X189750000Y-71990533D01*
X189750000Y-71990533D02*
X189940476Y-72704819D01*
X189940476Y-72704819D02*
X190178572Y-71704819D01*
X190988095Y-71704819D02*
X190797619Y-71704819D01*
X190797619Y-71704819D02*
X190702381Y-71752438D01*
X190702381Y-71752438D02*
X190654762Y-71800057D01*
X190654762Y-71800057D02*
X190559524Y-71942914D01*
X190559524Y-71942914D02*
X190511905Y-72133390D01*
X190511905Y-72133390D02*
X190511905Y-72514342D01*
X190511905Y-72514342D02*
X190559524Y-72609580D01*
X190559524Y-72609580D02*
X190607143Y-72657200D01*
X190607143Y-72657200D02*
X190702381Y-72704819D01*
X190702381Y-72704819D02*
X190892857Y-72704819D01*
X190892857Y-72704819D02*
X190988095Y-72657200D01*
X190988095Y-72657200D02*
X191035714Y-72609580D01*
X191035714Y-72609580D02*
X191083333Y-72514342D01*
X191083333Y-72514342D02*
X191083333Y-72276247D01*
X191083333Y-72276247D02*
X191035714Y-72181009D01*
X191035714Y-72181009D02*
X190988095Y-72133390D01*
X190988095Y-72133390D02*
X190892857Y-72085771D01*
X190892857Y-72085771D02*
X190702381Y-72085771D01*
X190702381Y-72085771D02*
X190607143Y-72133390D01*
X190607143Y-72133390D02*
X190559524Y-72181009D01*
X190559524Y-72181009D02*
X190511905Y-72276247D01*
X169940476Y-140657200D02*
X170083333Y-140704819D01*
X170083333Y-140704819D02*
X170321428Y-140704819D01*
X170321428Y-140704819D02*
X170416666Y-140657200D01*
X170416666Y-140657200D02*
X170464285Y-140609580D01*
X170464285Y-140609580D02*
X170511904Y-140514342D01*
X170511904Y-140514342D02*
X170511904Y-140419104D01*
X170511904Y-140419104D02*
X170464285Y-140323866D01*
X170464285Y-140323866D02*
X170416666Y-140276247D01*
X170416666Y-140276247D02*
X170321428Y-140228628D01*
X170321428Y-140228628D02*
X170130952Y-140181009D01*
X170130952Y-140181009D02*
X170035714Y-140133390D01*
X170035714Y-140133390D02*
X169988095Y-140085771D01*
X169988095Y-140085771D02*
X169940476Y-139990533D01*
X169940476Y-139990533D02*
X169940476Y-139895295D01*
X169940476Y-139895295D02*
X169988095Y-139800057D01*
X169988095Y-139800057D02*
X170035714Y-139752438D01*
X170035714Y-139752438D02*
X170130952Y-139704819D01*
X170130952Y-139704819D02*
X170369047Y-139704819D01*
X170369047Y-139704819D02*
X170511904Y-139752438D01*
X170845238Y-139704819D02*
X171083333Y-140704819D01*
X171083333Y-140704819D02*
X171273809Y-139990533D01*
X171273809Y-139990533D02*
X171464285Y-140704819D01*
X171464285Y-140704819D02*
X171702381Y-139704819D01*
X172035714Y-139800057D02*
X172083333Y-139752438D01*
X172083333Y-139752438D02*
X172178571Y-139704819D01*
X172178571Y-139704819D02*
X172416666Y-139704819D01*
X172416666Y-139704819D02*
X172511904Y-139752438D01*
X172511904Y-139752438D02*
X172559523Y-139800057D01*
X172559523Y-139800057D02*
X172607142Y-139895295D01*
X172607142Y-139895295D02*
X172607142Y-139990533D01*
X172607142Y-139990533D02*
X172559523Y-140133390D01*
X172559523Y-140133390D02*
X171988095Y-140704819D01*
X171988095Y-140704819D02*
X172607142Y-140704819D01*
X173083333Y-140704819D02*
X173273809Y-140704819D01*
X173273809Y-140704819D02*
X173369047Y-140657200D01*
X173369047Y-140657200D02*
X173416666Y-140609580D01*
X173416666Y-140609580D02*
X173511904Y-140466723D01*
X173511904Y-140466723D02*
X173559523Y-140276247D01*
X173559523Y-140276247D02*
X173559523Y-139895295D01*
X173559523Y-139895295D02*
X173511904Y-139800057D01*
X173511904Y-139800057D02*
X173464285Y-139752438D01*
X173464285Y-139752438D02*
X173369047Y-139704819D01*
X173369047Y-139704819D02*
X173178571Y-139704819D01*
X173178571Y-139704819D02*
X173083333Y-139752438D01*
X173083333Y-139752438D02*
X173035714Y-139800057D01*
X173035714Y-139800057D02*
X172988095Y-139895295D01*
X172988095Y-139895295D02*
X172988095Y-140133390D01*
X172988095Y-140133390D02*
X173035714Y-140228628D01*
X173035714Y-140228628D02*
X173083333Y-140276247D01*
X173083333Y-140276247D02*
X173178571Y-140323866D01*
X173178571Y-140323866D02*
X173369047Y-140323866D01*
X173369047Y-140323866D02*
X173464285Y-140276247D01*
X173464285Y-140276247D02*
X173511904Y-140228628D01*
X173511904Y-140228628D02*
X173559523Y-140133390D01*
D11*
X164150000Y-61400000D02*
X164150000Y-76600000D01*
X164150000Y-76600000D02*
X179350000Y-76600000D01*
X179350000Y-61400000D02*
X164150000Y-61400000D01*
X179350000Y-76600000D02*
X179350000Y-61400000D01*
X110150000Y-112400000D02*
X110150000Y-127600000D01*
X110150000Y-127600000D02*
X125350000Y-127600000D01*
X125350000Y-112400000D02*
X110150000Y-112400000D01*
X125350000Y-127600000D02*
X125350000Y-112400000D01*
X92150000Y-61400000D02*
X92150000Y-76600000D01*
X92150000Y-76600000D02*
X107350000Y-76600000D01*
X107350000Y-61400000D02*
X92150000Y-61400000D01*
X107350000Y-76600000D02*
X107350000Y-61400000D01*
X146150000Y-78400000D02*
X146150000Y-93600000D01*
X146150000Y-93600000D02*
X161350000Y-93600000D01*
X161350000Y-78400000D02*
X146150000Y-78400000D01*
X161350000Y-93600000D02*
X161350000Y-78400000D01*
X110150000Y-95400000D02*
X110150000Y-110600000D01*
X110150000Y-110600000D02*
X125350000Y-110600000D01*
X125350000Y-95400000D02*
X110150000Y-95400000D01*
X125350000Y-110600000D02*
X125350000Y-95400000D01*
X164150000Y-78400000D02*
X164150000Y-93600000D01*
X164150000Y-93600000D02*
X179350000Y-93600000D01*
X179350000Y-78400000D02*
X164150000Y-78400000D01*
X179350000Y-93600000D02*
X179350000Y-78400000D01*
X164150000Y-95400000D02*
X164150000Y-110600000D01*
X164150000Y-110600000D02*
X179350000Y-110600000D01*
X179350000Y-95400000D02*
X164150000Y-95400000D01*
X179350000Y-110600000D02*
X179350000Y-95400000D01*
X128150000Y-78400000D02*
X128150000Y-93600000D01*
X128150000Y-93600000D02*
X143350000Y-93600000D01*
X143350000Y-78400000D02*
X128150000Y-78400000D01*
X143350000Y-93600000D02*
X143350000Y-78400000D01*
X146150000Y-129400000D02*
X146150000Y-144600000D01*
X146150000Y-144600000D02*
X161350000Y-144600000D01*
X161350000Y-129400000D02*
X146150000Y-129400000D01*
X161350000Y-144600000D02*
X161350000Y-129400000D01*
X128150000Y-112400000D02*
X128150000Y-127600000D01*
X128150000Y-127600000D02*
X143350000Y-127600000D01*
X143350000Y-112400000D02*
X128150000Y-112400000D01*
X143350000Y-127600000D02*
X143350000Y-112400000D01*
X164150000Y-112400000D02*
X164150000Y-127600000D01*
X164150000Y-127600000D02*
X179350000Y-127600000D01*
X179350000Y-112400000D02*
X164150000Y-112400000D01*
X179350000Y-127600000D02*
X179350000Y-112400000D01*
X128150000Y-129400000D02*
X128150000Y-144600000D01*
X128150000Y-144600000D02*
X143350000Y-144600000D01*
X143350000Y-129400000D02*
X128150000Y-129400000D01*
X143350000Y-144600000D02*
X143350000Y-129400000D01*
X128150000Y-61400000D02*
X128150000Y-76600000D01*
X128150000Y-76600000D02*
X143350000Y-76600000D01*
X143350000Y-61400000D02*
X128150000Y-61400000D01*
X143350000Y-76600000D02*
X143350000Y-61400000D01*
X146150000Y-61400000D02*
X146150000Y-76600000D01*
X146150000Y-76600000D02*
X161350000Y-76600000D01*
X161350000Y-61400000D02*
X146150000Y-61400000D01*
X161350000Y-76600000D02*
X161350000Y-61400000D01*
X110150000Y-61400000D02*
X110150000Y-76600000D01*
X110150000Y-76600000D02*
X125350000Y-76600000D01*
X125350000Y-61400000D02*
X110150000Y-61400000D01*
X125350000Y-76600000D02*
X125350000Y-61400000D01*
X182150000Y-112400000D02*
X182150000Y-127600000D01*
X182150000Y-127600000D02*
X197350000Y-127600000D01*
X197350000Y-112400000D02*
X182150000Y-112400000D01*
X197350000Y-127600000D02*
X197350000Y-112400000D01*
X182150000Y-95400000D02*
X182150000Y-110600000D01*
X182150000Y-110600000D02*
X197350000Y-110600000D01*
X197350000Y-95400000D02*
X182150000Y-95400000D01*
X197350000Y-110600000D02*
X197350000Y-95400000D01*
X146150000Y-112400000D02*
X146150000Y-127600000D01*
X146150000Y-127600000D02*
X161350000Y-127600000D01*
X161350000Y-112400000D02*
X146150000Y-112400000D01*
X161350000Y-127600000D02*
X161350000Y-112400000D01*
X92150000Y-78400000D02*
X92150000Y-93600000D01*
X92150000Y-93600000D02*
X107350000Y-93600000D01*
X107350000Y-78400000D02*
X92150000Y-78400000D01*
X107350000Y-93600000D02*
X107350000Y-78400000D01*
X146150000Y-95400000D02*
X146150000Y-110600000D01*
X146150000Y-110600000D02*
X161350000Y-110600000D01*
X161350000Y-95400000D02*
X146150000Y-95400000D01*
X161350000Y-110600000D02*
X161350000Y-95400000D01*
X110150000Y-78400000D02*
X110150000Y-93600000D01*
X110150000Y-93600000D02*
X125350000Y-93600000D01*
X125350000Y-78400000D02*
X110150000Y-78400000D01*
X125350000Y-93600000D02*
X125350000Y-78400000D01*
X128150000Y-95400000D02*
X128150000Y-110600000D01*
X128150000Y-110600000D02*
X143350000Y-110600000D01*
X143350000Y-95400000D02*
X128150000Y-95400000D01*
X143350000Y-110600000D02*
X143350000Y-95400000D01*
X182150000Y-129400000D02*
X182150000Y-144600000D01*
X182150000Y-144600000D02*
X197350000Y-144600000D01*
X197350000Y-129400000D02*
X182150000Y-129400000D01*
X197350000Y-144600000D02*
X197350000Y-129400000D01*
X92150000Y-129400000D02*
X92150000Y-144600000D01*
X92150000Y-144600000D02*
X107350000Y-144600000D01*
X107350000Y-129400000D02*
X92150000Y-129400000D01*
X107350000Y-144600000D02*
X107350000Y-129400000D01*
X110150000Y-129400000D02*
X110150000Y-144600000D01*
X110150000Y-144600000D02*
X125350000Y-144600000D01*
X125350000Y-129400000D02*
X110150000Y-129400000D01*
X125350000Y-144600000D02*
X125350000Y-129400000D01*
X92150000Y-95400000D02*
X92150000Y-110600000D01*
X92150000Y-110600000D02*
X107350000Y-110600000D01*
X107350000Y-95400000D02*
X92150000Y-95400000D01*
X107350000Y-110600000D02*
X107350000Y-95400000D01*
X92150000Y-112400000D02*
X92150000Y-127600000D01*
X92150000Y-127600000D02*
X107350000Y-127600000D01*
X107350000Y-112400000D02*
X92150000Y-112400000D01*
X107350000Y-127600000D02*
X107350000Y-112400000D01*
X182150000Y-78400000D02*
X182150000Y-93600000D01*
X182150000Y-93600000D02*
X197350000Y-93600000D01*
X197350000Y-78400000D02*
X182150000Y-78400000D01*
X197350000Y-93600000D02*
X197350000Y-78400000D01*
X182150000Y-61400000D02*
X182150000Y-76600000D01*
X182150000Y-76600000D02*
X197350000Y-76600000D01*
X197350000Y-61400000D02*
X182150000Y-61400000D01*
X197350000Y-76600000D02*
X197350000Y-61400000D01*
X164150000Y-129400000D02*
X164150000Y-144600000D01*
X164150000Y-144600000D02*
X179350000Y-144600000D01*
X179350000Y-129400000D02*
X164150000Y-129400000D01*
X179350000Y-144600000D02*
X179350000Y-129400000D01*
D12*
X163400000Y-74730000D02*
X196420000Y-74730000D01*
X196420000Y-92510000D01*
X163400000Y-92510000D01*
X163400000Y-74730000D01*
X164035000Y-92510000D02*
X163400000Y-92510000D01*
X163400000Y-91875000D01*
X164035000Y-92510000D01*
G36*
X164035000Y-92510000D02*
G01*
X163400000Y-92510000D01*
X163400000Y-91875000D01*
X164035000Y-92510000D01*
G37*
%LPC*%
D13*
X166250000Y-69000000D03*
D14*
X171750000Y-63100000D03*
D15*
X171750000Y-69000000D03*
D14*
X176750000Y-65200000D03*
D13*
X177250000Y-69000000D03*
X112250000Y-120000000D03*
D14*
X117750000Y-114100000D03*
D15*
X117750000Y-120000000D03*
D14*
X122750000Y-116200000D03*
D13*
X123250000Y-120000000D03*
X94250000Y-69000000D03*
D14*
X99750000Y-63100000D03*
D15*
X99750000Y-69000000D03*
D14*
X104750000Y-65200000D03*
D13*
X105250000Y-69000000D03*
X148250000Y-86000000D03*
D14*
X153750000Y-80100000D03*
D15*
X153750000Y-86000000D03*
D14*
X158750000Y-82200000D03*
D13*
X159250000Y-86000000D03*
X112250000Y-103000000D03*
D14*
X117750000Y-97100000D03*
D15*
X117750000Y-103000000D03*
D14*
X122750000Y-99200000D03*
D13*
X123250000Y-103000000D03*
X166250000Y-86000000D03*
D14*
X171750000Y-80100000D03*
D15*
X171750000Y-86000000D03*
D14*
X176750000Y-82200000D03*
D13*
X177250000Y-86000000D03*
X166250000Y-103000000D03*
D14*
X171750000Y-97100000D03*
D15*
X171750000Y-103000000D03*
D14*
X176750000Y-99200000D03*
D13*
X177250000Y-103000000D03*
X130250000Y-86000000D03*
D14*
X135750000Y-80100000D03*
D15*
X135750000Y-86000000D03*
D14*
X140750000Y-82200000D03*
D13*
X141250000Y-86000000D03*
X148250000Y-137000000D03*
D14*
X153750000Y-131100000D03*
D15*
X153750000Y-137000000D03*
D14*
X158750000Y-133200000D03*
D13*
X159250000Y-137000000D03*
X130250000Y-120000000D03*
D14*
X135750000Y-114100000D03*
D15*
X135750000Y-120000000D03*
D14*
X140750000Y-116200000D03*
D13*
X141250000Y-120000000D03*
X166250000Y-120000000D03*
D14*
X171750000Y-114100000D03*
D15*
X171750000Y-120000000D03*
D14*
X176750000Y-116200000D03*
D13*
X177250000Y-120000000D03*
X130250000Y-137000000D03*
D14*
X135750000Y-131100000D03*
D15*
X135750000Y-137000000D03*
D14*
X140750000Y-133200000D03*
D13*
X141250000Y-137000000D03*
X130250000Y-69000000D03*
D14*
X135750000Y-63100000D03*
D15*
X135750000Y-69000000D03*
D14*
X140750000Y-65200000D03*
D13*
X141250000Y-69000000D03*
X148250000Y-69000000D03*
D14*
X153750000Y-63100000D03*
D15*
X153750000Y-69000000D03*
D14*
X158750000Y-65200000D03*
D13*
X159250000Y-69000000D03*
X112250000Y-69000000D03*
D14*
X117750000Y-63100000D03*
D15*
X117750000Y-69000000D03*
D14*
X122750000Y-65200000D03*
D13*
X123250000Y-69000000D03*
X184250000Y-120000000D03*
D14*
X189750000Y-114100000D03*
D15*
X189750000Y-120000000D03*
D14*
X194750000Y-116200000D03*
D13*
X195250000Y-120000000D03*
X184250000Y-103000000D03*
D14*
X189750000Y-97100000D03*
D15*
X189750000Y-103000000D03*
D14*
X194750000Y-99200000D03*
D13*
X195250000Y-103000000D03*
X148250000Y-120000000D03*
D14*
X153750000Y-114100000D03*
D15*
X153750000Y-120000000D03*
D14*
X158750000Y-116200000D03*
D13*
X159250000Y-120000000D03*
X94250000Y-86000000D03*
D14*
X99750000Y-80100000D03*
D15*
X99750000Y-86000000D03*
D14*
X104750000Y-82200000D03*
D13*
X105250000Y-86000000D03*
X148250000Y-103000000D03*
D14*
X153750000Y-97100000D03*
D15*
X153750000Y-103000000D03*
D14*
X158750000Y-99200000D03*
D13*
X159250000Y-103000000D03*
X112250000Y-86000000D03*
D14*
X117750000Y-80100000D03*
D15*
X117750000Y-86000000D03*
D14*
X122750000Y-82200000D03*
D13*
X123250000Y-86000000D03*
X130250000Y-103000000D03*
D14*
X135750000Y-97100000D03*
D15*
X135750000Y-103000000D03*
D14*
X140750000Y-99200000D03*
D13*
X141250000Y-103000000D03*
X184250000Y-137000000D03*
D14*
X189750000Y-131100000D03*
D15*
X189750000Y-137000000D03*
D14*
X194750000Y-133200000D03*
D13*
X195250000Y-137000000D03*
X94250000Y-137000000D03*
D14*
X99750000Y-131100000D03*
D15*
X99750000Y-137000000D03*
D14*
X104750000Y-133200000D03*
D13*
X105250000Y-137000000D03*
X112250000Y-137000000D03*
D14*
X117750000Y-131100000D03*
D15*
X117750000Y-137000000D03*
D14*
X122750000Y-133200000D03*
D13*
X123250000Y-137000000D03*
X94250000Y-103000000D03*
D14*
X99750000Y-97100000D03*
D15*
X99750000Y-103000000D03*
D14*
X104750000Y-99200000D03*
D13*
X105250000Y-103000000D03*
X94250000Y-120000000D03*
D14*
X99750000Y-114100000D03*
D15*
X99750000Y-120000000D03*
D14*
X104750000Y-116200000D03*
D13*
X105250000Y-120000000D03*
X184250000Y-86000000D03*
D14*
X189750000Y-80100000D03*
D15*
X189750000Y-86000000D03*
D14*
X194750000Y-82200000D03*
D13*
X195250000Y-86000000D03*
X184250000Y-69000000D03*
D14*
X189750000Y-63100000D03*
D15*
X189750000Y-69000000D03*
D14*
X194750000Y-65200000D03*
D13*
X195250000Y-69000000D03*
X166250000Y-137000000D03*
D14*
X171750000Y-131100000D03*
D15*
X171750000Y-137000000D03*
D14*
X176750000Y-133200000D03*
D13*
X177250000Y-137000000D03*
D16*
X164670000Y-76000000D03*
X167210000Y-76000000D03*
X169750000Y-76000000D03*
X172290000Y-76000000D03*
X174830000Y-76000000D03*
X177370000Y-76000000D03*
X179910000Y-76000000D03*
X182450000Y-76000000D03*
X184990000Y-76000000D03*
X187530000Y-76000000D03*
X190070000Y-76000000D03*
X192610000Y-76000000D03*
X195150000Y-76000000D03*
X164670000Y-91240000D03*
X167210000Y-91240000D03*
X169750000Y-91240000D03*
X172290000Y-91240000D03*
X174830000Y-91240000D03*
X177370000Y-91240000D03*
X179910000Y-91240000D03*
X182450000Y-91240000D03*
X184990000Y-91240000D03*
X187530000Y-91240000D03*
X190070000Y-91240000D03*
X192610000Y-91240000D03*
X195150000Y-91240000D03*
D17*
X151320000Y-145500000D03*
X148320000Y-145500000D03*
D18*
X139750000Y-147025000D03*
X139750000Y-144275000D03*
%LPD*%
M02*
