G04 #@! TF.GenerationSoftware,KiCad,Pcbnew,9.0.0*
G04 #@! TF.CreationDate,2025-09-07T21:04:34+01:00*
G04 #@! TF.ProjectId,split_keyboard_1,73706c69-745f-46b6-9579-626f6172645f,rev?*
G04 #@! TF.SameCoordinates,Original*
G04 #@! TF.FileFunction,Legend,Bot*
G04 #@! TF.FilePolarity,Positive*
%FSLAX46Y46*%
G04 Gerber Fmt 4.6, Leading zero omitted, Abs format (unit mm)*
G04 Created by KiCad (PCBNEW 9.0.0) date 2025-09-07 21:04:34*
%MOMM*%
%LPD*%
G01*
G04 APERTURE LIST*
G04 Aperture macros list*
%AMRoundRect*
0 Rectangle with rounded corners*
0 $1 Rounding radius*
0 $2 $3 $4 $5 $6 $7 $8 $9 X,Y pos of 4 corners*
0 Add a 4 corners polygon primitive as box body*
4,1,4,$2,$3,$4,$5,$6,$7,$8,$9,$2,$3,0*
0 Add four circle primitives for the rounded corners*
1,1,$1+$1,$2,$3*
1,1,$1+$1,$4,$5*
1,1,$1+$1,$6,$7*
1,1,$1+$1,$8,$9*
0 Add four rect primitives between the rounded corners*
20,1,$1+$1,$2,$3,$4,$5,0*
20,1,$1+$1,$4,$5,$6,$7,0*
20,1,$1+$1,$6,$7,$8,$9,0*
20,1,$1+$1,$8,$9,$2,$3,0*%
G04 Aperture macros list end*
%ADD10C,0.100000*%
%ADD11C,0.150000*%
%ADD12C,0.120000*%
%ADD13C,0.200000*%
%ADD14C,0.063060*%
%ADD15C,1.900000*%
%ADD16C,3.050000*%
%ADD17C,3.450000*%
%ADD18RoundRect,0.250000X-1.025000X-1.000000X1.025000X-1.000000X1.025000X1.000000X-1.025000X1.000000X0*%
%ADD19C,1.700000*%
%ADD20RoundRect,0.225000X0.375000X-0.225000X0.375000X0.225000X-0.375000X0.225000X-0.375000X-0.225000X0*%
%ADD21C,0.900000*%
%ADD22R,0.700000X1.500000*%
%ADD23R,1.000000X0.800000*%
%ADD24C,0.750000*%
%ADD25R,1.550000X1.000000*%
%ADD26RoundRect,0.150000X0.700000X-0.150000X0.700000X0.150000X-0.700000X0.150000X-0.700000X-0.150000X0*%
%ADD27RoundRect,0.250000X1.100000X-0.250000X1.100000X0.250000X-1.100000X0.250000X-1.100000X-0.250000X0*%
G04 APERTURE END LIST*
D10*
X197147419Y-82858095D02*
X197956942Y-82858095D01*
X197956942Y-82858095D02*
X198052180Y-82905714D01*
X198052180Y-82905714D02*
X198099800Y-82953333D01*
X198099800Y-82953333D02*
X198147419Y-83048571D01*
X198147419Y-83048571D02*
X198147419Y-83239047D01*
X198147419Y-83239047D02*
X198099800Y-83334285D01*
X198099800Y-83334285D02*
X198052180Y-83381904D01*
X198052180Y-83381904D02*
X197956942Y-83429523D01*
X197956942Y-83429523D02*
X197147419Y-83429523D01*
X198147419Y-84429523D02*
X198147419Y-83858095D01*
X198147419Y-84143809D02*
X197147419Y-84143809D01*
X197147419Y-84143809D02*
X197290276Y-84048571D01*
X197290276Y-84048571D02*
X197385514Y-83953333D01*
X197385514Y-83953333D02*
X197433133Y-83858095D01*
D11*
X165204819Y-119285714D02*
X164204819Y-119285714D01*
X164204819Y-119285714D02*
X164204819Y-119523809D01*
X164204819Y-119523809D02*
X164252438Y-119666666D01*
X164252438Y-119666666D02*
X164347676Y-119761904D01*
X164347676Y-119761904D02*
X164442914Y-119809523D01*
X164442914Y-119809523D02*
X164633390Y-119857142D01*
X164633390Y-119857142D02*
X164776247Y-119857142D01*
X164776247Y-119857142D02*
X164966723Y-119809523D01*
X164966723Y-119809523D02*
X165061961Y-119761904D01*
X165061961Y-119761904D02*
X165157200Y-119666666D01*
X165157200Y-119666666D02*
X165204819Y-119523809D01*
X165204819Y-119523809D02*
X165204819Y-119285714D01*
X164300057Y-120238095D02*
X164252438Y-120285714D01*
X164252438Y-120285714D02*
X164204819Y-120380952D01*
X164204819Y-120380952D02*
X164204819Y-120619047D01*
X164204819Y-120619047D02*
X164252438Y-120714285D01*
X164252438Y-120714285D02*
X164300057Y-120761904D01*
X164300057Y-120761904D02*
X164395295Y-120809523D01*
X164395295Y-120809523D02*
X164490533Y-120809523D01*
X164490533Y-120809523D02*
X164633390Y-120761904D01*
X164633390Y-120761904D02*
X165204819Y-120190476D01*
X165204819Y-120190476D02*
X165204819Y-120809523D01*
X164300057Y-121190476D02*
X164252438Y-121238095D01*
X164252438Y-121238095D02*
X164204819Y-121333333D01*
X164204819Y-121333333D02*
X164204819Y-121571428D01*
X164204819Y-121571428D02*
X164252438Y-121666666D01*
X164252438Y-121666666D02*
X164300057Y-121714285D01*
X164300057Y-121714285D02*
X164395295Y-121761904D01*
X164395295Y-121761904D02*
X164490533Y-121761904D01*
X164490533Y-121761904D02*
X164633390Y-121714285D01*
X164633390Y-121714285D02*
X165204819Y-121142857D01*
X165204819Y-121142857D02*
X165204819Y-121761904D01*
X111204819Y-85861905D02*
X110204819Y-85861905D01*
X110204819Y-85861905D02*
X110204819Y-86100000D01*
X110204819Y-86100000D02*
X110252438Y-86242857D01*
X110252438Y-86242857D02*
X110347676Y-86338095D01*
X110347676Y-86338095D02*
X110442914Y-86385714D01*
X110442914Y-86385714D02*
X110633390Y-86433333D01*
X110633390Y-86433333D02*
X110776247Y-86433333D01*
X110776247Y-86433333D02*
X110966723Y-86385714D01*
X110966723Y-86385714D02*
X111061961Y-86338095D01*
X111061961Y-86338095D02*
X111157200Y-86242857D01*
X111157200Y-86242857D02*
X111204819Y-86100000D01*
X111204819Y-86100000D02*
X111204819Y-85861905D01*
X110204819Y-86766667D02*
X110204819Y-87433333D01*
X110204819Y-87433333D02*
X111204819Y-87004762D01*
D10*
X151559523Y-140924800D02*
X151416666Y-140972419D01*
X151416666Y-140972419D02*
X151178571Y-140972419D01*
X151178571Y-140972419D02*
X151083333Y-140924800D01*
X151083333Y-140924800D02*
X151035714Y-140877180D01*
X151035714Y-140877180D02*
X150988095Y-140781942D01*
X150988095Y-140781942D02*
X150988095Y-140686704D01*
X150988095Y-140686704D02*
X151035714Y-140591466D01*
X151035714Y-140591466D02*
X151083333Y-140543847D01*
X151083333Y-140543847D02*
X151178571Y-140496228D01*
X151178571Y-140496228D02*
X151369047Y-140448609D01*
X151369047Y-140448609D02*
X151464285Y-140400990D01*
X151464285Y-140400990D02*
X151511904Y-140353371D01*
X151511904Y-140353371D02*
X151559523Y-140258133D01*
X151559523Y-140258133D02*
X151559523Y-140162895D01*
X151559523Y-140162895D02*
X151511904Y-140067657D01*
X151511904Y-140067657D02*
X151464285Y-140020038D01*
X151464285Y-140020038D02*
X151369047Y-139972419D01*
X151369047Y-139972419D02*
X151130952Y-139972419D01*
X151130952Y-139972419D02*
X150988095Y-140020038D01*
X150654761Y-139972419D02*
X150416666Y-140972419D01*
X150416666Y-140972419D02*
X150226190Y-140258133D01*
X150226190Y-140258133D02*
X150035714Y-140972419D01*
X150035714Y-140972419D02*
X149797619Y-139972419D01*
X149511904Y-139972419D02*
X148892857Y-139972419D01*
X148892857Y-139972419D02*
X149226190Y-140353371D01*
X149226190Y-140353371D02*
X149083333Y-140353371D01*
X149083333Y-140353371D02*
X148988095Y-140400990D01*
X148988095Y-140400990D02*
X148940476Y-140448609D01*
X148940476Y-140448609D02*
X148892857Y-140543847D01*
X148892857Y-140543847D02*
X148892857Y-140781942D01*
X148892857Y-140781942D02*
X148940476Y-140877180D01*
X148940476Y-140877180D02*
X148988095Y-140924800D01*
X148988095Y-140924800D02*
X149083333Y-140972419D01*
X149083333Y-140972419D02*
X149369047Y-140972419D01*
X149369047Y-140972419D02*
X149464285Y-140924800D01*
X149464285Y-140924800D02*
X149511904Y-140877180D01*
X147940476Y-140972419D02*
X148511904Y-140972419D01*
X148226190Y-140972419D02*
X148226190Y-139972419D01*
X148226190Y-139972419D02*
X148321428Y-140115276D01*
X148321428Y-140115276D02*
X148416666Y-140210514D01*
X148416666Y-140210514D02*
X148511904Y-140258133D01*
D11*
X129204819Y-119385714D02*
X128204819Y-119385714D01*
X128204819Y-119385714D02*
X128204819Y-119623809D01*
X128204819Y-119623809D02*
X128252438Y-119766666D01*
X128252438Y-119766666D02*
X128347676Y-119861904D01*
X128347676Y-119861904D02*
X128442914Y-119909523D01*
X128442914Y-119909523D02*
X128633390Y-119957142D01*
X128633390Y-119957142D02*
X128776247Y-119957142D01*
X128776247Y-119957142D02*
X128966723Y-119909523D01*
X128966723Y-119909523D02*
X129061961Y-119861904D01*
X129061961Y-119861904D02*
X129157200Y-119766666D01*
X129157200Y-119766666D02*
X129204819Y-119623809D01*
X129204819Y-119623809D02*
X129204819Y-119385714D01*
X128300057Y-120338095D02*
X128252438Y-120385714D01*
X128252438Y-120385714D02*
X128204819Y-120480952D01*
X128204819Y-120480952D02*
X128204819Y-120719047D01*
X128204819Y-120719047D02*
X128252438Y-120814285D01*
X128252438Y-120814285D02*
X128300057Y-120861904D01*
X128300057Y-120861904D02*
X128395295Y-120909523D01*
X128395295Y-120909523D02*
X128490533Y-120909523D01*
X128490533Y-120909523D02*
X128633390Y-120861904D01*
X128633390Y-120861904D02*
X129204819Y-120290476D01*
X129204819Y-120290476D02*
X129204819Y-120909523D01*
X128204819Y-121528571D02*
X128204819Y-121623809D01*
X128204819Y-121623809D02*
X128252438Y-121719047D01*
X128252438Y-121719047D02*
X128300057Y-121766666D01*
X128300057Y-121766666D02*
X128395295Y-121814285D01*
X128395295Y-121814285D02*
X128585771Y-121861904D01*
X128585771Y-121861904D02*
X128823866Y-121861904D01*
X128823866Y-121861904D02*
X129014342Y-121814285D01*
X129014342Y-121814285D02*
X129109580Y-121766666D01*
X129109580Y-121766666D02*
X129157200Y-121719047D01*
X129157200Y-121719047D02*
X129204819Y-121623809D01*
X129204819Y-121623809D02*
X129204819Y-121528571D01*
X129204819Y-121528571D02*
X129157200Y-121433333D01*
X129157200Y-121433333D02*
X129109580Y-121385714D01*
X129109580Y-121385714D02*
X129014342Y-121338095D01*
X129014342Y-121338095D02*
X128823866Y-121290476D01*
X128823866Y-121290476D02*
X128585771Y-121290476D01*
X128585771Y-121290476D02*
X128395295Y-121338095D01*
X128395295Y-121338095D02*
X128300057Y-121385714D01*
X128300057Y-121385714D02*
X128252438Y-121433333D01*
X128252438Y-121433333D02*
X128204819Y-121528571D01*
X183204819Y-102385714D02*
X182204819Y-102385714D01*
X182204819Y-102385714D02*
X182204819Y-102623809D01*
X182204819Y-102623809D02*
X182252438Y-102766666D01*
X182252438Y-102766666D02*
X182347676Y-102861904D01*
X182347676Y-102861904D02*
X182442914Y-102909523D01*
X182442914Y-102909523D02*
X182633390Y-102957142D01*
X182633390Y-102957142D02*
X182776247Y-102957142D01*
X182776247Y-102957142D02*
X182966723Y-102909523D01*
X182966723Y-102909523D02*
X183061961Y-102861904D01*
X183061961Y-102861904D02*
X183157200Y-102766666D01*
X183157200Y-102766666D02*
X183204819Y-102623809D01*
X183204819Y-102623809D02*
X183204819Y-102385714D01*
X183204819Y-103909523D02*
X183204819Y-103338095D01*
X183204819Y-103623809D02*
X182204819Y-103623809D01*
X182204819Y-103623809D02*
X182347676Y-103528571D01*
X182347676Y-103528571D02*
X182442914Y-103433333D01*
X182442914Y-103433333D02*
X182490533Y-103338095D01*
X182204819Y-104242857D02*
X182204819Y-104909523D01*
X182204819Y-104909523D02*
X183204819Y-104480952D01*
X147204819Y-68761905D02*
X146204819Y-68761905D01*
X146204819Y-68761905D02*
X146204819Y-69000000D01*
X146204819Y-69000000D02*
X146252438Y-69142857D01*
X146252438Y-69142857D02*
X146347676Y-69238095D01*
X146347676Y-69238095D02*
X146442914Y-69285714D01*
X146442914Y-69285714D02*
X146633390Y-69333333D01*
X146633390Y-69333333D02*
X146776247Y-69333333D01*
X146776247Y-69333333D02*
X146966723Y-69285714D01*
X146966723Y-69285714D02*
X147061961Y-69238095D01*
X147061961Y-69238095D02*
X147157200Y-69142857D01*
X147157200Y-69142857D02*
X147204819Y-69000000D01*
X147204819Y-69000000D02*
X147204819Y-68761905D01*
X146204819Y-69666667D02*
X146204819Y-70285714D01*
X146204819Y-70285714D02*
X146585771Y-69952381D01*
X146585771Y-69952381D02*
X146585771Y-70095238D01*
X146585771Y-70095238D02*
X146633390Y-70190476D01*
X146633390Y-70190476D02*
X146681009Y-70238095D01*
X146681009Y-70238095D02*
X146776247Y-70285714D01*
X146776247Y-70285714D02*
X147014342Y-70285714D01*
X147014342Y-70285714D02*
X147109580Y-70238095D01*
X147109580Y-70238095D02*
X147157200Y-70190476D01*
X147157200Y-70190476D02*
X147204819Y-70095238D01*
X147204819Y-70095238D02*
X147204819Y-69809524D01*
X147204819Y-69809524D02*
X147157200Y-69714286D01*
X147157200Y-69714286D02*
X147109580Y-69666667D01*
X183204819Y-85385714D02*
X182204819Y-85385714D01*
X182204819Y-85385714D02*
X182204819Y-85623809D01*
X182204819Y-85623809D02*
X182252438Y-85766666D01*
X182252438Y-85766666D02*
X182347676Y-85861904D01*
X182347676Y-85861904D02*
X182442914Y-85909523D01*
X182442914Y-85909523D02*
X182633390Y-85957142D01*
X182633390Y-85957142D02*
X182776247Y-85957142D01*
X182776247Y-85957142D02*
X182966723Y-85909523D01*
X182966723Y-85909523D02*
X183061961Y-85861904D01*
X183061961Y-85861904D02*
X183157200Y-85766666D01*
X183157200Y-85766666D02*
X183204819Y-85623809D01*
X183204819Y-85623809D02*
X183204819Y-85385714D01*
X183204819Y-86909523D02*
X183204819Y-86338095D01*
X183204819Y-86623809D02*
X182204819Y-86623809D01*
X182204819Y-86623809D02*
X182347676Y-86528571D01*
X182347676Y-86528571D02*
X182442914Y-86433333D01*
X182442914Y-86433333D02*
X182490533Y-86338095D01*
X183204819Y-87861904D02*
X183204819Y-87290476D01*
X183204819Y-87576190D02*
X182204819Y-87576190D01*
X182204819Y-87576190D02*
X182347676Y-87480952D01*
X182347676Y-87480952D02*
X182442914Y-87385714D01*
X182442914Y-87385714D02*
X182490533Y-87290476D01*
X183204819Y-68761905D02*
X182204819Y-68761905D01*
X182204819Y-68761905D02*
X182204819Y-69000000D01*
X182204819Y-69000000D02*
X182252438Y-69142857D01*
X182252438Y-69142857D02*
X182347676Y-69238095D01*
X182347676Y-69238095D02*
X182442914Y-69285714D01*
X182442914Y-69285714D02*
X182633390Y-69333333D01*
X182633390Y-69333333D02*
X182776247Y-69333333D01*
X182776247Y-69333333D02*
X182966723Y-69285714D01*
X182966723Y-69285714D02*
X183061961Y-69238095D01*
X183061961Y-69238095D02*
X183157200Y-69142857D01*
X183157200Y-69142857D02*
X183204819Y-69000000D01*
X183204819Y-69000000D02*
X183204819Y-68761905D01*
X182204819Y-70238095D02*
X182204819Y-69761905D01*
X182204819Y-69761905D02*
X182681009Y-69714286D01*
X182681009Y-69714286D02*
X182633390Y-69761905D01*
X182633390Y-69761905D02*
X182585771Y-69857143D01*
X182585771Y-69857143D02*
X182585771Y-70095238D01*
X182585771Y-70095238D02*
X182633390Y-70190476D01*
X182633390Y-70190476D02*
X182681009Y-70238095D01*
X182681009Y-70238095D02*
X182776247Y-70285714D01*
X182776247Y-70285714D02*
X183014342Y-70285714D01*
X183014342Y-70285714D02*
X183109580Y-70238095D01*
X183109580Y-70238095D02*
X183157200Y-70190476D01*
X183157200Y-70190476D02*
X183204819Y-70095238D01*
X183204819Y-70095238D02*
X183204819Y-69857143D01*
X183204819Y-69857143D02*
X183157200Y-69761905D01*
X183157200Y-69761905D02*
X183109580Y-69714286D01*
X201204819Y-85385714D02*
X200204819Y-85385714D01*
X200204819Y-85385714D02*
X200204819Y-85623809D01*
X200204819Y-85623809D02*
X200252438Y-85766666D01*
X200252438Y-85766666D02*
X200347676Y-85861904D01*
X200347676Y-85861904D02*
X200442914Y-85909523D01*
X200442914Y-85909523D02*
X200633390Y-85957142D01*
X200633390Y-85957142D02*
X200776247Y-85957142D01*
X200776247Y-85957142D02*
X200966723Y-85909523D01*
X200966723Y-85909523D02*
X201061961Y-85861904D01*
X201061961Y-85861904D02*
X201157200Y-85766666D01*
X201157200Y-85766666D02*
X201204819Y-85623809D01*
X201204819Y-85623809D02*
X201204819Y-85385714D01*
X201204819Y-86909523D02*
X201204819Y-86338095D01*
X201204819Y-86623809D02*
X200204819Y-86623809D01*
X200204819Y-86623809D02*
X200347676Y-86528571D01*
X200347676Y-86528571D02*
X200442914Y-86433333D01*
X200442914Y-86433333D02*
X200490533Y-86338095D01*
X200300057Y-87290476D02*
X200252438Y-87338095D01*
X200252438Y-87338095D02*
X200204819Y-87433333D01*
X200204819Y-87433333D02*
X200204819Y-87671428D01*
X200204819Y-87671428D02*
X200252438Y-87766666D01*
X200252438Y-87766666D02*
X200300057Y-87814285D01*
X200300057Y-87814285D02*
X200395295Y-87861904D01*
X200395295Y-87861904D02*
X200490533Y-87861904D01*
X200490533Y-87861904D02*
X200633390Y-87814285D01*
X200633390Y-87814285D02*
X201204819Y-87242857D01*
X201204819Y-87242857D02*
X201204819Y-87861904D01*
X201204819Y-119285714D02*
X200204819Y-119285714D01*
X200204819Y-119285714D02*
X200204819Y-119523809D01*
X200204819Y-119523809D02*
X200252438Y-119666666D01*
X200252438Y-119666666D02*
X200347676Y-119761904D01*
X200347676Y-119761904D02*
X200442914Y-119809523D01*
X200442914Y-119809523D02*
X200633390Y-119857142D01*
X200633390Y-119857142D02*
X200776247Y-119857142D01*
X200776247Y-119857142D02*
X200966723Y-119809523D01*
X200966723Y-119809523D02*
X201061961Y-119761904D01*
X201061961Y-119761904D02*
X201157200Y-119666666D01*
X201157200Y-119666666D02*
X201204819Y-119523809D01*
X201204819Y-119523809D02*
X201204819Y-119285714D01*
X200300057Y-120238095D02*
X200252438Y-120285714D01*
X200252438Y-120285714D02*
X200204819Y-120380952D01*
X200204819Y-120380952D02*
X200204819Y-120619047D01*
X200204819Y-120619047D02*
X200252438Y-120714285D01*
X200252438Y-120714285D02*
X200300057Y-120761904D01*
X200300057Y-120761904D02*
X200395295Y-120809523D01*
X200395295Y-120809523D02*
X200490533Y-120809523D01*
X200490533Y-120809523D02*
X200633390Y-120761904D01*
X200633390Y-120761904D02*
X201204819Y-120190476D01*
X201204819Y-120190476D02*
X201204819Y-120809523D01*
X200538152Y-121666666D02*
X201204819Y-121666666D01*
X200157200Y-121428571D02*
X200871485Y-121190476D01*
X200871485Y-121190476D02*
X200871485Y-121809523D01*
X111204819Y-136285714D02*
X110204819Y-136285714D01*
X110204819Y-136285714D02*
X110204819Y-136523809D01*
X110204819Y-136523809D02*
X110252438Y-136666666D01*
X110252438Y-136666666D02*
X110347676Y-136761904D01*
X110347676Y-136761904D02*
X110442914Y-136809523D01*
X110442914Y-136809523D02*
X110633390Y-136857142D01*
X110633390Y-136857142D02*
X110776247Y-136857142D01*
X110776247Y-136857142D02*
X110966723Y-136809523D01*
X110966723Y-136809523D02*
X111061961Y-136761904D01*
X111061961Y-136761904D02*
X111157200Y-136666666D01*
X111157200Y-136666666D02*
X111204819Y-136523809D01*
X111204819Y-136523809D02*
X111204819Y-136285714D01*
X110300057Y-137238095D02*
X110252438Y-137285714D01*
X110252438Y-137285714D02*
X110204819Y-137380952D01*
X110204819Y-137380952D02*
X110204819Y-137619047D01*
X110204819Y-137619047D02*
X110252438Y-137714285D01*
X110252438Y-137714285D02*
X110300057Y-137761904D01*
X110300057Y-137761904D02*
X110395295Y-137809523D01*
X110395295Y-137809523D02*
X110490533Y-137809523D01*
X110490533Y-137809523D02*
X110633390Y-137761904D01*
X110633390Y-137761904D02*
X111204819Y-137190476D01*
X111204819Y-137190476D02*
X111204819Y-137809523D01*
X110204819Y-138714285D02*
X110204819Y-138238095D01*
X110204819Y-138238095D02*
X110681009Y-138190476D01*
X110681009Y-138190476D02*
X110633390Y-138238095D01*
X110633390Y-138238095D02*
X110585771Y-138333333D01*
X110585771Y-138333333D02*
X110585771Y-138571428D01*
X110585771Y-138571428D02*
X110633390Y-138666666D01*
X110633390Y-138666666D02*
X110681009Y-138714285D01*
X110681009Y-138714285D02*
X110776247Y-138761904D01*
X110776247Y-138761904D02*
X111014342Y-138761904D01*
X111014342Y-138761904D02*
X111109580Y-138714285D01*
X111109580Y-138714285D02*
X111157200Y-138666666D01*
X111157200Y-138666666D02*
X111204819Y-138571428D01*
X111204819Y-138571428D02*
X111204819Y-138333333D01*
X111204819Y-138333333D02*
X111157200Y-138238095D01*
X111157200Y-138238095D02*
X111109580Y-138190476D01*
X165204819Y-68761905D02*
X164204819Y-68761905D01*
X164204819Y-68761905D02*
X164204819Y-69000000D01*
X164204819Y-69000000D02*
X164252438Y-69142857D01*
X164252438Y-69142857D02*
X164347676Y-69238095D01*
X164347676Y-69238095D02*
X164442914Y-69285714D01*
X164442914Y-69285714D02*
X164633390Y-69333333D01*
X164633390Y-69333333D02*
X164776247Y-69333333D01*
X164776247Y-69333333D02*
X164966723Y-69285714D01*
X164966723Y-69285714D02*
X165061961Y-69238095D01*
X165061961Y-69238095D02*
X165157200Y-69142857D01*
X165157200Y-69142857D02*
X165204819Y-69000000D01*
X165204819Y-69000000D02*
X165204819Y-68761905D01*
X164538152Y-70190476D02*
X165204819Y-70190476D01*
X164157200Y-69952381D02*
X164871485Y-69714286D01*
X164871485Y-69714286D02*
X164871485Y-70333333D01*
X201204819Y-136285714D02*
X200204819Y-136285714D01*
X200204819Y-136285714D02*
X200204819Y-136523809D01*
X200204819Y-136523809D02*
X200252438Y-136666666D01*
X200252438Y-136666666D02*
X200347676Y-136761904D01*
X200347676Y-136761904D02*
X200442914Y-136809523D01*
X200442914Y-136809523D02*
X200633390Y-136857142D01*
X200633390Y-136857142D02*
X200776247Y-136857142D01*
X200776247Y-136857142D02*
X200966723Y-136809523D01*
X200966723Y-136809523D02*
X201061961Y-136761904D01*
X201061961Y-136761904D02*
X201157200Y-136666666D01*
X201157200Y-136666666D02*
X201204819Y-136523809D01*
X201204819Y-136523809D02*
X201204819Y-136285714D01*
X200204819Y-137190476D02*
X200204819Y-137809523D01*
X200204819Y-137809523D02*
X200585771Y-137476190D01*
X200585771Y-137476190D02*
X200585771Y-137619047D01*
X200585771Y-137619047D02*
X200633390Y-137714285D01*
X200633390Y-137714285D02*
X200681009Y-137761904D01*
X200681009Y-137761904D02*
X200776247Y-137809523D01*
X200776247Y-137809523D02*
X201014342Y-137809523D01*
X201014342Y-137809523D02*
X201109580Y-137761904D01*
X201109580Y-137761904D02*
X201157200Y-137714285D01*
X201157200Y-137714285D02*
X201204819Y-137619047D01*
X201204819Y-137619047D02*
X201204819Y-137333333D01*
X201204819Y-137333333D02*
X201157200Y-137238095D01*
X201157200Y-137238095D02*
X201109580Y-137190476D01*
X200204819Y-138428571D02*
X200204819Y-138523809D01*
X200204819Y-138523809D02*
X200252438Y-138619047D01*
X200252438Y-138619047D02*
X200300057Y-138666666D01*
X200300057Y-138666666D02*
X200395295Y-138714285D01*
X200395295Y-138714285D02*
X200585771Y-138761904D01*
X200585771Y-138761904D02*
X200823866Y-138761904D01*
X200823866Y-138761904D02*
X201014342Y-138714285D01*
X201014342Y-138714285D02*
X201109580Y-138666666D01*
X201109580Y-138666666D02*
X201157200Y-138619047D01*
X201157200Y-138619047D02*
X201204819Y-138523809D01*
X201204819Y-138523809D02*
X201204819Y-138428571D01*
X201204819Y-138428571D02*
X201157200Y-138333333D01*
X201157200Y-138333333D02*
X201109580Y-138285714D01*
X201109580Y-138285714D02*
X201014342Y-138238095D01*
X201014342Y-138238095D02*
X200823866Y-138190476D01*
X200823866Y-138190476D02*
X200585771Y-138190476D01*
X200585771Y-138190476D02*
X200395295Y-138238095D01*
X200395295Y-138238095D02*
X200300057Y-138285714D01*
X200300057Y-138285714D02*
X200252438Y-138333333D01*
X200252438Y-138333333D02*
X200204819Y-138428571D01*
D10*
X141559523Y-142059800D02*
X141416666Y-142107419D01*
X141416666Y-142107419D02*
X141178571Y-142107419D01*
X141178571Y-142107419D02*
X141083333Y-142059800D01*
X141083333Y-142059800D02*
X141035714Y-142012180D01*
X141035714Y-142012180D02*
X140988095Y-141916942D01*
X140988095Y-141916942D02*
X140988095Y-141821704D01*
X140988095Y-141821704D02*
X141035714Y-141726466D01*
X141035714Y-141726466D02*
X141083333Y-141678847D01*
X141083333Y-141678847D02*
X141178571Y-141631228D01*
X141178571Y-141631228D02*
X141369047Y-141583609D01*
X141369047Y-141583609D02*
X141464285Y-141535990D01*
X141464285Y-141535990D02*
X141511904Y-141488371D01*
X141511904Y-141488371D02*
X141559523Y-141393133D01*
X141559523Y-141393133D02*
X141559523Y-141297895D01*
X141559523Y-141297895D02*
X141511904Y-141202657D01*
X141511904Y-141202657D02*
X141464285Y-141155038D01*
X141464285Y-141155038D02*
X141369047Y-141107419D01*
X141369047Y-141107419D02*
X141130952Y-141107419D01*
X141130952Y-141107419D02*
X140988095Y-141155038D01*
X140654761Y-141107419D02*
X140416666Y-142107419D01*
X140416666Y-142107419D02*
X140226190Y-141393133D01*
X140226190Y-141393133D02*
X140035714Y-142107419D01*
X140035714Y-142107419D02*
X139797619Y-141107419D01*
X139511904Y-141107419D02*
X138892857Y-141107419D01*
X138892857Y-141107419D02*
X139226190Y-141488371D01*
X139226190Y-141488371D02*
X139083333Y-141488371D01*
X139083333Y-141488371D02*
X138988095Y-141535990D01*
X138988095Y-141535990D02*
X138940476Y-141583609D01*
X138940476Y-141583609D02*
X138892857Y-141678847D01*
X138892857Y-141678847D02*
X138892857Y-141916942D01*
X138892857Y-141916942D02*
X138940476Y-142012180D01*
X138940476Y-142012180D02*
X138988095Y-142059800D01*
X138988095Y-142059800D02*
X139083333Y-142107419D01*
X139083333Y-142107419D02*
X139369047Y-142107419D01*
X139369047Y-142107419D02*
X139464285Y-142059800D01*
X139464285Y-142059800D02*
X139511904Y-142012180D01*
X138511904Y-141202657D02*
X138464285Y-141155038D01*
X138464285Y-141155038D02*
X138369047Y-141107419D01*
X138369047Y-141107419D02*
X138130952Y-141107419D01*
X138130952Y-141107419D02*
X138035714Y-141155038D01*
X138035714Y-141155038D02*
X137988095Y-141202657D01*
X137988095Y-141202657D02*
X137940476Y-141297895D01*
X137940476Y-141297895D02*
X137940476Y-141393133D01*
X137940476Y-141393133D02*
X137988095Y-141535990D01*
X137988095Y-141535990D02*
X138559523Y-142107419D01*
X138559523Y-142107419D02*
X137940476Y-142107419D01*
D11*
X111204819Y-68761905D02*
X110204819Y-68761905D01*
X110204819Y-68761905D02*
X110204819Y-69000000D01*
X110204819Y-69000000D02*
X110252438Y-69142857D01*
X110252438Y-69142857D02*
X110347676Y-69238095D01*
X110347676Y-69238095D02*
X110442914Y-69285714D01*
X110442914Y-69285714D02*
X110633390Y-69333333D01*
X110633390Y-69333333D02*
X110776247Y-69333333D01*
X110776247Y-69333333D02*
X110966723Y-69285714D01*
X110966723Y-69285714D02*
X111061961Y-69238095D01*
X111061961Y-69238095D02*
X111157200Y-69142857D01*
X111157200Y-69142857D02*
X111204819Y-69000000D01*
X111204819Y-69000000D02*
X111204819Y-68761905D01*
X111204819Y-70285714D02*
X111204819Y-69714286D01*
X111204819Y-70000000D02*
X110204819Y-70000000D01*
X110204819Y-70000000D02*
X110347676Y-69904762D01*
X110347676Y-69904762D02*
X110442914Y-69809524D01*
X110442914Y-69809524D02*
X110490533Y-69714286D01*
X147204819Y-102285714D02*
X146204819Y-102285714D01*
X146204819Y-102285714D02*
X146204819Y-102523809D01*
X146204819Y-102523809D02*
X146252438Y-102666666D01*
X146252438Y-102666666D02*
X146347676Y-102761904D01*
X146347676Y-102761904D02*
X146442914Y-102809523D01*
X146442914Y-102809523D02*
X146633390Y-102857142D01*
X146633390Y-102857142D02*
X146776247Y-102857142D01*
X146776247Y-102857142D02*
X146966723Y-102809523D01*
X146966723Y-102809523D02*
X147061961Y-102761904D01*
X147061961Y-102761904D02*
X147157200Y-102666666D01*
X147157200Y-102666666D02*
X147204819Y-102523809D01*
X147204819Y-102523809D02*
X147204819Y-102285714D01*
X147204819Y-103809523D02*
X147204819Y-103238095D01*
X147204819Y-103523809D02*
X146204819Y-103523809D01*
X146204819Y-103523809D02*
X146347676Y-103428571D01*
X146347676Y-103428571D02*
X146442914Y-103333333D01*
X146442914Y-103333333D02*
X146490533Y-103238095D01*
X146204819Y-104714285D02*
X146204819Y-104238095D01*
X146204819Y-104238095D02*
X146681009Y-104190476D01*
X146681009Y-104190476D02*
X146633390Y-104238095D01*
X146633390Y-104238095D02*
X146585771Y-104333333D01*
X146585771Y-104333333D02*
X146585771Y-104571428D01*
X146585771Y-104571428D02*
X146633390Y-104666666D01*
X146633390Y-104666666D02*
X146681009Y-104714285D01*
X146681009Y-104714285D02*
X146776247Y-104761904D01*
X146776247Y-104761904D02*
X147014342Y-104761904D01*
X147014342Y-104761904D02*
X147109580Y-104714285D01*
X147109580Y-104714285D02*
X147157200Y-104666666D01*
X147157200Y-104666666D02*
X147204819Y-104571428D01*
X147204819Y-104571428D02*
X147204819Y-104333333D01*
X147204819Y-104333333D02*
X147157200Y-104238095D01*
X147157200Y-104238095D02*
X147109580Y-104190476D01*
X129204819Y-102285714D02*
X128204819Y-102285714D01*
X128204819Y-102285714D02*
X128204819Y-102523809D01*
X128204819Y-102523809D02*
X128252438Y-102666666D01*
X128252438Y-102666666D02*
X128347676Y-102761904D01*
X128347676Y-102761904D02*
X128442914Y-102809523D01*
X128442914Y-102809523D02*
X128633390Y-102857142D01*
X128633390Y-102857142D02*
X128776247Y-102857142D01*
X128776247Y-102857142D02*
X128966723Y-102809523D01*
X128966723Y-102809523D02*
X129061961Y-102761904D01*
X129061961Y-102761904D02*
X129157200Y-102666666D01*
X129157200Y-102666666D02*
X129204819Y-102523809D01*
X129204819Y-102523809D02*
X129204819Y-102285714D01*
X129204819Y-103809523D02*
X129204819Y-103238095D01*
X129204819Y-103523809D02*
X128204819Y-103523809D01*
X128204819Y-103523809D02*
X128347676Y-103428571D01*
X128347676Y-103428571D02*
X128442914Y-103333333D01*
X128442914Y-103333333D02*
X128490533Y-103238095D01*
X128538152Y-104666666D02*
X129204819Y-104666666D01*
X128157200Y-104428571D02*
X128871485Y-104190476D01*
X128871485Y-104190476D02*
X128871485Y-104809523D01*
X147204819Y-85861905D02*
X146204819Y-85861905D01*
X146204819Y-85861905D02*
X146204819Y-86100000D01*
X146204819Y-86100000D02*
X146252438Y-86242857D01*
X146252438Y-86242857D02*
X146347676Y-86338095D01*
X146347676Y-86338095D02*
X146442914Y-86385714D01*
X146442914Y-86385714D02*
X146633390Y-86433333D01*
X146633390Y-86433333D02*
X146776247Y-86433333D01*
X146776247Y-86433333D02*
X146966723Y-86385714D01*
X146966723Y-86385714D02*
X147061961Y-86338095D01*
X147061961Y-86338095D02*
X147157200Y-86242857D01*
X147157200Y-86242857D02*
X147204819Y-86100000D01*
X147204819Y-86100000D02*
X147204819Y-85861905D01*
X147204819Y-86909524D02*
X147204819Y-87100000D01*
X147204819Y-87100000D02*
X147157200Y-87195238D01*
X147157200Y-87195238D02*
X147109580Y-87242857D01*
X147109580Y-87242857D02*
X146966723Y-87338095D01*
X146966723Y-87338095D02*
X146776247Y-87385714D01*
X146776247Y-87385714D02*
X146395295Y-87385714D01*
X146395295Y-87385714D02*
X146300057Y-87338095D01*
X146300057Y-87338095D02*
X146252438Y-87290476D01*
X146252438Y-87290476D02*
X146204819Y-87195238D01*
X146204819Y-87195238D02*
X146204819Y-87004762D01*
X146204819Y-87004762D02*
X146252438Y-86909524D01*
X146252438Y-86909524D02*
X146300057Y-86861905D01*
X146300057Y-86861905D02*
X146395295Y-86814286D01*
X146395295Y-86814286D02*
X146633390Y-86814286D01*
X146633390Y-86814286D02*
X146728628Y-86861905D01*
X146728628Y-86861905D02*
X146776247Y-86909524D01*
X146776247Y-86909524D02*
X146823866Y-87004762D01*
X146823866Y-87004762D02*
X146823866Y-87195238D01*
X146823866Y-87195238D02*
X146776247Y-87290476D01*
X146776247Y-87290476D02*
X146728628Y-87338095D01*
X146728628Y-87338095D02*
X146633390Y-87385714D01*
X129204819Y-85861905D02*
X128204819Y-85861905D01*
X128204819Y-85861905D02*
X128204819Y-86100000D01*
X128204819Y-86100000D02*
X128252438Y-86242857D01*
X128252438Y-86242857D02*
X128347676Y-86338095D01*
X128347676Y-86338095D02*
X128442914Y-86385714D01*
X128442914Y-86385714D02*
X128633390Y-86433333D01*
X128633390Y-86433333D02*
X128776247Y-86433333D01*
X128776247Y-86433333D02*
X128966723Y-86385714D01*
X128966723Y-86385714D02*
X129061961Y-86338095D01*
X129061961Y-86338095D02*
X129157200Y-86242857D01*
X129157200Y-86242857D02*
X129204819Y-86100000D01*
X129204819Y-86100000D02*
X129204819Y-85861905D01*
X128633390Y-87004762D02*
X128585771Y-86909524D01*
X128585771Y-86909524D02*
X128538152Y-86861905D01*
X128538152Y-86861905D02*
X128442914Y-86814286D01*
X128442914Y-86814286D02*
X128395295Y-86814286D01*
X128395295Y-86814286D02*
X128300057Y-86861905D01*
X128300057Y-86861905D02*
X128252438Y-86909524D01*
X128252438Y-86909524D02*
X128204819Y-87004762D01*
X128204819Y-87004762D02*
X128204819Y-87195238D01*
X128204819Y-87195238D02*
X128252438Y-87290476D01*
X128252438Y-87290476D02*
X128300057Y-87338095D01*
X128300057Y-87338095D02*
X128395295Y-87385714D01*
X128395295Y-87385714D02*
X128442914Y-87385714D01*
X128442914Y-87385714D02*
X128538152Y-87338095D01*
X128538152Y-87338095D02*
X128585771Y-87290476D01*
X128585771Y-87290476D02*
X128633390Y-87195238D01*
X128633390Y-87195238D02*
X128633390Y-87004762D01*
X128633390Y-87004762D02*
X128681009Y-86909524D01*
X128681009Y-86909524D02*
X128728628Y-86861905D01*
X128728628Y-86861905D02*
X128823866Y-86814286D01*
X128823866Y-86814286D02*
X129014342Y-86814286D01*
X129014342Y-86814286D02*
X129109580Y-86861905D01*
X129109580Y-86861905D02*
X129157200Y-86909524D01*
X129157200Y-86909524D02*
X129204819Y-87004762D01*
X129204819Y-87004762D02*
X129204819Y-87195238D01*
X129204819Y-87195238D02*
X129157200Y-87290476D01*
X129157200Y-87290476D02*
X129109580Y-87338095D01*
X129109580Y-87338095D02*
X129014342Y-87385714D01*
X129014342Y-87385714D02*
X128823866Y-87385714D01*
X128823866Y-87385714D02*
X128728628Y-87338095D01*
X128728628Y-87338095D02*
X128681009Y-87290476D01*
X128681009Y-87290476D02*
X128633390Y-87195238D01*
X165204819Y-136285714D02*
X164204819Y-136285714D01*
X164204819Y-136285714D02*
X164204819Y-136523809D01*
X164204819Y-136523809D02*
X164252438Y-136666666D01*
X164252438Y-136666666D02*
X164347676Y-136761904D01*
X164347676Y-136761904D02*
X164442914Y-136809523D01*
X164442914Y-136809523D02*
X164633390Y-136857142D01*
X164633390Y-136857142D02*
X164776247Y-136857142D01*
X164776247Y-136857142D02*
X164966723Y-136809523D01*
X164966723Y-136809523D02*
X165061961Y-136761904D01*
X165061961Y-136761904D02*
X165157200Y-136666666D01*
X165157200Y-136666666D02*
X165204819Y-136523809D01*
X165204819Y-136523809D02*
X165204819Y-136285714D01*
X164300057Y-137238095D02*
X164252438Y-137285714D01*
X164252438Y-137285714D02*
X164204819Y-137380952D01*
X164204819Y-137380952D02*
X164204819Y-137619047D01*
X164204819Y-137619047D02*
X164252438Y-137714285D01*
X164252438Y-137714285D02*
X164300057Y-137761904D01*
X164300057Y-137761904D02*
X164395295Y-137809523D01*
X164395295Y-137809523D02*
X164490533Y-137809523D01*
X164490533Y-137809523D02*
X164633390Y-137761904D01*
X164633390Y-137761904D02*
X165204819Y-137190476D01*
X165204819Y-137190476D02*
X165204819Y-137809523D01*
X164633390Y-138380952D02*
X164585771Y-138285714D01*
X164585771Y-138285714D02*
X164538152Y-138238095D01*
X164538152Y-138238095D02*
X164442914Y-138190476D01*
X164442914Y-138190476D02*
X164395295Y-138190476D01*
X164395295Y-138190476D02*
X164300057Y-138238095D01*
X164300057Y-138238095D02*
X164252438Y-138285714D01*
X164252438Y-138285714D02*
X164204819Y-138380952D01*
X164204819Y-138380952D02*
X164204819Y-138571428D01*
X164204819Y-138571428D02*
X164252438Y-138666666D01*
X164252438Y-138666666D02*
X164300057Y-138714285D01*
X164300057Y-138714285D02*
X164395295Y-138761904D01*
X164395295Y-138761904D02*
X164442914Y-138761904D01*
X164442914Y-138761904D02*
X164538152Y-138714285D01*
X164538152Y-138714285D02*
X164585771Y-138666666D01*
X164585771Y-138666666D02*
X164633390Y-138571428D01*
X164633390Y-138571428D02*
X164633390Y-138380952D01*
X164633390Y-138380952D02*
X164681009Y-138285714D01*
X164681009Y-138285714D02*
X164728628Y-138238095D01*
X164728628Y-138238095D02*
X164823866Y-138190476D01*
X164823866Y-138190476D02*
X165014342Y-138190476D01*
X165014342Y-138190476D02*
X165109580Y-138238095D01*
X165109580Y-138238095D02*
X165157200Y-138285714D01*
X165157200Y-138285714D02*
X165204819Y-138380952D01*
X165204819Y-138380952D02*
X165204819Y-138571428D01*
X165204819Y-138571428D02*
X165157200Y-138666666D01*
X165157200Y-138666666D02*
X165109580Y-138714285D01*
X165109580Y-138714285D02*
X165014342Y-138761904D01*
X165014342Y-138761904D02*
X164823866Y-138761904D01*
X164823866Y-138761904D02*
X164728628Y-138714285D01*
X164728628Y-138714285D02*
X164681009Y-138666666D01*
X164681009Y-138666666D02*
X164633390Y-138571428D01*
X147204819Y-136285714D02*
X146204819Y-136285714D01*
X146204819Y-136285714D02*
X146204819Y-136523809D01*
X146204819Y-136523809D02*
X146252438Y-136666666D01*
X146252438Y-136666666D02*
X146347676Y-136761904D01*
X146347676Y-136761904D02*
X146442914Y-136809523D01*
X146442914Y-136809523D02*
X146633390Y-136857142D01*
X146633390Y-136857142D02*
X146776247Y-136857142D01*
X146776247Y-136857142D02*
X146966723Y-136809523D01*
X146966723Y-136809523D02*
X147061961Y-136761904D01*
X147061961Y-136761904D02*
X147157200Y-136666666D01*
X147157200Y-136666666D02*
X147204819Y-136523809D01*
X147204819Y-136523809D02*
X147204819Y-136285714D01*
X146300057Y-137238095D02*
X146252438Y-137285714D01*
X146252438Y-137285714D02*
X146204819Y-137380952D01*
X146204819Y-137380952D02*
X146204819Y-137619047D01*
X146204819Y-137619047D02*
X146252438Y-137714285D01*
X146252438Y-137714285D02*
X146300057Y-137761904D01*
X146300057Y-137761904D02*
X146395295Y-137809523D01*
X146395295Y-137809523D02*
X146490533Y-137809523D01*
X146490533Y-137809523D02*
X146633390Y-137761904D01*
X146633390Y-137761904D02*
X147204819Y-137190476D01*
X147204819Y-137190476D02*
X147204819Y-137809523D01*
X146204819Y-138142857D02*
X146204819Y-138809523D01*
X146204819Y-138809523D02*
X147204819Y-138380952D01*
X129204819Y-68761905D02*
X128204819Y-68761905D01*
X128204819Y-68761905D02*
X128204819Y-69000000D01*
X128204819Y-69000000D02*
X128252438Y-69142857D01*
X128252438Y-69142857D02*
X128347676Y-69238095D01*
X128347676Y-69238095D02*
X128442914Y-69285714D01*
X128442914Y-69285714D02*
X128633390Y-69333333D01*
X128633390Y-69333333D02*
X128776247Y-69333333D01*
X128776247Y-69333333D02*
X128966723Y-69285714D01*
X128966723Y-69285714D02*
X129061961Y-69238095D01*
X129061961Y-69238095D02*
X129157200Y-69142857D01*
X129157200Y-69142857D02*
X129204819Y-69000000D01*
X129204819Y-69000000D02*
X129204819Y-68761905D01*
X128300057Y-69714286D02*
X128252438Y-69761905D01*
X128252438Y-69761905D02*
X128204819Y-69857143D01*
X128204819Y-69857143D02*
X128204819Y-70095238D01*
X128204819Y-70095238D02*
X128252438Y-70190476D01*
X128252438Y-70190476D02*
X128300057Y-70238095D01*
X128300057Y-70238095D02*
X128395295Y-70285714D01*
X128395295Y-70285714D02*
X128490533Y-70285714D01*
X128490533Y-70285714D02*
X128633390Y-70238095D01*
X128633390Y-70238095D02*
X129204819Y-69666667D01*
X129204819Y-69666667D02*
X129204819Y-70285714D01*
X165204819Y-102385714D02*
X164204819Y-102385714D01*
X164204819Y-102385714D02*
X164204819Y-102623809D01*
X164204819Y-102623809D02*
X164252438Y-102766666D01*
X164252438Y-102766666D02*
X164347676Y-102861904D01*
X164347676Y-102861904D02*
X164442914Y-102909523D01*
X164442914Y-102909523D02*
X164633390Y-102957142D01*
X164633390Y-102957142D02*
X164776247Y-102957142D01*
X164776247Y-102957142D02*
X164966723Y-102909523D01*
X164966723Y-102909523D02*
X165061961Y-102861904D01*
X165061961Y-102861904D02*
X165157200Y-102766666D01*
X165157200Y-102766666D02*
X165204819Y-102623809D01*
X165204819Y-102623809D02*
X165204819Y-102385714D01*
X165204819Y-103909523D02*
X165204819Y-103338095D01*
X165204819Y-103623809D02*
X164204819Y-103623809D01*
X164204819Y-103623809D02*
X164347676Y-103528571D01*
X164347676Y-103528571D02*
X164442914Y-103433333D01*
X164442914Y-103433333D02*
X164490533Y-103338095D01*
X164204819Y-104766666D02*
X164204819Y-104576190D01*
X164204819Y-104576190D02*
X164252438Y-104480952D01*
X164252438Y-104480952D02*
X164300057Y-104433333D01*
X164300057Y-104433333D02*
X164442914Y-104338095D01*
X164442914Y-104338095D02*
X164633390Y-104290476D01*
X164633390Y-104290476D02*
X165014342Y-104290476D01*
X165014342Y-104290476D02*
X165109580Y-104338095D01*
X165109580Y-104338095D02*
X165157200Y-104385714D01*
X165157200Y-104385714D02*
X165204819Y-104480952D01*
X165204819Y-104480952D02*
X165204819Y-104671428D01*
X165204819Y-104671428D02*
X165157200Y-104766666D01*
X165157200Y-104766666D02*
X165109580Y-104814285D01*
X165109580Y-104814285D02*
X165014342Y-104861904D01*
X165014342Y-104861904D02*
X164776247Y-104861904D01*
X164776247Y-104861904D02*
X164681009Y-104814285D01*
X164681009Y-104814285D02*
X164633390Y-104766666D01*
X164633390Y-104766666D02*
X164585771Y-104671428D01*
X164585771Y-104671428D02*
X164585771Y-104480952D01*
X164585771Y-104480952D02*
X164633390Y-104385714D01*
X164633390Y-104385714D02*
X164681009Y-104338095D01*
X164681009Y-104338095D02*
X164776247Y-104290476D01*
X193854819Y-143166666D02*
X194569104Y-143166666D01*
X194569104Y-143166666D02*
X194711961Y-143119047D01*
X194711961Y-143119047D02*
X194807200Y-143023809D01*
X194807200Y-143023809D02*
X194854819Y-142880952D01*
X194854819Y-142880952D02*
X194854819Y-142785714D01*
X194854819Y-144166666D02*
X194854819Y-143595238D01*
X194854819Y-143880952D02*
X193854819Y-143880952D01*
X193854819Y-143880952D02*
X193997676Y-143785714D01*
X193997676Y-143785714D02*
X194092914Y-143690476D01*
X194092914Y-143690476D02*
X194140533Y-143595238D01*
X183204819Y-119285714D02*
X182204819Y-119285714D01*
X182204819Y-119285714D02*
X182204819Y-119523809D01*
X182204819Y-119523809D02*
X182252438Y-119666666D01*
X182252438Y-119666666D02*
X182347676Y-119761904D01*
X182347676Y-119761904D02*
X182442914Y-119809523D01*
X182442914Y-119809523D02*
X182633390Y-119857142D01*
X182633390Y-119857142D02*
X182776247Y-119857142D01*
X182776247Y-119857142D02*
X182966723Y-119809523D01*
X182966723Y-119809523D02*
X183061961Y-119761904D01*
X183061961Y-119761904D02*
X183157200Y-119666666D01*
X183157200Y-119666666D02*
X183204819Y-119523809D01*
X183204819Y-119523809D02*
X183204819Y-119285714D01*
X182300057Y-120238095D02*
X182252438Y-120285714D01*
X182252438Y-120285714D02*
X182204819Y-120380952D01*
X182204819Y-120380952D02*
X182204819Y-120619047D01*
X182204819Y-120619047D02*
X182252438Y-120714285D01*
X182252438Y-120714285D02*
X182300057Y-120761904D01*
X182300057Y-120761904D02*
X182395295Y-120809523D01*
X182395295Y-120809523D02*
X182490533Y-120809523D01*
X182490533Y-120809523D02*
X182633390Y-120761904D01*
X182633390Y-120761904D02*
X183204819Y-120190476D01*
X183204819Y-120190476D02*
X183204819Y-120809523D01*
X182204819Y-121142857D02*
X182204819Y-121761904D01*
X182204819Y-121761904D02*
X182585771Y-121428571D01*
X182585771Y-121428571D02*
X182585771Y-121571428D01*
X182585771Y-121571428D02*
X182633390Y-121666666D01*
X182633390Y-121666666D02*
X182681009Y-121714285D01*
X182681009Y-121714285D02*
X182776247Y-121761904D01*
X182776247Y-121761904D02*
X183014342Y-121761904D01*
X183014342Y-121761904D02*
X183109580Y-121714285D01*
X183109580Y-121714285D02*
X183157200Y-121666666D01*
X183157200Y-121666666D02*
X183204819Y-121571428D01*
X183204819Y-121571428D02*
X183204819Y-121285714D01*
X183204819Y-121285714D02*
X183157200Y-121190476D01*
X183157200Y-121190476D02*
X183109580Y-121142857D01*
X165204819Y-85385714D02*
X164204819Y-85385714D01*
X164204819Y-85385714D02*
X164204819Y-85623809D01*
X164204819Y-85623809D02*
X164252438Y-85766666D01*
X164252438Y-85766666D02*
X164347676Y-85861904D01*
X164347676Y-85861904D02*
X164442914Y-85909523D01*
X164442914Y-85909523D02*
X164633390Y-85957142D01*
X164633390Y-85957142D02*
X164776247Y-85957142D01*
X164776247Y-85957142D02*
X164966723Y-85909523D01*
X164966723Y-85909523D02*
X165061961Y-85861904D01*
X165061961Y-85861904D02*
X165157200Y-85766666D01*
X165157200Y-85766666D02*
X165204819Y-85623809D01*
X165204819Y-85623809D02*
X165204819Y-85385714D01*
X165204819Y-86909523D02*
X165204819Y-86338095D01*
X165204819Y-86623809D02*
X164204819Y-86623809D01*
X164204819Y-86623809D02*
X164347676Y-86528571D01*
X164347676Y-86528571D02*
X164442914Y-86433333D01*
X164442914Y-86433333D02*
X164490533Y-86338095D01*
X164204819Y-87528571D02*
X164204819Y-87623809D01*
X164204819Y-87623809D02*
X164252438Y-87719047D01*
X164252438Y-87719047D02*
X164300057Y-87766666D01*
X164300057Y-87766666D02*
X164395295Y-87814285D01*
X164395295Y-87814285D02*
X164585771Y-87861904D01*
X164585771Y-87861904D02*
X164823866Y-87861904D01*
X164823866Y-87861904D02*
X165014342Y-87814285D01*
X165014342Y-87814285D02*
X165109580Y-87766666D01*
X165109580Y-87766666D02*
X165157200Y-87719047D01*
X165157200Y-87719047D02*
X165204819Y-87623809D01*
X165204819Y-87623809D02*
X165204819Y-87528571D01*
X165204819Y-87528571D02*
X165157200Y-87433333D01*
X165157200Y-87433333D02*
X165109580Y-87385714D01*
X165109580Y-87385714D02*
X165014342Y-87338095D01*
X165014342Y-87338095D02*
X164823866Y-87290476D01*
X164823866Y-87290476D02*
X164585771Y-87290476D01*
X164585771Y-87290476D02*
X164395295Y-87338095D01*
X164395295Y-87338095D02*
X164300057Y-87385714D01*
X164300057Y-87385714D02*
X164252438Y-87433333D01*
X164252438Y-87433333D02*
X164204819Y-87528571D01*
X183204819Y-136285714D02*
X182204819Y-136285714D01*
X182204819Y-136285714D02*
X182204819Y-136523809D01*
X182204819Y-136523809D02*
X182252438Y-136666666D01*
X182252438Y-136666666D02*
X182347676Y-136761904D01*
X182347676Y-136761904D02*
X182442914Y-136809523D01*
X182442914Y-136809523D02*
X182633390Y-136857142D01*
X182633390Y-136857142D02*
X182776247Y-136857142D01*
X182776247Y-136857142D02*
X182966723Y-136809523D01*
X182966723Y-136809523D02*
X183061961Y-136761904D01*
X183061961Y-136761904D02*
X183157200Y-136666666D01*
X183157200Y-136666666D02*
X183204819Y-136523809D01*
X183204819Y-136523809D02*
X183204819Y-136285714D01*
X182300057Y-137238095D02*
X182252438Y-137285714D01*
X182252438Y-137285714D02*
X182204819Y-137380952D01*
X182204819Y-137380952D02*
X182204819Y-137619047D01*
X182204819Y-137619047D02*
X182252438Y-137714285D01*
X182252438Y-137714285D02*
X182300057Y-137761904D01*
X182300057Y-137761904D02*
X182395295Y-137809523D01*
X182395295Y-137809523D02*
X182490533Y-137809523D01*
X182490533Y-137809523D02*
X182633390Y-137761904D01*
X182633390Y-137761904D02*
X183204819Y-137190476D01*
X183204819Y-137190476D02*
X183204819Y-137809523D01*
X183204819Y-138285714D02*
X183204819Y-138476190D01*
X183204819Y-138476190D02*
X183157200Y-138571428D01*
X183157200Y-138571428D02*
X183109580Y-138619047D01*
X183109580Y-138619047D02*
X182966723Y-138714285D01*
X182966723Y-138714285D02*
X182776247Y-138761904D01*
X182776247Y-138761904D02*
X182395295Y-138761904D01*
X182395295Y-138761904D02*
X182300057Y-138714285D01*
X182300057Y-138714285D02*
X182252438Y-138666666D01*
X182252438Y-138666666D02*
X182204819Y-138571428D01*
X182204819Y-138571428D02*
X182204819Y-138380952D01*
X182204819Y-138380952D02*
X182252438Y-138285714D01*
X182252438Y-138285714D02*
X182300057Y-138238095D01*
X182300057Y-138238095D02*
X182395295Y-138190476D01*
X182395295Y-138190476D02*
X182633390Y-138190476D01*
X182633390Y-138190476D02*
X182728628Y-138238095D01*
X182728628Y-138238095D02*
X182776247Y-138285714D01*
X182776247Y-138285714D02*
X182823866Y-138380952D01*
X182823866Y-138380952D02*
X182823866Y-138571428D01*
X182823866Y-138571428D02*
X182776247Y-138666666D01*
X182776247Y-138666666D02*
X182728628Y-138714285D01*
X182728628Y-138714285D02*
X182633390Y-138761904D01*
X147204819Y-119285714D02*
X146204819Y-119285714D01*
X146204819Y-119285714D02*
X146204819Y-119523809D01*
X146204819Y-119523809D02*
X146252438Y-119666666D01*
X146252438Y-119666666D02*
X146347676Y-119761904D01*
X146347676Y-119761904D02*
X146442914Y-119809523D01*
X146442914Y-119809523D02*
X146633390Y-119857142D01*
X146633390Y-119857142D02*
X146776247Y-119857142D01*
X146776247Y-119857142D02*
X146966723Y-119809523D01*
X146966723Y-119809523D02*
X147061961Y-119761904D01*
X147061961Y-119761904D02*
X147157200Y-119666666D01*
X147157200Y-119666666D02*
X147204819Y-119523809D01*
X147204819Y-119523809D02*
X147204819Y-119285714D01*
X146300057Y-120238095D02*
X146252438Y-120285714D01*
X146252438Y-120285714D02*
X146204819Y-120380952D01*
X146204819Y-120380952D02*
X146204819Y-120619047D01*
X146204819Y-120619047D02*
X146252438Y-120714285D01*
X146252438Y-120714285D02*
X146300057Y-120761904D01*
X146300057Y-120761904D02*
X146395295Y-120809523D01*
X146395295Y-120809523D02*
X146490533Y-120809523D01*
X146490533Y-120809523D02*
X146633390Y-120761904D01*
X146633390Y-120761904D02*
X147204819Y-120190476D01*
X147204819Y-120190476D02*
X147204819Y-120809523D01*
X147204819Y-121761904D02*
X147204819Y-121190476D01*
X147204819Y-121476190D02*
X146204819Y-121476190D01*
X146204819Y-121476190D02*
X146347676Y-121380952D01*
X146347676Y-121380952D02*
X146442914Y-121285714D01*
X146442914Y-121285714D02*
X146490533Y-121190476D01*
X129204819Y-136285714D02*
X128204819Y-136285714D01*
X128204819Y-136285714D02*
X128204819Y-136523809D01*
X128204819Y-136523809D02*
X128252438Y-136666666D01*
X128252438Y-136666666D02*
X128347676Y-136761904D01*
X128347676Y-136761904D02*
X128442914Y-136809523D01*
X128442914Y-136809523D02*
X128633390Y-136857142D01*
X128633390Y-136857142D02*
X128776247Y-136857142D01*
X128776247Y-136857142D02*
X128966723Y-136809523D01*
X128966723Y-136809523D02*
X129061961Y-136761904D01*
X129061961Y-136761904D02*
X129157200Y-136666666D01*
X129157200Y-136666666D02*
X129204819Y-136523809D01*
X129204819Y-136523809D02*
X129204819Y-136285714D01*
X128300057Y-137238095D02*
X128252438Y-137285714D01*
X128252438Y-137285714D02*
X128204819Y-137380952D01*
X128204819Y-137380952D02*
X128204819Y-137619047D01*
X128204819Y-137619047D02*
X128252438Y-137714285D01*
X128252438Y-137714285D02*
X128300057Y-137761904D01*
X128300057Y-137761904D02*
X128395295Y-137809523D01*
X128395295Y-137809523D02*
X128490533Y-137809523D01*
X128490533Y-137809523D02*
X128633390Y-137761904D01*
X128633390Y-137761904D02*
X129204819Y-137190476D01*
X129204819Y-137190476D02*
X129204819Y-137809523D01*
X128204819Y-138666666D02*
X128204819Y-138476190D01*
X128204819Y-138476190D02*
X128252438Y-138380952D01*
X128252438Y-138380952D02*
X128300057Y-138333333D01*
X128300057Y-138333333D02*
X128442914Y-138238095D01*
X128442914Y-138238095D02*
X128633390Y-138190476D01*
X128633390Y-138190476D02*
X129014342Y-138190476D01*
X129014342Y-138190476D02*
X129109580Y-138238095D01*
X129109580Y-138238095D02*
X129157200Y-138285714D01*
X129157200Y-138285714D02*
X129204819Y-138380952D01*
X129204819Y-138380952D02*
X129204819Y-138571428D01*
X129204819Y-138571428D02*
X129157200Y-138666666D01*
X129157200Y-138666666D02*
X129109580Y-138714285D01*
X129109580Y-138714285D02*
X129014342Y-138761904D01*
X129014342Y-138761904D02*
X128776247Y-138761904D01*
X128776247Y-138761904D02*
X128681009Y-138714285D01*
X128681009Y-138714285D02*
X128633390Y-138666666D01*
X128633390Y-138666666D02*
X128585771Y-138571428D01*
X128585771Y-138571428D02*
X128585771Y-138380952D01*
X128585771Y-138380952D02*
X128633390Y-138285714D01*
X128633390Y-138285714D02*
X128681009Y-138238095D01*
X128681009Y-138238095D02*
X128776247Y-138190476D01*
X111204819Y-102385714D02*
X110204819Y-102385714D01*
X110204819Y-102385714D02*
X110204819Y-102623809D01*
X110204819Y-102623809D02*
X110252438Y-102766666D01*
X110252438Y-102766666D02*
X110347676Y-102861904D01*
X110347676Y-102861904D02*
X110442914Y-102909523D01*
X110442914Y-102909523D02*
X110633390Y-102957142D01*
X110633390Y-102957142D02*
X110776247Y-102957142D01*
X110776247Y-102957142D02*
X110966723Y-102909523D01*
X110966723Y-102909523D02*
X111061961Y-102861904D01*
X111061961Y-102861904D02*
X111157200Y-102766666D01*
X111157200Y-102766666D02*
X111204819Y-102623809D01*
X111204819Y-102623809D02*
X111204819Y-102385714D01*
X111204819Y-103909523D02*
X111204819Y-103338095D01*
X111204819Y-103623809D02*
X110204819Y-103623809D01*
X110204819Y-103623809D02*
X110347676Y-103528571D01*
X110347676Y-103528571D02*
X110442914Y-103433333D01*
X110442914Y-103433333D02*
X110490533Y-103338095D01*
X110204819Y-104242857D02*
X110204819Y-104861904D01*
X110204819Y-104861904D02*
X110585771Y-104528571D01*
X110585771Y-104528571D02*
X110585771Y-104671428D01*
X110585771Y-104671428D02*
X110633390Y-104766666D01*
X110633390Y-104766666D02*
X110681009Y-104814285D01*
X110681009Y-104814285D02*
X110776247Y-104861904D01*
X110776247Y-104861904D02*
X111014342Y-104861904D01*
X111014342Y-104861904D02*
X111109580Y-104814285D01*
X111109580Y-104814285D02*
X111157200Y-104766666D01*
X111157200Y-104766666D02*
X111204819Y-104671428D01*
X111204819Y-104671428D02*
X111204819Y-104385714D01*
X111204819Y-104385714D02*
X111157200Y-104290476D01*
X111157200Y-104290476D02*
X111109580Y-104242857D01*
X201204819Y-102285714D02*
X200204819Y-102285714D01*
X200204819Y-102285714D02*
X200204819Y-102523809D01*
X200204819Y-102523809D02*
X200252438Y-102666666D01*
X200252438Y-102666666D02*
X200347676Y-102761904D01*
X200347676Y-102761904D02*
X200442914Y-102809523D01*
X200442914Y-102809523D02*
X200633390Y-102857142D01*
X200633390Y-102857142D02*
X200776247Y-102857142D01*
X200776247Y-102857142D02*
X200966723Y-102809523D01*
X200966723Y-102809523D02*
X201061961Y-102761904D01*
X201061961Y-102761904D02*
X201157200Y-102666666D01*
X201157200Y-102666666D02*
X201204819Y-102523809D01*
X201204819Y-102523809D02*
X201204819Y-102285714D01*
X201204819Y-103809523D02*
X201204819Y-103238095D01*
X201204819Y-103523809D02*
X200204819Y-103523809D01*
X200204819Y-103523809D02*
X200347676Y-103428571D01*
X200347676Y-103428571D02*
X200442914Y-103333333D01*
X200442914Y-103333333D02*
X200490533Y-103238095D01*
X200633390Y-104380952D02*
X200585771Y-104285714D01*
X200585771Y-104285714D02*
X200538152Y-104238095D01*
X200538152Y-104238095D02*
X200442914Y-104190476D01*
X200442914Y-104190476D02*
X200395295Y-104190476D01*
X200395295Y-104190476D02*
X200300057Y-104238095D01*
X200300057Y-104238095D02*
X200252438Y-104285714D01*
X200252438Y-104285714D02*
X200204819Y-104380952D01*
X200204819Y-104380952D02*
X200204819Y-104571428D01*
X200204819Y-104571428D02*
X200252438Y-104666666D01*
X200252438Y-104666666D02*
X200300057Y-104714285D01*
X200300057Y-104714285D02*
X200395295Y-104761904D01*
X200395295Y-104761904D02*
X200442914Y-104761904D01*
X200442914Y-104761904D02*
X200538152Y-104714285D01*
X200538152Y-104714285D02*
X200585771Y-104666666D01*
X200585771Y-104666666D02*
X200633390Y-104571428D01*
X200633390Y-104571428D02*
X200633390Y-104380952D01*
X200633390Y-104380952D02*
X200681009Y-104285714D01*
X200681009Y-104285714D02*
X200728628Y-104238095D01*
X200728628Y-104238095D02*
X200823866Y-104190476D01*
X200823866Y-104190476D02*
X201014342Y-104190476D01*
X201014342Y-104190476D02*
X201109580Y-104238095D01*
X201109580Y-104238095D02*
X201157200Y-104285714D01*
X201157200Y-104285714D02*
X201204819Y-104380952D01*
X201204819Y-104380952D02*
X201204819Y-104571428D01*
X201204819Y-104571428D02*
X201157200Y-104666666D01*
X201157200Y-104666666D02*
X201109580Y-104714285D01*
X201109580Y-104714285D02*
X201014342Y-104761904D01*
X201014342Y-104761904D02*
X200823866Y-104761904D01*
X200823866Y-104761904D02*
X200728628Y-104714285D01*
X200728628Y-104714285D02*
X200681009Y-104666666D01*
X200681009Y-104666666D02*
X200633390Y-104571428D01*
X201204819Y-68761905D02*
X200204819Y-68761905D01*
X200204819Y-68761905D02*
X200204819Y-69000000D01*
X200204819Y-69000000D02*
X200252438Y-69142857D01*
X200252438Y-69142857D02*
X200347676Y-69238095D01*
X200347676Y-69238095D02*
X200442914Y-69285714D01*
X200442914Y-69285714D02*
X200633390Y-69333333D01*
X200633390Y-69333333D02*
X200776247Y-69333333D01*
X200776247Y-69333333D02*
X200966723Y-69285714D01*
X200966723Y-69285714D02*
X201061961Y-69238095D01*
X201061961Y-69238095D02*
X201157200Y-69142857D01*
X201157200Y-69142857D02*
X201204819Y-69000000D01*
X201204819Y-69000000D02*
X201204819Y-68761905D01*
X200204819Y-70190476D02*
X200204819Y-70000000D01*
X200204819Y-70000000D02*
X200252438Y-69904762D01*
X200252438Y-69904762D02*
X200300057Y-69857143D01*
X200300057Y-69857143D02*
X200442914Y-69761905D01*
X200442914Y-69761905D02*
X200633390Y-69714286D01*
X200633390Y-69714286D02*
X201014342Y-69714286D01*
X201014342Y-69714286D02*
X201109580Y-69761905D01*
X201109580Y-69761905D02*
X201157200Y-69809524D01*
X201157200Y-69809524D02*
X201204819Y-69904762D01*
X201204819Y-69904762D02*
X201204819Y-70095238D01*
X201204819Y-70095238D02*
X201157200Y-70190476D01*
X201157200Y-70190476D02*
X201109580Y-70238095D01*
X201109580Y-70238095D02*
X201014342Y-70285714D01*
X201014342Y-70285714D02*
X200776247Y-70285714D01*
X200776247Y-70285714D02*
X200681009Y-70238095D01*
X200681009Y-70238095D02*
X200633390Y-70190476D01*
X200633390Y-70190476D02*
X200585771Y-70095238D01*
X200585771Y-70095238D02*
X200585771Y-69904762D01*
X200585771Y-69904762D02*
X200633390Y-69809524D01*
X200633390Y-69809524D02*
X200681009Y-69761905D01*
X200681009Y-69761905D02*
X200776247Y-69714286D01*
X111204819Y-119435714D02*
X110204819Y-119435714D01*
X110204819Y-119435714D02*
X110204819Y-119673809D01*
X110204819Y-119673809D02*
X110252438Y-119816666D01*
X110252438Y-119816666D02*
X110347676Y-119911904D01*
X110347676Y-119911904D02*
X110442914Y-119959523D01*
X110442914Y-119959523D02*
X110633390Y-120007142D01*
X110633390Y-120007142D02*
X110776247Y-120007142D01*
X110776247Y-120007142D02*
X110966723Y-119959523D01*
X110966723Y-119959523D02*
X111061961Y-119911904D01*
X111061961Y-119911904D02*
X111157200Y-119816666D01*
X111157200Y-119816666D02*
X111204819Y-119673809D01*
X111204819Y-119673809D02*
X111204819Y-119435714D01*
X111204819Y-120959523D02*
X111204819Y-120388095D01*
X111204819Y-120673809D02*
X110204819Y-120673809D01*
X110204819Y-120673809D02*
X110347676Y-120578571D01*
X110347676Y-120578571D02*
X110442914Y-120483333D01*
X110442914Y-120483333D02*
X110490533Y-120388095D01*
X111204819Y-121435714D02*
X111204819Y-121626190D01*
X111204819Y-121626190D02*
X111157200Y-121721428D01*
X111157200Y-121721428D02*
X111109580Y-121769047D01*
X111109580Y-121769047D02*
X110966723Y-121864285D01*
X110966723Y-121864285D02*
X110776247Y-121911904D01*
X110776247Y-121911904D02*
X110395295Y-121911904D01*
X110395295Y-121911904D02*
X110300057Y-121864285D01*
X110300057Y-121864285D02*
X110252438Y-121816666D01*
X110252438Y-121816666D02*
X110204819Y-121721428D01*
X110204819Y-121721428D02*
X110204819Y-121530952D01*
X110204819Y-121530952D02*
X110252438Y-121435714D01*
X110252438Y-121435714D02*
X110300057Y-121388095D01*
X110300057Y-121388095D02*
X110395295Y-121340476D01*
X110395295Y-121340476D02*
X110633390Y-121340476D01*
X110633390Y-121340476D02*
X110728628Y-121388095D01*
X110728628Y-121388095D02*
X110776247Y-121435714D01*
X110776247Y-121435714D02*
X110823866Y-121530952D01*
X110823866Y-121530952D02*
X110823866Y-121721428D01*
X110823866Y-121721428D02*
X110776247Y-121816666D01*
X110776247Y-121816666D02*
X110728628Y-121864285D01*
X110728628Y-121864285D02*
X110633390Y-121911904D01*
D12*
X169334000Y-61591000D02*
X170271000Y-60654000D01*
X170271000Y-60654000D02*
X173018000Y-60654000D01*
X170271000Y-65446000D02*
X169250000Y-64425000D01*
X172918000Y-65446000D02*
X170271000Y-65446000D01*
X173018000Y-60654000D02*
X173421000Y-60734000D01*
X173421000Y-60734000D02*
X173763000Y-60963000D01*
X173480000Y-65551000D02*
X172918000Y-65446000D01*
X173763000Y-60963000D02*
X174296000Y-61496000D01*
X173959000Y-65850000D02*
X173480000Y-65551000D01*
X174296000Y-61496000D02*
X174296000Y-61718000D01*
X174296000Y-61718000D02*
X174383000Y-62156000D01*
X174297000Y-66303000D02*
X173959000Y-65850000D01*
X174383000Y-62156000D02*
X174627000Y-62523000D01*
X174451000Y-66861000D02*
X174297000Y-66303000D01*
X174533000Y-67159000D02*
X174451000Y-66861000D01*
X174627000Y-62523000D02*
X174994000Y-62767000D01*
X174726000Y-67417000D02*
X174533000Y-67159000D01*
X174994000Y-62767000D02*
X175432000Y-62854000D01*
X175000000Y-67587000D02*
X174726000Y-67417000D01*
X175310000Y-67646000D02*
X175000000Y-67587000D01*
X175432000Y-62854000D02*
X178232000Y-62854000D01*
X178232000Y-62854000D02*
X178559000Y-62919000D01*
X178559000Y-62919000D02*
X178842000Y-63108000D01*
X178842000Y-63108000D02*
X179031000Y-63391000D01*
X179031000Y-63391000D02*
X179116000Y-63818000D01*
X179033000Y-66704000D02*
X179396000Y-66704000D01*
X179396000Y-66704000D02*
X179396000Y-67646000D01*
X179396000Y-67646000D02*
X175310000Y-67646000D01*
X115334000Y-112591000D02*
X116271000Y-111654000D01*
X116271000Y-111654000D02*
X119018000Y-111654000D01*
X116271000Y-116446000D02*
X115250000Y-115425000D01*
X118918000Y-116446000D02*
X116271000Y-116446000D01*
X119018000Y-111654000D02*
X119421000Y-111734000D01*
X119421000Y-111734000D02*
X119763000Y-111963000D01*
X119480000Y-116551000D02*
X118918000Y-116446000D01*
X119763000Y-111963000D02*
X120296000Y-112496000D01*
X119959000Y-116850000D02*
X119480000Y-116551000D01*
X120296000Y-112496000D02*
X120296000Y-112718000D01*
X120296000Y-112718000D02*
X120383000Y-113156000D01*
X120297000Y-117303000D02*
X119959000Y-116850000D01*
X120383000Y-113156000D02*
X120627000Y-113523000D01*
X120451000Y-117861000D02*
X120297000Y-117303000D01*
X120533000Y-118159000D02*
X120451000Y-117861000D01*
X120627000Y-113523000D02*
X120994000Y-113767000D01*
X120726000Y-118417000D02*
X120533000Y-118159000D01*
X120994000Y-113767000D02*
X121432000Y-113854000D01*
X121000000Y-118587000D02*
X120726000Y-118417000D01*
X121310000Y-118646000D02*
X121000000Y-118587000D01*
X121432000Y-113854000D02*
X124232000Y-113854000D01*
X124232000Y-113854000D02*
X124559000Y-113919000D01*
X124559000Y-113919000D02*
X124842000Y-114108000D01*
X124842000Y-114108000D02*
X125031000Y-114391000D01*
X125031000Y-114391000D02*
X125116000Y-114818000D01*
X125033000Y-117704000D02*
X125396000Y-117704000D01*
X125396000Y-117704000D02*
X125396000Y-118646000D01*
X125396000Y-118646000D02*
X121310000Y-118646000D01*
X97334000Y-61591000D02*
X98271000Y-60654000D01*
X98271000Y-60654000D02*
X101018000Y-60654000D01*
X98271000Y-65446000D02*
X97250000Y-64425000D01*
X100918000Y-65446000D02*
X98271000Y-65446000D01*
X101018000Y-60654000D02*
X101421000Y-60734000D01*
X101421000Y-60734000D02*
X101763000Y-60963000D01*
X101480000Y-65551000D02*
X100918000Y-65446000D01*
X101763000Y-60963000D02*
X102296000Y-61496000D01*
X101959000Y-65850000D02*
X101480000Y-65551000D01*
X102296000Y-61496000D02*
X102296000Y-61718000D01*
X102296000Y-61718000D02*
X102383000Y-62156000D01*
X102297000Y-66303000D02*
X101959000Y-65850000D01*
X102383000Y-62156000D02*
X102627000Y-62523000D01*
X102451000Y-66861000D02*
X102297000Y-66303000D01*
X102533000Y-67159000D02*
X102451000Y-66861000D01*
X102627000Y-62523000D02*
X102994000Y-62767000D01*
X102726000Y-67417000D02*
X102533000Y-67159000D01*
X102994000Y-62767000D02*
X103432000Y-62854000D01*
X103000000Y-67587000D02*
X102726000Y-67417000D01*
X103310000Y-67646000D02*
X103000000Y-67587000D01*
X103432000Y-62854000D02*
X106232000Y-62854000D01*
X106232000Y-62854000D02*
X106559000Y-62919000D01*
X106559000Y-62919000D02*
X106842000Y-63108000D01*
X106842000Y-63108000D02*
X107031000Y-63391000D01*
X107031000Y-63391000D02*
X107116000Y-63818000D01*
X107033000Y-66704000D02*
X107396000Y-66704000D01*
X107396000Y-66704000D02*
X107396000Y-67646000D01*
X107396000Y-67646000D02*
X103310000Y-67646000D01*
X151334000Y-78591000D02*
X152271000Y-77654000D01*
X152271000Y-77654000D02*
X155018000Y-77654000D01*
X152271000Y-82446000D02*
X151250000Y-81425000D01*
X154918000Y-82446000D02*
X152271000Y-82446000D01*
X155018000Y-77654000D02*
X155421000Y-77734000D01*
X155421000Y-77734000D02*
X155763000Y-77963000D01*
X155480000Y-82551000D02*
X154918000Y-82446000D01*
X155763000Y-77963000D02*
X156296000Y-78496000D01*
X155959000Y-82850000D02*
X155480000Y-82551000D01*
X156296000Y-78496000D02*
X156296000Y-78718000D01*
X156296000Y-78718000D02*
X156383000Y-79156000D01*
X156297000Y-83303000D02*
X155959000Y-82850000D01*
X156383000Y-79156000D02*
X156627000Y-79523000D01*
X156451000Y-83861000D02*
X156297000Y-83303000D01*
X156533000Y-84159000D02*
X156451000Y-83861000D01*
X156627000Y-79523000D02*
X156994000Y-79767000D01*
X156726000Y-84417000D02*
X156533000Y-84159000D01*
X156994000Y-79767000D02*
X157432000Y-79854000D01*
X157000000Y-84587000D02*
X156726000Y-84417000D01*
X157310000Y-84646000D02*
X157000000Y-84587000D01*
X157432000Y-79854000D02*
X160232000Y-79854000D01*
X160232000Y-79854000D02*
X160559000Y-79919000D01*
X160559000Y-79919000D02*
X160842000Y-80108000D01*
X160842000Y-80108000D02*
X161031000Y-80391000D01*
X161031000Y-80391000D02*
X161116000Y-80818000D01*
X161033000Y-83704000D02*
X161396000Y-83704000D01*
X161396000Y-83704000D02*
X161396000Y-84646000D01*
X161396000Y-84646000D02*
X157310000Y-84646000D01*
X115334000Y-95591000D02*
X116271000Y-94654000D01*
X116271000Y-94654000D02*
X119018000Y-94654000D01*
X116271000Y-99446000D02*
X115250000Y-98425000D01*
X118918000Y-99446000D02*
X116271000Y-99446000D01*
X119018000Y-94654000D02*
X119421000Y-94734000D01*
X119421000Y-94734000D02*
X119763000Y-94963000D01*
X119480000Y-99551000D02*
X118918000Y-99446000D01*
X119763000Y-94963000D02*
X120296000Y-95496000D01*
X119959000Y-99850000D02*
X119480000Y-99551000D01*
X120296000Y-95496000D02*
X120296000Y-95718000D01*
X120296000Y-95718000D02*
X120383000Y-96156000D01*
X120297000Y-100303000D02*
X119959000Y-99850000D01*
X120383000Y-96156000D02*
X120627000Y-96523000D01*
X120451000Y-100861000D02*
X120297000Y-100303000D01*
X120533000Y-101159000D02*
X120451000Y-100861000D01*
X120627000Y-96523000D02*
X120994000Y-96767000D01*
X120726000Y-101417000D02*
X120533000Y-101159000D01*
X120994000Y-96767000D02*
X121432000Y-96854000D01*
X121000000Y-101587000D02*
X120726000Y-101417000D01*
X121310000Y-101646000D02*
X121000000Y-101587000D01*
X121432000Y-96854000D02*
X124232000Y-96854000D01*
X124232000Y-96854000D02*
X124559000Y-96919000D01*
X124559000Y-96919000D02*
X124842000Y-97108000D01*
X124842000Y-97108000D02*
X125031000Y-97391000D01*
X125031000Y-97391000D02*
X125116000Y-97818000D01*
X125033000Y-100704000D02*
X125396000Y-100704000D01*
X125396000Y-100704000D02*
X125396000Y-101646000D01*
X125396000Y-101646000D02*
X121310000Y-101646000D01*
X169334000Y-78591000D02*
X170271000Y-77654000D01*
X170271000Y-77654000D02*
X173018000Y-77654000D01*
X170271000Y-82446000D02*
X169250000Y-81425000D01*
X172918000Y-82446000D02*
X170271000Y-82446000D01*
X173018000Y-77654000D02*
X173421000Y-77734000D01*
X173421000Y-77734000D02*
X173763000Y-77963000D01*
X173480000Y-82551000D02*
X172918000Y-82446000D01*
X173763000Y-77963000D02*
X174296000Y-78496000D01*
X173959000Y-82850000D02*
X173480000Y-82551000D01*
X174296000Y-78496000D02*
X174296000Y-78718000D01*
X174296000Y-78718000D02*
X174383000Y-79156000D01*
X174297000Y-83303000D02*
X173959000Y-82850000D01*
X174383000Y-79156000D02*
X174627000Y-79523000D01*
X174451000Y-83861000D02*
X174297000Y-83303000D01*
X174533000Y-84159000D02*
X174451000Y-83861000D01*
X174627000Y-79523000D02*
X174994000Y-79767000D01*
X174726000Y-84417000D02*
X174533000Y-84159000D01*
X174994000Y-79767000D02*
X175432000Y-79854000D01*
X175000000Y-84587000D02*
X174726000Y-84417000D01*
X175310000Y-84646000D02*
X175000000Y-84587000D01*
X175432000Y-79854000D02*
X178232000Y-79854000D01*
X178232000Y-79854000D02*
X178559000Y-79919000D01*
X178559000Y-79919000D02*
X178842000Y-80108000D01*
X178842000Y-80108000D02*
X179031000Y-80391000D01*
X179031000Y-80391000D02*
X179116000Y-80818000D01*
X179033000Y-83704000D02*
X179396000Y-83704000D01*
X179396000Y-83704000D02*
X179396000Y-84646000D01*
X179396000Y-84646000D02*
X175310000Y-84646000D01*
X169334000Y-95591000D02*
X170271000Y-94654000D01*
X170271000Y-94654000D02*
X173018000Y-94654000D01*
X170271000Y-99446000D02*
X169250000Y-98425000D01*
X172918000Y-99446000D02*
X170271000Y-99446000D01*
X173018000Y-94654000D02*
X173421000Y-94734000D01*
X173421000Y-94734000D02*
X173763000Y-94963000D01*
X173480000Y-99551000D02*
X172918000Y-99446000D01*
X173763000Y-94963000D02*
X174296000Y-95496000D01*
X173959000Y-99850000D02*
X173480000Y-99551000D01*
X174296000Y-95496000D02*
X174296000Y-95718000D01*
X174296000Y-95718000D02*
X174383000Y-96156000D01*
X174297000Y-100303000D02*
X173959000Y-99850000D01*
X174383000Y-96156000D02*
X174627000Y-96523000D01*
X174451000Y-100861000D02*
X174297000Y-100303000D01*
X174533000Y-101159000D02*
X174451000Y-100861000D01*
X174627000Y-96523000D02*
X174994000Y-96767000D01*
X174726000Y-101417000D02*
X174533000Y-101159000D01*
X174994000Y-96767000D02*
X175432000Y-96854000D01*
X175000000Y-101587000D02*
X174726000Y-101417000D01*
X175310000Y-101646000D02*
X175000000Y-101587000D01*
X175432000Y-96854000D02*
X178232000Y-96854000D01*
X178232000Y-96854000D02*
X178559000Y-96919000D01*
X178559000Y-96919000D02*
X178842000Y-97108000D01*
X178842000Y-97108000D02*
X179031000Y-97391000D01*
X179031000Y-97391000D02*
X179116000Y-97818000D01*
X179033000Y-100704000D02*
X179396000Y-100704000D01*
X179396000Y-100704000D02*
X179396000Y-101646000D01*
X179396000Y-101646000D02*
X175310000Y-101646000D01*
X133334000Y-78591000D02*
X134271000Y-77654000D01*
X134271000Y-77654000D02*
X137018000Y-77654000D01*
X134271000Y-82446000D02*
X133250000Y-81425000D01*
X136918000Y-82446000D02*
X134271000Y-82446000D01*
X137018000Y-77654000D02*
X137421000Y-77734000D01*
X137421000Y-77734000D02*
X137763000Y-77963000D01*
X137480000Y-82551000D02*
X136918000Y-82446000D01*
X137763000Y-77963000D02*
X138296000Y-78496000D01*
X137959000Y-82850000D02*
X137480000Y-82551000D01*
X138296000Y-78496000D02*
X138296000Y-78718000D01*
X138296000Y-78718000D02*
X138383000Y-79156000D01*
X138297000Y-83303000D02*
X137959000Y-82850000D01*
X138383000Y-79156000D02*
X138627000Y-79523000D01*
X138451000Y-83861000D02*
X138297000Y-83303000D01*
X138533000Y-84159000D02*
X138451000Y-83861000D01*
X138627000Y-79523000D02*
X138994000Y-79767000D01*
X138726000Y-84417000D02*
X138533000Y-84159000D01*
X138994000Y-79767000D02*
X139432000Y-79854000D01*
X139000000Y-84587000D02*
X138726000Y-84417000D01*
X139310000Y-84646000D02*
X139000000Y-84587000D01*
X139432000Y-79854000D02*
X142232000Y-79854000D01*
X142232000Y-79854000D02*
X142559000Y-79919000D01*
X142559000Y-79919000D02*
X142842000Y-80108000D01*
X142842000Y-80108000D02*
X143031000Y-80391000D01*
X143031000Y-80391000D02*
X143116000Y-80818000D01*
X143033000Y-83704000D02*
X143396000Y-83704000D01*
X143396000Y-83704000D02*
X143396000Y-84646000D01*
X143396000Y-84646000D02*
X139310000Y-84646000D01*
X151334000Y-129591000D02*
X152271000Y-128654000D01*
X152271000Y-128654000D02*
X155018000Y-128654000D01*
X152271000Y-133446000D02*
X151250000Y-132425000D01*
X154918000Y-133446000D02*
X152271000Y-133446000D01*
X155018000Y-128654000D02*
X155421000Y-128734000D01*
X155421000Y-128734000D02*
X155763000Y-128963000D01*
X155480000Y-133551000D02*
X154918000Y-133446000D01*
X155763000Y-128963000D02*
X156296000Y-129496000D01*
X155959000Y-133850000D02*
X155480000Y-133551000D01*
X156296000Y-129496000D02*
X156296000Y-129718000D01*
X156296000Y-129718000D02*
X156383000Y-130156000D01*
X156297000Y-134303000D02*
X155959000Y-133850000D01*
X156383000Y-130156000D02*
X156627000Y-130523000D01*
X156451000Y-134861000D02*
X156297000Y-134303000D01*
X156533000Y-135159000D02*
X156451000Y-134861000D01*
X156627000Y-130523000D02*
X156994000Y-130767000D01*
X156726000Y-135417000D02*
X156533000Y-135159000D01*
X156994000Y-130767000D02*
X157432000Y-130854000D01*
X157000000Y-135587000D02*
X156726000Y-135417000D01*
X157310000Y-135646000D02*
X157000000Y-135587000D01*
X157432000Y-130854000D02*
X160232000Y-130854000D01*
X160232000Y-130854000D02*
X160559000Y-130919000D01*
X160559000Y-130919000D02*
X160842000Y-131108000D01*
X160842000Y-131108000D02*
X161031000Y-131391000D01*
X161031000Y-131391000D02*
X161116000Y-131818000D01*
X161033000Y-134704000D02*
X161396000Y-134704000D01*
X161396000Y-134704000D02*
X161396000Y-135646000D01*
X161396000Y-135646000D02*
X157310000Y-135646000D01*
X133334000Y-112591000D02*
X134271000Y-111654000D01*
X134271000Y-111654000D02*
X137018000Y-111654000D01*
X134271000Y-116446000D02*
X133250000Y-115425000D01*
X136918000Y-116446000D02*
X134271000Y-116446000D01*
X137018000Y-111654000D02*
X137421000Y-111734000D01*
X137421000Y-111734000D02*
X137763000Y-111963000D01*
X137480000Y-116551000D02*
X136918000Y-116446000D01*
X137763000Y-111963000D02*
X138296000Y-112496000D01*
X137959000Y-116850000D02*
X137480000Y-116551000D01*
X138296000Y-112496000D02*
X138296000Y-112718000D01*
X138296000Y-112718000D02*
X138383000Y-113156000D01*
X138297000Y-117303000D02*
X137959000Y-116850000D01*
X138383000Y-113156000D02*
X138627000Y-113523000D01*
X138451000Y-117861000D02*
X138297000Y-117303000D01*
X138533000Y-118159000D02*
X138451000Y-117861000D01*
X138627000Y-113523000D02*
X138994000Y-113767000D01*
X138726000Y-118417000D02*
X138533000Y-118159000D01*
X138994000Y-113767000D02*
X139432000Y-113854000D01*
X139000000Y-118587000D02*
X138726000Y-118417000D01*
X139310000Y-118646000D02*
X139000000Y-118587000D01*
X139432000Y-113854000D02*
X142232000Y-113854000D01*
X142232000Y-113854000D02*
X142559000Y-113919000D01*
X142559000Y-113919000D02*
X142842000Y-114108000D01*
X142842000Y-114108000D02*
X143031000Y-114391000D01*
X143031000Y-114391000D02*
X143116000Y-114818000D01*
X143033000Y-117704000D02*
X143396000Y-117704000D01*
X143396000Y-117704000D02*
X143396000Y-118646000D01*
X143396000Y-118646000D02*
X139310000Y-118646000D01*
X169334000Y-112591000D02*
X170271000Y-111654000D01*
X170271000Y-111654000D02*
X173018000Y-111654000D01*
X170271000Y-116446000D02*
X169250000Y-115425000D01*
X172918000Y-116446000D02*
X170271000Y-116446000D01*
X173018000Y-111654000D02*
X173421000Y-111734000D01*
X173421000Y-111734000D02*
X173763000Y-111963000D01*
X173480000Y-116551000D02*
X172918000Y-116446000D01*
X173763000Y-111963000D02*
X174296000Y-112496000D01*
X173959000Y-116850000D02*
X173480000Y-116551000D01*
X174296000Y-112496000D02*
X174296000Y-112718000D01*
X174296000Y-112718000D02*
X174383000Y-113156000D01*
X174297000Y-117303000D02*
X173959000Y-116850000D01*
X174383000Y-113156000D02*
X174627000Y-113523000D01*
X174451000Y-117861000D02*
X174297000Y-117303000D01*
X174533000Y-118159000D02*
X174451000Y-117861000D01*
X174627000Y-113523000D02*
X174994000Y-113767000D01*
X174726000Y-118417000D02*
X174533000Y-118159000D01*
X174994000Y-113767000D02*
X175432000Y-113854000D01*
X175000000Y-118587000D02*
X174726000Y-118417000D01*
X175310000Y-118646000D02*
X175000000Y-118587000D01*
X175432000Y-113854000D02*
X178232000Y-113854000D01*
X178232000Y-113854000D02*
X178559000Y-113919000D01*
X178559000Y-113919000D02*
X178842000Y-114108000D01*
X178842000Y-114108000D02*
X179031000Y-114391000D01*
X179031000Y-114391000D02*
X179116000Y-114818000D01*
X179033000Y-117704000D02*
X179396000Y-117704000D01*
X179396000Y-117704000D02*
X179396000Y-118646000D01*
X179396000Y-118646000D02*
X175310000Y-118646000D01*
X133334000Y-129591000D02*
X134271000Y-128654000D01*
X134271000Y-128654000D02*
X137018000Y-128654000D01*
X134271000Y-133446000D02*
X133250000Y-132425000D01*
X136918000Y-133446000D02*
X134271000Y-133446000D01*
X137018000Y-128654000D02*
X137421000Y-128734000D01*
X137421000Y-128734000D02*
X137763000Y-128963000D01*
X137480000Y-133551000D02*
X136918000Y-133446000D01*
X137763000Y-128963000D02*
X138296000Y-129496000D01*
X137959000Y-133850000D02*
X137480000Y-133551000D01*
X138296000Y-129496000D02*
X138296000Y-129718000D01*
X138296000Y-129718000D02*
X138383000Y-130156000D01*
X138297000Y-134303000D02*
X137959000Y-133850000D01*
X138383000Y-130156000D02*
X138627000Y-130523000D01*
X138451000Y-134861000D02*
X138297000Y-134303000D01*
X138533000Y-135159000D02*
X138451000Y-134861000D01*
X138627000Y-130523000D02*
X138994000Y-130767000D01*
X138726000Y-135417000D02*
X138533000Y-135159000D01*
X138994000Y-130767000D02*
X139432000Y-130854000D01*
X139000000Y-135587000D02*
X138726000Y-135417000D01*
X139310000Y-135646000D02*
X139000000Y-135587000D01*
X139432000Y-130854000D02*
X142232000Y-130854000D01*
X142232000Y-130854000D02*
X142559000Y-130919000D01*
X142559000Y-130919000D02*
X142842000Y-131108000D01*
X142842000Y-131108000D02*
X143031000Y-131391000D01*
X143031000Y-131391000D02*
X143116000Y-131818000D01*
X143033000Y-134704000D02*
X143396000Y-134704000D01*
X143396000Y-134704000D02*
X143396000Y-135646000D01*
X143396000Y-135646000D02*
X139310000Y-135646000D01*
X133334000Y-61591000D02*
X134271000Y-60654000D01*
X134271000Y-60654000D02*
X137018000Y-60654000D01*
X134271000Y-65446000D02*
X133250000Y-64425000D01*
X136918000Y-65446000D02*
X134271000Y-65446000D01*
X137018000Y-60654000D02*
X137421000Y-60734000D01*
X137421000Y-60734000D02*
X137763000Y-60963000D01*
X137480000Y-65551000D02*
X136918000Y-65446000D01*
X137763000Y-60963000D02*
X138296000Y-61496000D01*
X137959000Y-65850000D02*
X137480000Y-65551000D01*
X138296000Y-61496000D02*
X138296000Y-61718000D01*
X138296000Y-61718000D02*
X138383000Y-62156000D01*
X138297000Y-66303000D02*
X137959000Y-65850000D01*
X138383000Y-62156000D02*
X138627000Y-62523000D01*
X138451000Y-66861000D02*
X138297000Y-66303000D01*
X138533000Y-67159000D02*
X138451000Y-66861000D01*
X138627000Y-62523000D02*
X138994000Y-62767000D01*
X138726000Y-67417000D02*
X138533000Y-67159000D01*
X138994000Y-62767000D02*
X139432000Y-62854000D01*
X139000000Y-67587000D02*
X138726000Y-67417000D01*
X139310000Y-67646000D02*
X139000000Y-67587000D01*
X139432000Y-62854000D02*
X142232000Y-62854000D01*
X142232000Y-62854000D02*
X142559000Y-62919000D01*
X142559000Y-62919000D02*
X142842000Y-63108000D01*
X142842000Y-63108000D02*
X143031000Y-63391000D01*
X143031000Y-63391000D02*
X143116000Y-63818000D01*
X143033000Y-66704000D02*
X143396000Y-66704000D01*
X143396000Y-66704000D02*
X143396000Y-67646000D01*
X143396000Y-67646000D02*
X139310000Y-67646000D01*
X151334000Y-61591000D02*
X152271000Y-60654000D01*
X152271000Y-60654000D02*
X155018000Y-60654000D01*
X152271000Y-65446000D02*
X151250000Y-64425000D01*
X154918000Y-65446000D02*
X152271000Y-65446000D01*
X155018000Y-60654000D02*
X155421000Y-60734000D01*
X155421000Y-60734000D02*
X155763000Y-60963000D01*
X155480000Y-65551000D02*
X154918000Y-65446000D01*
X155763000Y-60963000D02*
X156296000Y-61496000D01*
X155959000Y-65850000D02*
X155480000Y-65551000D01*
X156296000Y-61496000D02*
X156296000Y-61718000D01*
X156296000Y-61718000D02*
X156383000Y-62156000D01*
X156297000Y-66303000D02*
X155959000Y-65850000D01*
X156383000Y-62156000D02*
X156627000Y-62523000D01*
X156451000Y-66861000D02*
X156297000Y-66303000D01*
X156533000Y-67159000D02*
X156451000Y-66861000D01*
X156627000Y-62523000D02*
X156994000Y-62767000D01*
X156726000Y-67417000D02*
X156533000Y-67159000D01*
X156994000Y-62767000D02*
X157432000Y-62854000D01*
X157000000Y-67587000D02*
X156726000Y-67417000D01*
X157310000Y-67646000D02*
X157000000Y-67587000D01*
X157432000Y-62854000D02*
X160232000Y-62854000D01*
X160232000Y-62854000D02*
X160559000Y-62919000D01*
X160559000Y-62919000D02*
X160842000Y-63108000D01*
X160842000Y-63108000D02*
X161031000Y-63391000D01*
X161031000Y-63391000D02*
X161116000Y-63818000D01*
X161033000Y-66704000D02*
X161396000Y-66704000D01*
X161396000Y-66704000D02*
X161396000Y-67646000D01*
X161396000Y-67646000D02*
X157310000Y-67646000D01*
X115334000Y-61591000D02*
X116271000Y-60654000D01*
X116271000Y-60654000D02*
X119018000Y-60654000D01*
X116271000Y-65446000D02*
X115250000Y-64425000D01*
X118918000Y-65446000D02*
X116271000Y-65446000D01*
X119018000Y-60654000D02*
X119421000Y-60734000D01*
X119421000Y-60734000D02*
X119763000Y-60963000D01*
X119480000Y-65551000D02*
X118918000Y-65446000D01*
X119763000Y-60963000D02*
X120296000Y-61496000D01*
X119959000Y-65850000D02*
X119480000Y-65551000D01*
X120296000Y-61496000D02*
X120296000Y-61718000D01*
X120296000Y-61718000D02*
X120383000Y-62156000D01*
X120297000Y-66303000D02*
X119959000Y-65850000D01*
X120383000Y-62156000D02*
X120627000Y-62523000D01*
X120451000Y-66861000D02*
X120297000Y-66303000D01*
X120533000Y-67159000D02*
X120451000Y-66861000D01*
X120627000Y-62523000D02*
X120994000Y-62767000D01*
X120726000Y-67417000D02*
X120533000Y-67159000D01*
X120994000Y-62767000D02*
X121432000Y-62854000D01*
X121000000Y-67587000D02*
X120726000Y-67417000D01*
X121310000Y-67646000D02*
X121000000Y-67587000D01*
X121432000Y-62854000D02*
X124232000Y-62854000D01*
X124232000Y-62854000D02*
X124559000Y-62919000D01*
X124559000Y-62919000D02*
X124842000Y-63108000D01*
X124842000Y-63108000D02*
X125031000Y-63391000D01*
X125031000Y-63391000D02*
X125116000Y-63818000D01*
X125033000Y-66704000D02*
X125396000Y-66704000D01*
X125396000Y-66704000D02*
X125396000Y-67646000D01*
X125396000Y-67646000D02*
X121310000Y-67646000D01*
X187334000Y-112591000D02*
X188271000Y-111654000D01*
X188271000Y-111654000D02*
X191018000Y-111654000D01*
X188271000Y-116446000D02*
X187250000Y-115425000D01*
X190918000Y-116446000D02*
X188271000Y-116446000D01*
X191018000Y-111654000D02*
X191421000Y-111734000D01*
X191421000Y-111734000D02*
X191763000Y-111963000D01*
X191480000Y-116551000D02*
X190918000Y-116446000D01*
X191763000Y-111963000D02*
X192296000Y-112496000D01*
X191959000Y-116850000D02*
X191480000Y-116551000D01*
X192296000Y-112496000D02*
X192296000Y-112718000D01*
X192296000Y-112718000D02*
X192383000Y-113156000D01*
X192297000Y-117303000D02*
X191959000Y-116850000D01*
X192383000Y-113156000D02*
X192627000Y-113523000D01*
X192451000Y-117861000D02*
X192297000Y-117303000D01*
X192533000Y-118159000D02*
X192451000Y-117861000D01*
X192627000Y-113523000D02*
X192994000Y-113767000D01*
X192726000Y-118417000D02*
X192533000Y-118159000D01*
X192994000Y-113767000D02*
X193432000Y-113854000D01*
X193000000Y-118587000D02*
X192726000Y-118417000D01*
X193310000Y-118646000D02*
X193000000Y-118587000D01*
X193432000Y-113854000D02*
X196232000Y-113854000D01*
X196232000Y-113854000D02*
X196559000Y-113919000D01*
X196559000Y-113919000D02*
X196842000Y-114108000D01*
X196842000Y-114108000D02*
X197031000Y-114391000D01*
X197031000Y-114391000D02*
X197116000Y-114818000D01*
X197033000Y-117704000D02*
X197396000Y-117704000D01*
X197396000Y-117704000D02*
X197396000Y-118646000D01*
X197396000Y-118646000D02*
X193310000Y-118646000D01*
X187334000Y-95591000D02*
X188271000Y-94654000D01*
X188271000Y-94654000D02*
X191018000Y-94654000D01*
X188271000Y-99446000D02*
X187250000Y-98425000D01*
X190918000Y-99446000D02*
X188271000Y-99446000D01*
X191018000Y-94654000D02*
X191421000Y-94734000D01*
X191421000Y-94734000D02*
X191763000Y-94963000D01*
X191480000Y-99551000D02*
X190918000Y-99446000D01*
X191763000Y-94963000D02*
X192296000Y-95496000D01*
X191959000Y-99850000D02*
X191480000Y-99551000D01*
X192296000Y-95496000D02*
X192296000Y-95718000D01*
X192296000Y-95718000D02*
X192383000Y-96156000D01*
X192297000Y-100303000D02*
X191959000Y-99850000D01*
X192383000Y-96156000D02*
X192627000Y-96523000D01*
X192451000Y-100861000D02*
X192297000Y-100303000D01*
X192533000Y-101159000D02*
X192451000Y-100861000D01*
X192627000Y-96523000D02*
X192994000Y-96767000D01*
X192726000Y-101417000D02*
X192533000Y-101159000D01*
X192994000Y-96767000D02*
X193432000Y-96854000D01*
X193000000Y-101587000D02*
X192726000Y-101417000D01*
X193310000Y-101646000D02*
X193000000Y-101587000D01*
X193432000Y-96854000D02*
X196232000Y-96854000D01*
X196232000Y-96854000D02*
X196559000Y-96919000D01*
X196559000Y-96919000D02*
X196842000Y-97108000D01*
X196842000Y-97108000D02*
X197031000Y-97391000D01*
X197031000Y-97391000D02*
X197116000Y-97818000D01*
X197033000Y-100704000D02*
X197396000Y-100704000D01*
X197396000Y-100704000D02*
X197396000Y-101646000D01*
X197396000Y-101646000D02*
X193310000Y-101646000D01*
X151334000Y-112591000D02*
X152271000Y-111654000D01*
X152271000Y-111654000D02*
X155018000Y-111654000D01*
X152271000Y-116446000D02*
X151250000Y-115425000D01*
X154918000Y-116446000D02*
X152271000Y-116446000D01*
X155018000Y-111654000D02*
X155421000Y-111734000D01*
X155421000Y-111734000D02*
X155763000Y-111963000D01*
X155480000Y-116551000D02*
X154918000Y-116446000D01*
X155763000Y-111963000D02*
X156296000Y-112496000D01*
X155959000Y-116850000D02*
X155480000Y-116551000D01*
X156296000Y-112496000D02*
X156296000Y-112718000D01*
X156296000Y-112718000D02*
X156383000Y-113156000D01*
X156297000Y-117303000D02*
X155959000Y-116850000D01*
X156383000Y-113156000D02*
X156627000Y-113523000D01*
X156451000Y-117861000D02*
X156297000Y-117303000D01*
X156533000Y-118159000D02*
X156451000Y-117861000D01*
X156627000Y-113523000D02*
X156994000Y-113767000D01*
X156726000Y-118417000D02*
X156533000Y-118159000D01*
X156994000Y-113767000D02*
X157432000Y-113854000D01*
X157000000Y-118587000D02*
X156726000Y-118417000D01*
X157310000Y-118646000D02*
X157000000Y-118587000D01*
X157432000Y-113854000D02*
X160232000Y-113854000D01*
X160232000Y-113854000D02*
X160559000Y-113919000D01*
X160559000Y-113919000D02*
X160842000Y-114108000D01*
X160842000Y-114108000D02*
X161031000Y-114391000D01*
X161031000Y-114391000D02*
X161116000Y-114818000D01*
X161033000Y-117704000D02*
X161396000Y-117704000D01*
X161396000Y-117704000D02*
X161396000Y-118646000D01*
X161396000Y-118646000D02*
X157310000Y-118646000D01*
X97334000Y-78591000D02*
X98271000Y-77654000D01*
X98271000Y-77654000D02*
X101018000Y-77654000D01*
X98271000Y-82446000D02*
X97250000Y-81425000D01*
X100918000Y-82446000D02*
X98271000Y-82446000D01*
X101018000Y-77654000D02*
X101421000Y-77734000D01*
X101421000Y-77734000D02*
X101763000Y-77963000D01*
X101480000Y-82551000D02*
X100918000Y-82446000D01*
X101763000Y-77963000D02*
X102296000Y-78496000D01*
X101959000Y-82850000D02*
X101480000Y-82551000D01*
X102296000Y-78496000D02*
X102296000Y-78718000D01*
X102296000Y-78718000D02*
X102383000Y-79156000D01*
X102297000Y-83303000D02*
X101959000Y-82850000D01*
X102383000Y-79156000D02*
X102627000Y-79523000D01*
X102451000Y-83861000D02*
X102297000Y-83303000D01*
X102533000Y-84159000D02*
X102451000Y-83861000D01*
X102627000Y-79523000D02*
X102994000Y-79767000D01*
X102726000Y-84417000D02*
X102533000Y-84159000D01*
X102994000Y-79767000D02*
X103432000Y-79854000D01*
X103000000Y-84587000D02*
X102726000Y-84417000D01*
X103310000Y-84646000D02*
X103000000Y-84587000D01*
X103432000Y-79854000D02*
X106232000Y-79854000D01*
X106232000Y-79854000D02*
X106559000Y-79919000D01*
X106559000Y-79919000D02*
X106842000Y-80108000D01*
X106842000Y-80108000D02*
X107031000Y-80391000D01*
X107031000Y-80391000D02*
X107116000Y-80818000D01*
X107033000Y-83704000D02*
X107396000Y-83704000D01*
X107396000Y-83704000D02*
X107396000Y-84646000D01*
X107396000Y-84646000D02*
X103310000Y-84646000D01*
X151334000Y-95591000D02*
X152271000Y-94654000D01*
X152271000Y-94654000D02*
X155018000Y-94654000D01*
X152271000Y-99446000D02*
X151250000Y-98425000D01*
X154918000Y-99446000D02*
X152271000Y-99446000D01*
X155018000Y-94654000D02*
X155421000Y-94734000D01*
X155421000Y-94734000D02*
X155763000Y-94963000D01*
X155480000Y-99551000D02*
X154918000Y-99446000D01*
X155763000Y-94963000D02*
X156296000Y-95496000D01*
X155959000Y-99850000D02*
X155480000Y-99551000D01*
X156296000Y-95496000D02*
X156296000Y-95718000D01*
X156296000Y-95718000D02*
X156383000Y-96156000D01*
X156297000Y-100303000D02*
X155959000Y-99850000D01*
X156383000Y-96156000D02*
X156627000Y-96523000D01*
X156451000Y-100861000D02*
X156297000Y-100303000D01*
X156533000Y-101159000D02*
X156451000Y-100861000D01*
X156627000Y-96523000D02*
X156994000Y-96767000D01*
X156726000Y-101417000D02*
X156533000Y-101159000D01*
X156994000Y-96767000D02*
X157432000Y-96854000D01*
X157000000Y-101587000D02*
X156726000Y-101417000D01*
X157310000Y-101646000D02*
X157000000Y-101587000D01*
X157432000Y-96854000D02*
X160232000Y-96854000D01*
X160232000Y-96854000D02*
X160559000Y-96919000D01*
X160559000Y-96919000D02*
X160842000Y-97108000D01*
X160842000Y-97108000D02*
X161031000Y-97391000D01*
X161031000Y-97391000D02*
X161116000Y-97818000D01*
X161033000Y-100704000D02*
X161396000Y-100704000D01*
X161396000Y-100704000D02*
X161396000Y-101646000D01*
X161396000Y-101646000D02*
X157310000Y-101646000D01*
X115334000Y-78591000D02*
X116271000Y-77654000D01*
X116271000Y-77654000D02*
X119018000Y-77654000D01*
X116271000Y-82446000D02*
X115250000Y-81425000D01*
X118918000Y-82446000D02*
X116271000Y-82446000D01*
X119018000Y-77654000D02*
X119421000Y-77734000D01*
X119421000Y-77734000D02*
X119763000Y-77963000D01*
X119480000Y-82551000D02*
X118918000Y-82446000D01*
X119763000Y-77963000D02*
X120296000Y-78496000D01*
X119959000Y-82850000D02*
X119480000Y-82551000D01*
X120296000Y-78496000D02*
X120296000Y-78718000D01*
X120296000Y-78718000D02*
X120383000Y-79156000D01*
X120297000Y-83303000D02*
X119959000Y-82850000D01*
X120383000Y-79156000D02*
X120627000Y-79523000D01*
X120451000Y-83861000D02*
X120297000Y-83303000D01*
X120533000Y-84159000D02*
X120451000Y-83861000D01*
X120627000Y-79523000D02*
X120994000Y-79767000D01*
X120726000Y-84417000D02*
X120533000Y-84159000D01*
X120994000Y-79767000D02*
X121432000Y-79854000D01*
X121000000Y-84587000D02*
X120726000Y-84417000D01*
X121310000Y-84646000D02*
X121000000Y-84587000D01*
X121432000Y-79854000D02*
X124232000Y-79854000D01*
X124232000Y-79854000D02*
X124559000Y-79919000D01*
X124559000Y-79919000D02*
X124842000Y-80108000D01*
X124842000Y-80108000D02*
X125031000Y-80391000D01*
X125031000Y-80391000D02*
X125116000Y-80818000D01*
X125033000Y-83704000D02*
X125396000Y-83704000D01*
X125396000Y-83704000D02*
X125396000Y-84646000D01*
X125396000Y-84646000D02*
X121310000Y-84646000D01*
X133334000Y-95591000D02*
X134271000Y-94654000D01*
X134271000Y-94654000D02*
X137018000Y-94654000D01*
X134271000Y-99446000D02*
X133250000Y-98425000D01*
X136918000Y-99446000D02*
X134271000Y-99446000D01*
X137018000Y-94654000D02*
X137421000Y-94734000D01*
X137421000Y-94734000D02*
X137763000Y-94963000D01*
X137480000Y-99551000D02*
X136918000Y-99446000D01*
X137763000Y-94963000D02*
X138296000Y-95496000D01*
X137959000Y-99850000D02*
X137480000Y-99551000D01*
X138296000Y-95496000D02*
X138296000Y-95718000D01*
X138296000Y-95718000D02*
X138383000Y-96156000D01*
X138297000Y-100303000D02*
X137959000Y-99850000D01*
X138383000Y-96156000D02*
X138627000Y-96523000D01*
X138451000Y-100861000D02*
X138297000Y-100303000D01*
X138533000Y-101159000D02*
X138451000Y-100861000D01*
X138627000Y-96523000D02*
X138994000Y-96767000D01*
X138726000Y-101417000D02*
X138533000Y-101159000D01*
X138994000Y-96767000D02*
X139432000Y-96854000D01*
X139000000Y-101587000D02*
X138726000Y-101417000D01*
X139310000Y-101646000D02*
X139000000Y-101587000D01*
X139432000Y-96854000D02*
X142232000Y-96854000D01*
X142232000Y-96854000D02*
X142559000Y-96919000D01*
X142559000Y-96919000D02*
X142842000Y-97108000D01*
X142842000Y-97108000D02*
X143031000Y-97391000D01*
X143031000Y-97391000D02*
X143116000Y-97818000D01*
X143033000Y-100704000D02*
X143396000Y-100704000D01*
X143396000Y-100704000D02*
X143396000Y-101646000D01*
X143396000Y-101646000D02*
X139310000Y-101646000D01*
X187334000Y-129591000D02*
X188271000Y-128654000D01*
X188271000Y-128654000D02*
X191018000Y-128654000D01*
X188271000Y-133446000D02*
X187250000Y-132425000D01*
X190918000Y-133446000D02*
X188271000Y-133446000D01*
X191018000Y-128654000D02*
X191421000Y-128734000D01*
X191421000Y-128734000D02*
X191763000Y-128963000D01*
X191480000Y-133551000D02*
X190918000Y-133446000D01*
X191763000Y-128963000D02*
X192296000Y-129496000D01*
X191959000Y-133850000D02*
X191480000Y-133551000D01*
X192296000Y-129496000D02*
X192296000Y-129718000D01*
X192296000Y-129718000D02*
X192383000Y-130156000D01*
X192297000Y-134303000D02*
X191959000Y-133850000D01*
X192383000Y-130156000D02*
X192627000Y-130523000D01*
X192451000Y-134861000D02*
X192297000Y-134303000D01*
X192533000Y-135159000D02*
X192451000Y-134861000D01*
X192627000Y-130523000D02*
X192994000Y-130767000D01*
X192726000Y-135417000D02*
X192533000Y-135159000D01*
X192994000Y-130767000D02*
X193432000Y-130854000D01*
X193000000Y-135587000D02*
X192726000Y-135417000D01*
X193310000Y-135646000D02*
X193000000Y-135587000D01*
X193432000Y-130854000D02*
X196232000Y-130854000D01*
X196232000Y-130854000D02*
X196559000Y-130919000D01*
X196559000Y-130919000D02*
X196842000Y-131108000D01*
X196842000Y-131108000D02*
X197031000Y-131391000D01*
X197031000Y-131391000D02*
X197116000Y-131818000D01*
X197033000Y-134704000D02*
X197396000Y-134704000D01*
X197396000Y-134704000D02*
X197396000Y-135646000D01*
X197396000Y-135646000D02*
X193310000Y-135646000D01*
X97334000Y-129591000D02*
X98271000Y-128654000D01*
X98271000Y-128654000D02*
X101018000Y-128654000D01*
X98271000Y-133446000D02*
X97250000Y-132425000D01*
X100918000Y-133446000D02*
X98271000Y-133446000D01*
X101018000Y-128654000D02*
X101421000Y-128734000D01*
X101421000Y-128734000D02*
X101763000Y-128963000D01*
X101480000Y-133551000D02*
X100918000Y-133446000D01*
X101763000Y-128963000D02*
X102296000Y-129496000D01*
X101959000Y-133850000D02*
X101480000Y-133551000D01*
X102296000Y-129496000D02*
X102296000Y-129718000D01*
X102296000Y-129718000D02*
X102383000Y-130156000D01*
X102297000Y-134303000D02*
X101959000Y-133850000D01*
X102383000Y-130156000D02*
X102627000Y-130523000D01*
X102451000Y-134861000D02*
X102297000Y-134303000D01*
X102533000Y-135159000D02*
X102451000Y-134861000D01*
X102627000Y-130523000D02*
X102994000Y-130767000D01*
X102726000Y-135417000D02*
X102533000Y-135159000D01*
X102994000Y-130767000D02*
X103432000Y-130854000D01*
X103000000Y-135587000D02*
X102726000Y-135417000D01*
X103310000Y-135646000D02*
X103000000Y-135587000D01*
X103432000Y-130854000D02*
X106232000Y-130854000D01*
X106232000Y-130854000D02*
X106559000Y-130919000D01*
X106559000Y-130919000D02*
X106842000Y-131108000D01*
X106842000Y-131108000D02*
X107031000Y-131391000D01*
X107031000Y-131391000D02*
X107116000Y-131818000D01*
X107033000Y-134704000D02*
X107396000Y-134704000D01*
X107396000Y-134704000D02*
X107396000Y-135646000D01*
X107396000Y-135646000D02*
X103310000Y-135646000D01*
X115334000Y-129591000D02*
X116271000Y-128654000D01*
X116271000Y-128654000D02*
X119018000Y-128654000D01*
X116271000Y-133446000D02*
X115250000Y-132425000D01*
X118918000Y-133446000D02*
X116271000Y-133446000D01*
X119018000Y-128654000D02*
X119421000Y-128734000D01*
X119421000Y-128734000D02*
X119763000Y-128963000D01*
X119480000Y-133551000D02*
X118918000Y-133446000D01*
X119763000Y-128963000D02*
X120296000Y-129496000D01*
X119959000Y-133850000D02*
X119480000Y-133551000D01*
X120296000Y-129496000D02*
X120296000Y-129718000D01*
X120296000Y-129718000D02*
X120383000Y-130156000D01*
X120297000Y-134303000D02*
X119959000Y-133850000D01*
X120383000Y-130156000D02*
X120627000Y-130523000D01*
X120451000Y-134861000D02*
X120297000Y-134303000D01*
X120533000Y-135159000D02*
X120451000Y-134861000D01*
X120627000Y-130523000D02*
X120994000Y-130767000D01*
X120726000Y-135417000D02*
X120533000Y-135159000D01*
X120994000Y-130767000D02*
X121432000Y-130854000D01*
X121000000Y-135587000D02*
X120726000Y-135417000D01*
X121310000Y-135646000D02*
X121000000Y-135587000D01*
X121432000Y-130854000D02*
X124232000Y-130854000D01*
X124232000Y-130854000D02*
X124559000Y-130919000D01*
X124559000Y-130919000D02*
X124842000Y-131108000D01*
X124842000Y-131108000D02*
X125031000Y-131391000D01*
X125031000Y-131391000D02*
X125116000Y-131818000D01*
X125033000Y-134704000D02*
X125396000Y-134704000D01*
X125396000Y-134704000D02*
X125396000Y-135646000D01*
X125396000Y-135646000D02*
X121310000Y-135646000D01*
X97334000Y-95591000D02*
X98271000Y-94654000D01*
X98271000Y-94654000D02*
X101018000Y-94654000D01*
X98271000Y-99446000D02*
X97250000Y-98425000D01*
X100918000Y-99446000D02*
X98271000Y-99446000D01*
X101018000Y-94654000D02*
X101421000Y-94734000D01*
X101421000Y-94734000D02*
X101763000Y-94963000D01*
X101480000Y-99551000D02*
X100918000Y-99446000D01*
X101763000Y-94963000D02*
X102296000Y-95496000D01*
X101959000Y-99850000D02*
X101480000Y-99551000D01*
X102296000Y-95496000D02*
X102296000Y-95718000D01*
X102296000Y-95718000D02*
X102383000Y-96156000D01*
X102297000Y-100303000D02*
X101959000Y-99850000D01*
X102383000Y-96156000D02*
X102627000Y-96523000D01*
X102451000Y-100861000D02*
X102297000Y-100303000D01*
X102533000Y-101159000D02*
X102451000Y-100861000D01*
X102627000Y-96523000D02*
X102994000Y-96767000D01*
X102726000Y-101417000D02*
X102533000Y-101159000D01*
X102994000Y-96767000D02*
X103432000Y-96854000D01*
X103000000Y-101587000D02*
X102726000Y-101417000D01*
X103310000Y-101646000D02*
X103000000Y-101587000D01*
X103432000Y-96854000D02*
X106232000Y-96854000D01*
X106232000Y-96854000D02*
X106559000Y-96919000D01*
X106559000Y-96919000D02*
X106842000Y-97108000D01*
X106842000Y-97108000D02*
X107031000Y-97391000D01*
X107031000Y-97391000D02*
X107116000Y-97818000D01*
X107033000Y-100704000D02*
X107396000Y-100704000D01*
X107396000Y-100704000D02*
X107396000Y-101646000D01*
X107396000Y-101646000D02*
X103310000Y-101646000D01*
X97334000Y-112591000D02*
X98271000Y-111654000D01*
X98271000Y-111654000D02*
X101018000Y-111654000D01*
X98271000Y-116446000D02*
X97250000Y-115425000D01*
X100918000Y-116446000D02*
X98271000Y-116446000D01*
X101018000Y-111654000D02*
X101421000Y-111734000D01*
X101421000Y-111734000D02*
X101763000Y-111963000D01*
X101480000Y-116551000D02*
X100918000Y-116446000D01*
X101763000Y-111963000D02*
X102296000Y-112496000D01*
X101959000Y-116850000D02*
X101480000Y-116551000D01*
X102296000Y-112496000D02*
X102296000Y-112718000D01*
X102296000Y-112718000D02*
X102383000Y-113156000D01*
X102297000Y-117303000D02*
X101959000Y-116850000D01*
X102383000Y-113156000D02*
X102627000Y-113523000D01*
X102451000Y-117861000D02*
X102297000Y-117303000D01*
X102533000Y-118159000D02*
X102451000Y-117861000D01*
X102627000Y-113523000D02*
X102994000Y-113767000D01*
X102726000Y-118417000D02*
X102533000Y-118159000D01*
X102994000Y-113767000D02*
X103432000Y-113854000D01*
X103000000Y-118587000D02*
X102726000Y-118417000D01*
X103310000Y-118646000D02*
X103000000Y-118587000D01*
X103432000Y-113854000D02*
X106232000Y-113854000D01*
X106232000Y-113854000D02*
X106559000Y-113919000D01*
X106559000Y-113919000D02*
X106842000Y-114108000D01*
X106842000Y-114108000D02*
X107031000Y-114391000D01*
X107031000Y-114391000D02*
X107116000Y-114818000D01*
X107033000Y-117704000D02*
X107396000Y-117704000D01*
X107396000Y-117704000D02*
X107396000Y-118646000D01*
X107396000Y-118646000D02*
X103310000Y-118646000D01*
X187334000Y-78591000D02*
X188271000Y-77654000D01*
X188271000Y-77654000D02*
X191018000Y-77654000D01*
X188271000Y-82446000D02*
X187250000Y-81425000D01*
X190918000Y-82446000D02*
X188271000Y-82446000D01*
X191018000Y-77654000D02*
X191421000Y-77734000D01*
X191421000Y-77734000D02*
X191763000Y-77963000D01*
X191480000Y-82551000D02*
X190918000Y-82446000D01*
X191763000Y-77963000D02*
X192296000Y-78496000D01*
X191959000Y-82850000D02*
X191480000Y-82551000D01*
X192296000Y-78496000D02*
X192296000Y-78718000D01*
X192296000Y-78718000D02*
X192383000Y-79156000D01*
X192297000Y-83303000D02*
X191959000Y-82850000D01*
X192383000Y-79156000D02*
X192627000Y-79523000D01*
X192451000Y-83861000D02*
X192297000Y-83303000D01*
X192533000Y-84159000D02*
X192451000Y-83861000D01*
X192627000Y-79523000D02*
X192994000Y-79767000D01*
X192726000Y-84417000D02*
X192533000Y-84159000D01*
X192994000Y-79767000D02*
X193432000Y-79854000D01*
X193000000Y-84587000D02*
X192726000Y-84417000D01*
X193310000Y-84646000D02*
X193000000Y-84587000D01*
X193432000Y-79854000D02*
X196232000Y-79854000D01*
X196232000Y-79854000D02*
X196559000Y-79919000D01*
X196559000Y-79919000D02*
X196842000Y-80108000D01*
X196842000Y-80108000D02*
X197031000Y-80391000D01*
X197031000Y-80391000D02*
X197116000Y-80818000D01*
X197033000Y-83704000D02*
X197396000Y-83704000D01*
X197396000Y-83704000D02*
X197396000Y-84646000D01*
X197396000Y-84646000D02*
X193310000Y-84646000D01*
X187334000Y-61591000D02*
X188271000Y-60654000D01*
X188271000Y-60654000D02*
X191018000Y-60654000D01*
X188271000Y-65446000D02*
X187250000Y-64425000D01*
X190918000Y-65446000D02*
X188271000Y-65446000D01*
X191018000Y-60654000D02*
X191421000Y-60734000D01*
X191421000Y-60734000D02*
X191763000Y-60963000D01*
X191480000Y-65551000D02*
X190918000Y-65446000D01*
X191763000Y-60963000D02*
X192296000Y-61496000D01*
X191959000Y-65850000D02*
X191480000Y-65551000D01*
X192296000Y-61496000D02*
X192296000Y-61718000D01*
X192296000Y-61718000D02*
X192383000Y-62156000D01*
X192297000Y-66303000D02*
X191959000Y-65850000D01*
X192383000Y-62156000D02*
X192627000Y-62523000D01*
X192451000Y-66861000D02*
X192297000Y-66303000D01*
X192533000Y-67159000D02*
X192451000Y-66861000D01*
X192627000Y-62523000D02*
X192994000Y-62767000D01*
X192726000Y-67417000D02*
X192533000Y-67159000D01*
X192994000Y-62767000D02*
X193432000Y-62854000D01*
X193000000Y-67587000D02*
X192726000Y-67417000D01*
X193310000Y-67646000D02*
X193000000Y-67587000D01*
X193432000Y-62854000D02*
X196232000Y-62854000D01*
X196232000Y-62854000D02*
X196559000Y-62919000D01*
X196559000Y-62919000D02*
X196842000Y-63108000D01*
X196842000Y-63108000D02*
X197031000Y-63391000D01*
X197031000Y-63391000D02*
X197116000Y-63818000D01*
X197033000Y-66704000D02*
X197396000Y-66704000D01*
X197396000Y-66704000D02*
X197396000Y-67646000D01*
X197396000Y-67646000D02*
X193310000Y-67646000D01*
X169334000Y-129591000D02*
X170271000Y-128654000D01*
X170271000Y-128654000D02*
X173018000Y-128654000D01*
X170271000Y-133446000D02*
X169250000Y-132425000D01*
X172918000Y-133446000D02*
X170271000Y-133446000D01*
X173018000Y-128654000D02*
X173421000Y-128734000D01*
X173421000Y-128734000D02*
X173763000Y-128963000D01*
X173480000Y-133551000D02*
X172918000Y-133446000D01*
X173763000Y-128963000D02*
X174296000Y-129496000D01*
X173959000Y-133850000D02*
X173480000Y-133551000D01*
X174296000Y-129496000D02*
X174296000Y-129718000D01*
X174296000Y-129718000D02*
X174383000Y-130156000D01*
X174297000Y-134303000D02*
X173959000Y-133850000D01*
X174383000Y-130156000D02*
X174627000Y-130523000D01*
X174451000Y-134861000D02*
X174297000Y-134303000D01*
X174533000Y-135159000D02*
X174451000Y-134861000D01*
X174627000Y-130523000D02*
X174994000Y-130767000D01*
X174726000Y-135417000D02*
X174533000Y-135159000D01*
X174994000Y-130767000D02*
X175432000Y-130854000D01*
X175000000Y-135587000D02*
X174726000Y-135417000D01*
X175310000Y-135646000D02*
X175000000Y-135587000D01*
X175432000Y-130854000D02*
X178232000Y-130854000D01*
X178232000Y-130854000D02*
X178559000Y-130919000D01*
X178559000Y-130919000D02*
X178842000Y-131108000D01*
X178842000Y-131108000D02*
X179031000Y-131391000D01*
X179031000Y-131391000D02*
X179116000Y-131818000D01*
X179033000Y-134704000D02*
X179396000Y-134704000D01*
X179396000Y-134704000D02*
X179396000Y-135646000D01*
X179396000Y-135646000D02*
X175310000Y-135646000D01*
D10*
X163400000Y-74730000D02*
X196420000Y-74730000D01*
X196420000Y-92510000D01*
X163400000Y-92510000D01*
X163400000Y-74730000D01*
X163400000Y-75365000D02*
X163400000Y-74730000D01*
X164035000Y-74730000D01*
X163400000Y-75365000D01*
G36*
X163400000Y-75365000D02*
G01*
X163400000Y-74730000D01*
X164035000Y-74730000D01*
X163400000Y-75365000D01*
G37*
D12*
X161750000Y-122860000D02*
X161750000Y-118850000D01*
X163750000Y-122860000D02*
X161750000Y-122860000D01*
X163750000Y-122860000D02*
X163750000Y-118850000D01*
X107750000Y-88960000D02*
X107750000Y-84950000D01*
X109750000Y-88960000D02*
X107750000Y-88960000D01*
X109750000Y-88960000D02*
X109750000Y-84950000D01*
D13*
X153170000Y-145100000D02*
X153170000Y-145900000D01*
X152568000Y-146800000D02*
X147072000Y-146800000D01*
D14*
X152090000Y-142442000D02*
X152090000Y-142442000D01*
X152026000Y-142442000D02*
X152026000Y-142442000D01*
D13*
X146470000Y-145100000D02*
X146470000Y-145900000D01*
D14*
X152090000Y-142442000D02*
G75*
G02*
X152026000Y-142442000I-32000J0D01*
G01*
X152026000Y-142442000D02*
G75*
G02*
X152090000Y-142442000I32000J0D01*
G01*
D12*
X125750000Y-122960000D02*
X125750000Y-118950000D01*
X127750000Y-122960000D02*
X125750000Y-122960000D01*
X127750000Y-122960000D02*
X127750000Y-118950000D01*
X179750000Y-105960000D02*
X179750000Y-101950000D01*
X181750000Y-105960000D02*
X179750000Y-105960000D01*
X181750000Y-105960000D02*
X181750000Y-101950000D01*
X143750000Y-71860000D02*
X143750000Y-67850000D01*
X145750000Y-71860000D02*
X143750000Y-71860000D01*
X145750000Y-71860000D02*
X145750000Y-67850000D01*
X179750000Y-88960000D02*
X179750000Y-84950000D01*
X181750000Y-88960000D02*
X179750000Y-88960000D01*
X181750000Y-88960000D02*
X181750000Y-84950000D01*
X179750000Y-71860000D02*
X179750000Y-67850000D01*
X181750000Y-71860000D02*
X179750000Y-71860000D01*
X181750000Y-71860000D02*
X181750000Y-67850000D01*
X197750000Y-88960000D02*
X197750000Y-84950000D01*
X199750000Y-88960000D02*
X197750000Y-88960000D01*
X199750000Y-88960000D02*
X199750000Y-84950000D01*
X197750000Y-122860000D02*
X197750000Y-118850000D01*
X199750000Y-122860000D02*
X197750000Y-122860000D01*
X199750000Y-122860000D02*
X199750000Y-118850000D01*
X107750000Y-139860000D02*
X107750000Y-135850000D01*
X109750000Y-139860000D02*
X107750000Y-139860000D01*
X109750000Y-139860000D02*
X109750000Y-135850000D01*
X161750000Y-71860000D02*
X161750000Y-67850000D01*
X163750000Y-71860000D02*
X161750000Y-71860000D01*
X163750000Y-71860000D02*
X163750000Y-67850000D01*
X197750000Y-139860000D02*
X197750000Y-135850000D01*
X199750000Y-139860000D02*
X197750000Y-139860000D01*
X199750000Y-139860000D02*
X199750000Y-135850000D01*
D10*
X135850000Y-144800000D02*
X135850000Y-144800000D01*
X135950000Y-144800000D02*
X135950000Y-144800000D01*
D13*
X138450000Y-147400000D02*
X137400000Y-147400000D01*
X138450000Y-148400000D02*
X138450000Y-147400000D01*
X141050000Y-147400000D02*
X141050000Y-148400000D01*
X141050000Y-148400000D02*
X138450000Y-148400000D01*
X142100000Y-147400000D02*
X141050000Y-147400000D01*
D10*
X135850000Y-144800000D02*
G75*
G02*
X135950000Y-144800000I50000J0D01*
G01*
X135950000Y-144800000D02*
G75*
G02*
X135850000Y-144800000I-50000J0D01*
G01*
D12*
X107750000Y-71860000D02*
X107750000Y-67850000D01*
X109750000Y-71860000D02*
X107750000Y-71860000D01*
X109750000Y-71860000D02*
X109750000Y-67850000D01*
X143750000Y-105860000D02*
X143750000Y-101850000D01*
X145750000Y-105860000D02*
X143750000Y-105860000D01*
X145750000Y-105860000D02*
X145750000Y-101850000D01*
X125750000Y-105860000D02*
X125750000Y-101850000D01*
X127750000Y-105860000D02*
X125750000Y-105860000D01*
X127750000Y-105860000D02*
X127750000Y-101850000D01*
X143750000Y-88960000D02*
X143750000Y-84950000D01*
X145750000Y-88960000D02*
X143750000Y-88960000D01*
X145750000Y-88960000D02*
X145750000Y-84950000D01*
X125750000Y-88960000D02*
X125750000Y-84950000D01*
X127750000Y-88960000D02*
X125750000Y-88960000D01*
X127750000Y-88960000D02*
X127750000Y-84950000D01*
X161750000Y-139860000D02*
X161750000Y-135850000D01*
X163750000Y-139860000D02*
X161750000Y-139860000D01*
X163750000Y-139860000D02*
X163750000Y-135850000D01*
X143750000Y-139860000D02*
X143750000Y-135850000D01*
X145750000Y-139860000D02*
X143750000Y-139860000D01*
X145750000Y-139860000D02*
X145750000Y-135850000D01*
X125750000Y-71860000D02*
X125750000Y-67850000D01*
X127750000Y-71860000D02*
X125750000Y-71860000D01*
X127750000Y-71860000D02*
X127750000Y-67850000D01*
X161750000Y-105960000D02*
X161750000Y-101950000D01*
X163750000Y-105960000D02*
X161750000Y-105960000D01*
X163750000Y-105960000D02*
X163750000Y-101950000D01*
X187940000Y-145215000D02*
X187940000Y-141785000D01*
X190760000Y-140515000D02*
X192210000Y-140515000D01*
X190760000Y-146485000D02*
X192210000Y-146485000D01*
X192210000Y-140515000D02*
X192210000Y-142315000D01*
X192210000Y-144685000D02*
X193200000Y-144685000D01*
X192210000Y-146485000D02*
X192210000Y-144685000D01*
X179750000Y-122860000D02*
X179750000Y-118850000D01*
X181750000Y-122860000D02*
X179750000Y-122860000D01*
X181750000Y-122860000D02*
X181750000Y-118850000D01*
X161750000Y-88960000D02*
X161750000Y-84950000D01*
X163750000Y-88960000D02*
X161750000Y-88960000D01*
X163750000Y-88960000D02*
X163750000Y-84950000D01*
X179750000Y-139860000D02*
X179750000Y-135850000D01*
X181750000Y-139860000D02*
X179750000Y-139860000D01*
X181750000Y-139860000D02*
X181750000Y-135850000D01*
X143750000Y-122860000D02*
X143750000Y-118850000D01*
X145750000Y-122860000D02*
X143750000Y-122860000D01*
X145750000Y-122860000D02*
X145750000Y-118850000D01*
X125750000Y-139860000D02*
X125750000Y-135850000D01*
X127750000Y-139860000D02*
X125750000Y-139860000D01*
X127750000Y-139860000D02*
X127750000Y-135850000D01*
X107750000Y-105960000D02*
X107750000Y-101950000D01*
X109750000Y-105960000D02*
X107750000Y-105960000D01*
X109750000Y-105960000D02*
X109750000Y-101950000D01*
X197750000Y-105860000D02*
X197750000Y-101850000D01*
X199750000Y-105860000D02*
X197750000Y-105860000D01*
X199750000Y-105860000D02*
X199750000Y-101850000D01*
X197750000Y-71860000D02*
X197750000Y-67850000D01*
X199750000Y-71860000D02*
X197750000Y-71860000D01*
X199750000Y-71860000D02*
X199750000Y-67850000D01*
X107750000Y-123010000D02*
X107750000Y-119000000D01*
X109750000Y-123010000D02*
X107750000Y-123010000D01*
X109750000Y-123010000D02*
X109750000Y-119000000D01*
%LPC*%
D15*
X166250000Y-69000000D03*
D16*
X171750000Y-63100000D03*
D17*
X171750000Y-69000000D03*
D16*
X176750000Y-65200000D03*
D15*
X177250000Y-69000000D03*
D18*
X168250000Y-63000000D03*
X180250000Y-65200000D03*
D15*
X112250000Y-120000000D03*
D16*
X117750000Y-114100000D03*
D17*
X117750000Y-120000000D03*
D16*
X122750000Y-116200000D03*
D15*
X123250000Y-120000000D03*
D18*
X114250000Y-114000000D03*
X126250000Y-116200000D03*
D15*
X94250000Y-69000000D03*
D16*
X99750000Y-63100000D03*
D17*
X99750000Y-69000000D03*
D16*
X104750000Y-65200000D03*
D15*
X105250000Y-69000000D03*
D18*
X96250000Y-63000000D03*
X108250000Y-65200000D03*
D15*
X148250000Y-86000000D03*
D16*
X153750000Y-80100000D03*
D17*
X153750000Y-86000000D03*
D16*
X158750000Y-82200000D03*
D15*
X159250000Y-86000000D03*
D18*
X150250000Y-80000000D03*
X162250000Y-82200000D03*
D15*
X112250000Y-103000000D03*
D16*
X117750000Y-97100000D03*
D17*
X117750000Y-103000000D03*
D16*
X122750000Y-99200000D03*
D15*
X123250000Y-103000000D03*
D18*
X114250000Y-97000000D03*
X126250000Y-99200000D03*
D15*
X166250000Y-86000000D03*
D16*
X171750000Y-80100000D03*
D17*
X171750000Y-86000000D03*
D16*
X176750000Y-82200000D03*
D15*
X177250000Y-86000000D03*
D18*
X168250000Y-80000000D03*
X180250000Y-82200000D03*
D15*
X166250000Y-103000000D03*
D16*
X171750000Y-97100000D03*
D17*
X171750000Y-103000000D03*
D16*
X176750000Y-99200000D03*
D15*
X177250000Y-103000000D03*
D18*
X168250000Y-97000000D03*
X180250000Y-99200000D03*
D15*
X130250000Y-86000000D03*
D16*
X135750000Y-80100000D03*
D17*
X135750000Y-86000000D03*
D16*
X140750000Y-82200000D03*
D15*
X141250000Y-86000000D03*
D18*
X132250000Y-80000000D03*
X144250000Y-82200000D03*
D15*
X148250000Y-137000000D03*
D16*
X153750000Y-131100000D03*
D17*
X153750000Y-137000000D03*
D16*
X158750000Y-133200000D03*
D15*
X159250000Y-137000000D03*
D18*
X150250000Y-131000000D03*
X162250000Y-133200000D03*
D15*
X130250000Y-120000000D03*
D16*
X135750000Y-114100000D03*
D17*
X135750000Y-120000000D03*
D16*
X140750000Y-116200000D03*
D15*
X141250000Y-120000000D03*
D18*
X132250000Y-114000000D03*
X144250000Y-116200000D03*
D15*
X166250000Y-120000000D03*
D16*
X171750000Y-114100000D03*
D17*
X171750000Y-120000000D03*
D16*
X176750000Y-116200000D03*
D15*
X177250000Y-120000000D03*
D18*
X168250000Y-114000000D03*
X180250000Y-116200000D03*
D15*
X130250000Y-137000000D03*
D16*
X135750000Y-131100000D03*
D17*
X135750000Y-137000000D03*
D16*
X140750000Y-133200000D03*
D15*
X141250000Y-137000000D03*
D18*
X132250000Y-131000000D03*
X144250000Y-133200000D03*
D15*
X130250000Y-69000000D03*
D16*
X135750000Y-63100000D03*
D17*
X135750000Y-69000000D03*
D16*
X140750000Y-65200000D03*
D15*
X141250000Y-69000000D03*
D18*
X132250000Y-63000000D03*
X144250000Y-65200000D03*
D15*
X148250000Y-69000000D03*
D16*
X153750000Y-63100000D03*
D17*
X153750000Y-69000000D03*
D16*
X158750000Y-65200000D03*
D15*
X159250000Y-69000000D03*
D18*
X150250000Y-63000000D03*
X162250000Y-65200000D03*
D15*
X112250000Y-69000000D03*
D16*
X117750000Y-63100000D03*
D17*
X117750000Y-69000000D03*
D16*
X122750000Y-65200000D03*
D15*
X123250000Y-69000000D03*
D18*
X114250000Y-63000000D03*
X126250000Y-65200000D03*
D15*
X184250000Y-120000000D03*
D16*
X189750000Y-114100000D03*
D17*
X189750000Y-120000000D03*
D16*
X194750000Y-116200000D03*
D15*
X195250000Y-120000000D03*
D18*
X186250000Y-114000000D03*
X198250000Y-116200000D03*
D15*
X184250000Y-103000000D03*
D16*
X189750000Y-97100000D03*
D17*
X189750000Y-103000000D03*
D16*
X194750000Y-99200000D03*
D15*
X195250000Y-103000000D03*
D18*
X186250000Y-97000000D03*
X198250000Y-99200000D03*
D15*
X148250000Y-120000000D03*
D16*
X153750000Y-114100000D03*
D17*
X153750000Y-120000000D03*
D16*
X158750000Y-116200000D03*
D15*
X159250000Y-120000000D03*
D18*
X150250000Y-114000000D03*
X162250000Y-116200000D03*
D15*
X94250000Y-86000000D03*
D16*
X99750000Y-80100000D03*
D17*
X99750000Y-86000000D03*
D16*
X104750000Y-82200000D03*
D15*
X105250000Y-86000000D03*
D18*
X96250000Y-80000000D03*
X108250000Y-82200000D03*
D15*
X148250000Y-103000000D03*
D16*
X153750000Y-97100000D03*
D17*
X153750000Y-103000000D03*
D16*
X158750000Y-99200000D03*
D15*
X159250000Y-103000000D03*
D18*
X150250000Y-97000000D03*
X162250000Y-99200000D03*
D15*
X112250000Y-86000000D03*
D16*
X117750000Y-80100000D03*
D17*
X117750000Y-86000000D03*
D16*
X122750000Y-82200000D03*
D15*
X123250000Y-86000000D03*
D18*
X114250000Y-80000000D03*
X126250000Y-82200000D03*
D15*
X130250000Y-103000000D03*
D16*
X135750000Y-97100000D03*
D17*
X135750000Y-103000000D03*
D16*
X140750000Y-99200000D03*
D15*
X141250000Y-103000000D03*
D18*
X132250000Y-97000000D03*
X144250000Y-99200000D03*
D15*
X184250000Y-137000000D03*
D16*
X189750000Y-131100000D03*
D17*
X189750000Y-137000000D03*
D16*
X194750000Y-133200000D03*
D15*
X195250000Y-137000000D03*
D18*
X186250000Y-131000000D03*
X198250000Y-133200000D03*
D15*
X94250000Y-137000000D03*
D16*
X99750000Y-131100000D03*
D17*
X99750000Y-137000000D03*
D16*
X104750000Y-133200000D03*
D15*
X105250000Y-137000000D03*
D18*
X96250000Y-131000000D03*
X108250000Y-133200000D03*
D15*
X112250000Y-137000000D03*
D16*
X117750000Y-131100000D03*
D17*
X117750000Y-137000000D03*
D16*
X122750000Y-133200000D03*
D15*
X123250000Y-137000000D03*
D18*
X114250000Y-131000000D03*
X126250000Y-133200000D03*
D15*
X94250000Y-103000000D03*
D16*
X99750000Y-97100000D03*
D17*
X99750000Y-103000000D03*
D16*
X104750000Y-99200000D03*
D15*
X105250000Y-103000000D03*
D18*
X96250000Y-97000000D03*
X108250000Y-99200000D03*
D15*
X94250000Y-120000000D03*
D16*
X99750000Y-114100000D03*
D17*
X99750000Y-120000000D03*
D16*
X104750000Y-116200000D03*
D15*
X105250000Y-120000000D03*
D18*
X96250000Y-114000000D03*
X108250000Y-116200000D03*
D15*
X184250000Y-86000000D03*
D16*
X189750000Y-80100000D03*
D17*
X189750000Y-86000000D03*
D16*
X194750000Y-82200000D03*
D15*
X195250000Y-86000000D03*
D18*
X186250000Y-80000000D03*
X198250000Y-82200000D03*
D15*
X184250000Y-69000000D03*
D16*
X189750000Y-63100000D03*
D17*
X189750000Y-69000000D03*
D16*
X194750000Y-65200000D03*
D15*
X195250000Y-69000000D03*
D18*
X186250000Y-63000000D03*
X198250000Y-65200000D03*
D15*
X166250000Y-137000000D03*
D16*
X171750000Y-131100000D03*
D17*
X171750000Y-137000000D03*
D16*
X176750000Y-133200000D03*
D15*
X177250000Y-137000000D03*
D18*
X168250000Y-131000000D03*
X180250000Y-133200000D03*
D19*
X164670000Y-76000000D03*
X167210000Y-76000000D03*
X169750000Y-76000000D03*
X172290000Y-76000000D03*
X174830000Y-76000000D03*
X177370000Y-76000000D03*
X179910000Y-76000000D03*
X182450000Y-76000000D03*
X184990000Y-76000000D03*
X187530000Y-76000000D03*
X190070000Y-76000000D03*
X192610000Y-76000000D03*
X195150000Y-76000000D03*
X164670000Y-91240000D03*
X167210000Y-91240000D03*
X169750000Y-91240000D03*
X172290000Y-91240000D03*
X174830000Y-91240000D03*
X177370000Y-91240000D03*
X179910000Y-91240000D03*
X182450000Y-91240000D03*
X184990000Y-91240000D03*
X187530000Y-91240000D03*
X190070000Y-91240000D03*
X192610000Y-91240000D03*
X195150000Y-91240000D03*
D20*
X162750000Y-122150000D03*
X162750000Y-118850000D03*
X108750000Y-88250000D03*
X108750000Y-84950000D03*
D21*
X151320000Y-145500000D03*
X148320000Y-145500000D03*
D22*
X152070000Y-143750000D03*
X149070000Y-143750000D03*
X147570000Y-143750000D03*
D23*
X153470000Y-144400000D03*
X153470000Y-146600000D03*
X146170000Y-144400000D03*
X146170000Y-146600000D03*
D20*
X126750000Y-122250000D03*
X126750000Y-118950000D03*
X180750000Y-105250000D03*
X180750000Y-101950000D03*
X144750000Y-71150000D03*
X144750000Y-67850000D03*
X180750000Y-88250000D03*
X180750000Y-84950000D03*
X180750000Y-71150000D03*
X180750000Y-67850000D03*
X198750000Y-88250000D03*
X198750000Y-84950000D03*
X198750000Y-122150000D03*
X198750000Y-118850000D03*
X108750000Y-139150000D03*
X108750000Y-135850000D03*
X162750000Y-71150000D03*
X162750000Y-67850000D03*
X198750000Y-139150000D03*
X198750000Y-135850000D03*
D24*
X139750000Y-147025000D03*
X139750000Y-144275000D03*
D25*
X137125000Y-144800000D03*
X137125000Y-146500000D03*
X142375000Y-144800000D03*
X142375000Y-146500000D03*
D20*
X108750000Y-71150000D03*
X108750000Y-67850000D03*
X144750000Y-105150000D03*
X144750000Y-101850000D03*
X126750000Y-105150000D03*
X126750000Y-101850000D03*
X144750000Y-88250000D03*
X144750000Y-84950000D03*
X126750000Y-88250000D03*
X126750000Y-84950000D03*
X162750000Y-139150000D03*
X162750000Y-135850000D03*
X144750000Y-139150000D03*
X144750000Y-135850000D03*
X126750000Y-71150000D03*
X126750000Y-67850000D03*
X162750000Y-105250000D03*
X162750000Y-101950000D03*
D26*
X192350000Y-144125000D03*
X192350000Y-142875000D03*
D27*
X189150000Y-145975000D03*
X189150000Y-141025000D03*
D20*
X180750000Y-122150000D03*
X180750000Y-118850000D03*
X162750000Y-88250000D03*
X162750000Y-84950000D03*
X180750000Y-139150000D03*
X180750000Y-135850000D03*
X144750000Y-122150000D03*
X144750000Y-118850000D03*
X126750000Y-139150000D03*
X126750000Y-135850000D03*
X108750000Y-105250000D03*
X108750000Y-101950000D03*
X198750000Y-105150000D03*
X198750000Y-101850000D03*
X198750000Y-71150000D03*
X198750000Y-67850000D03*
X108750000Y-122300000D03*
X108750000Y-119000000D03*
%LPD*%
M02*
