M48
; DRILL file {KiCad 9.0.0} date 2025-09-07T21:05:57+0100
; FORMAT={-:-/ absolute / metric / decimal}
; #@! TF.CreationDate,2025-09-07T21:05:57+01:00
; #@! TF.GenerationSoftware,Kicad,Pcbnew,9.0.0
; #@! TF.FileFunction,NonPlated,1,2,NPTH
FMAT,2
METRIC
; #@! TA.AperFunction,NonPlated,NPTH,ComponentDrill
T1C0.750
; #@! TA.AperFunction,NonPlated,NPTH,ComponentDrill
T2C0.900
; #@! TA.AperFunction,NonPlated,NPTH,ComponentDrill
T3C1.900
; #@! TA.AperFunction,NonPlated,NPTH,ComponentDrill
T4C3.050
; #@! TA.AperFunction,NonPlated,NPTH,ComponentDrill
T5C3.450
%
G90
G05
T1
X139.75Y-144.275
X139.75Y-147.025
T2
X148.32Y-145.5
X151.32Y-145.5
T3
X94.25Y-69.0
X94.25Y-86.0
X94.25Y-103.0
X94.25Y-120.0
X94.25Y-137.0
X105.25Y-69.0
X105.25Y-86.0
X105.25Y-103.0
X105.25Y-120.0
X105.25Y-137.0
X112.25Y-69.0
X112.25Y-86.0
X112.25Y-103.0
X112.25Y-120.0
X112.25Y-137.0
X123.25Y-69.0
X123.25Y-86.0
X123.25Y-103.0
X123.25Y-120.0
X123.25Y-137.0
X130.25Y-69.0
X130.25Y-86.0
X130.25Y-103.0
X130.25Y-120.0
X130.25Y-137.0
X141.25Y-69.0
X141.25Y-86.0
X141.25Y-103.0
X141.25Y-120.0
X141.25Y-137.0
X148.25Y-69.0
X148.25Y-86.0
X148.25Y-103.0
X148.25Y-120.0
X148.25Y-137.0
X159.25Y-69.0
X159.25Y-86.0
X159.25Y-103.0
X159.25Y-120.0
X159.25Y-137.0
X166.25Y-69.0
X166.25Y-86.0
X166.25Y-103.0
X166.25Y-120.0
X166.25Y-137.0
X177.25Y-69.0
X177.25Y-86.0
X177.25Y-103.0
X177.25Y-120.0
X177.25Y-137.0
X184.25Y-69.0
X184.25Y-86.0
X184.25Y-103.0
X184.25Y-120.0
X184.25Y-137.0
X195.25Y-69.0
X195.25Y-86.0
X195.25Y-103.0
X195.25Y-120.0
X195.25Y-137.0
T4
X99.75Y-63.1
X99.75Y-80.1
X99.75Y-97.1
X99.75Y-114.1
X99.75Y-131.1
X104.75Y-65.2
X104.75Y-82.2
X104.75Y-99.2
X104.75Y-116.2
X104.75Y-133.2
X117.75Y-63.1
X117.75Y-80.1
X117.75Y-97.1
X117.75Y-114.1
X117.75Y-131.1
X122.75Y-65.2
X122.75Y-82.2
X122.75Y-99.2
X122.75Y-116.2
X122.75Y-133.2
X135.75Y-63.1
X135.75Y-80.1
X135.75Y-97.1
X135.75Y-114.1
X135.75Y-131.1
X140.75Y-65.2
X140.75Y-82.2
X140.75Y-99.2
X140.75Y-116.2
X140.75Y-133.2
X153.75Y-63.1
X153.75Y-80.1
X153.75Y-97.1
X153.75Y-114.1
X153.75Y-131.1
X158.75Y-65.2
X158.75Y-82.2
X158.75Y-99.2
X158.75Y-116.2
X158.75Y-133.2
X171.75Y-63.1
X171.75Y-80.1
X171.75Y-97.1
X171.75Y-114.1
X171.75Y-131.1
X176.75Y-65.2
X176.75Y-82.2
X176.75Y-99.2
X176.75Y-116.2
X176.75Y-133.2
X189.75Y-63.1
X189.75Y-80.1
X189.75Y-97.1
X189.75Y-114.1
X189.75Y-131.1
X194.75Y-65.2
X194.75Y-82.2
X194.75Y-99.2
X194.75Y-116.2
X194.75Y-133.2
T5
X99.75Y-69.0
X99.75Y-86.0
X99.75Y-103.0
X99.75Y-120.0
X99.75Y-137.0
X117.75Y-69.0
X117.75Y-86.0
X117.75Y-103.0
X117.75Y-120.0
X117.75Y-137.0
X135.75Y-69.0
X135.75Y-86.0
X135.75Y-103.0
X135.75Y-120.0
X135.75Y-137.0
X153.75Y-69.0
X153.75Y-86.0
X153.75Y-103.0
X153.75Y-120.0
X153.75Y-137.0
X171.75Y-69.0
X171.75Y-86.0
X171.75Y-103.0
X171.75Y-120.0
X171.75Y-137.0
X189.75Y-69.0
X189.75Y-86.0
X189.75Y-103.0
X189.75Y-120.0
X189.75Y-137.0
M30
